<ttFont>
    <TTGlyph name="A" xMin="1" yMin="-46" xMax="764" yMax="745">
      <contour>
        <pt x="606" y="745" on="0"/>
        <pt x="648" y="707" on="0"/>
        <pt x="648" y="646" on="0"/>
        <pt x="598" y="602" on="0"/>
        <pt x="568" y="602" on="0"/>
        <pt x="567" y="616" on="1"/>
        <pt x="565" y="640" on="0"/>
        <pt x="506" y="682" on="0"/>
        <pt x="475" y="682" on="1"/>
        <pt x="396" y="682" on="0"/>
        <pt x="232" y="532" on="0"/>
        <pt x="134" y="338" on="0"/>
        <pt x="134" y="204" on="0"/>
        <pt x="191" y="119" on="0"/>
        <pt x="246" y="119" on="1"/>
        <pt x="334" y="119" on="0"/>
        <pt x="437" y="274" on="1"/>
        <pt x="485" y="345" on="0"/>
        <pt x="534" y="482" on="1"/>
        <pt x="552" y="531" on="0"/>
        <pt x="553" y="532" on="1"/>
        <pt x="561" y="553" on="0"/>
        <pt x="579" y="553" on="1"/>
        <pt x="588" y="553" on="0"/>
        <pt x="599" y="542" on="0"/>
        <pt x="599" y="527" on="0"/>
        <pt x="596" y="518" on="1"/>
        <pt x="567" y="412" on="0"/>
        <pt x="567" y="219" on="0"/>
        <pt x="633" y="91" on="0"/>
        <pt x="688" y="91" on="1"/>
        <pt x="716" y="91" on="0"/>
        <pt x="738" y="109" on="1"/>
        <pt x="745" y="115" on="0"/>
        <pt x="752" y="115" on="1"/>
        <pt x="764" y="115" on="0"/>
        <pt x="764" y="104" on="1"/>
        <pt x="764" y="49" on="0"/>
        <pt x="634" y="-46" on="0"/>
        <pt x="570" y="-46" on="1"/>
        <pt x="467" y="-46" on="0"/>
        <pt x="467" y="96" on="1"/>
        <pt x="467" y="153" on="0"/>
        <pt x="496" y="295" on="0"/>
        <pt x="496" y="300" on="0"/>
        <pt x="488" y="300" on="0"/>
        <pt x="483" y="291" on="1"/>
        <pt x="426" y="149" on="0"/>
        <pt x="228" y="-44" on="0"/>
        <pt x="62" y="-44" on="0"/>
        <pt x="26" y="20" on="1"/>
        <pt x="1" y="63" on="0"/>
        <pt x="1" y="126" on="1"/>
        <pt x="1" y="250" on="0"/>
        <pt x="170" y="541" on="0"/>
        <pt x="437" y="745" on="0"/>
        <pt x="563" y="745" on="1"/>
      </contour>
    </TTGlyph>
    <TTGlyph name="AE" xMin="1" yMin="-44" xMax="1036" yMax="812">
      <contour>
        <pt x="571" y="249" on="1"/>
        <pt x="583" y="261" on="0"/>
        <pt x="601" y="277" on="0"/>
        <pt x="614" y="291" on="0"/>
        <pt x="621" y="300" on="0"/>
        <pt x="625" y="305" on="1"/>
        <pt x="632" y="314" on="0"/>
        <pt x="632" y="327" on="1"/>
        <pt x="632" y="350" on="0"/>
        <pt x="569" y="378" on="1"/>
        <pt x="567" y="356" on="0"/>
        <pt x="567" y="289" on="0"/>
      </contour>
      <contour>
        <pt x="437" y="274" on="1"/>
        <pt x="467" y="320" on="0"/>
        <pt x="507" y="412" on="1"/>
        <pt x="472" y="439" on="0"/>
        <pt x="472" y="479" on="1"/>
        <pt x="472" y="551" on="0"/>
        <pt x="564" y="628" on="1"/>
        <pt x="555" y="650" on="0"/>
        <pt x="501" y="682" on="0"/>
        <pt x="475" y="682" on="1"/>
        <pt x="396" y="682" on="0"/>
        <pt x="232" y="532" on="0"/>
        <pt x="134" y="338" on="0"/>
        <pt x="134" y="204" on="0"/>
        <pt x="191" y="119" on="0"/>
        <pt x="246" y="119" on="1"/>
        <pt x="334" y="119" on="0"/>
      </contour>
      <contour>
        <pt x="895" y="666" on="1"/>
        <pt x="900" y="686" on="1"/>
        <pt x="900" y="704" on="0"/>
        <pt x="863" y="721" on="0"/>
        <pt x="845" y="721" on="1"/>
        <pt x="803" y="721" on="0"/>
        <pt x="679" y="667" on="0"/>
        <pt x="585" y="592" on="0"/>
        <pt x="584" y="540" on="0"/>
        <pt x="635" y="496" on="0"/>
        <pt x="696" y="468" on="0"/>
        <pt x="747" y="425" on="0"/>
        <pt x="747" y="374" on="0"/>
        <pt x="716" y="328" on="0"/>
        <pt x="672" y="293" on="0"/>
        <pt x="650" y="275" on="1"/>
        <pt x="598" y="231" on="0"/>
        <pt x="598" y="177" on="1"/>
        <pt x="598" y="142" on="0"/>
        <pt x="657" y="91" on="0"/>
        <pt x="734" y="91" on="0"/>
        <pt x="808" y="116" on="0"/>
        <pt x="840" y="142" on="1"/>
        <pt x="885" y="178" on="0"/>
        <pt x="930" y="226" on="1"/>
        <pt x="937" y="233" on="0"/>
        <pt x="951" y="233" on="0"/>
        <pt x="961" y="219" on="0"/>
        <pt x="961" y="211" on="1"/>
        <pt x="961" y="191" on="0"/>
        <pt x="890" y="109" on="0"/>
        <pt x="785" y="25" on="0"/>
        <pt x="645" y="-39" on="0"/>
        <pt x="535" y="-39" on="0"/>
        <pt x="467" y="17" on="0"/>
        <pt x="467" y="124" on="0"/>
        <pt x="496" y="295" on="0"/>
        <pt x="496" y="300" on="0"/>
        <pt x="488" y="300" on="0"/>
        <pt x="483" y="291" on="1"/>
        <pt x="426" y="149" on="0"/>
        <pt x="228" y="-44" on="0"/>
        <pt x="62" y="-44" on="0"/>
        <pt x="26" y="20" on="1"/>
        <pt x="1" y="63" on="0"/>
        <pt x="1" y="126" on="1"/>
        <pt x="1" y="250" on="0"/>
        <pt x="170" y="541" on="0"/>
        <pt x="437" y="745" on="0"/>
        <pt x="563" y="745" on="1"/>
        <pt x="603" y="745" on="0"/>
        <pt x="645" y="712" on="0"/>
        <pt x="648" y="688" on="1"/>
        <pt x="733" y="741" on="0"/>
        <pt x="923" y="812" on="0"/>
        <pt x="999" y="812" on="0"/>
        <pt x="1036" y="780" on="0"/>
        <pt x="1036" y="756" on="1"/>
        <pt x="1036" y="721" on="0"/>
        <pt x="932" y="658" on="0"/>
        <pt x="895" y="659" on="0"/>
      </contour>
    </TTGlyph>
    <TTGlyph name="Aacute" xMin="1" yMin="-46" xMax="764" yMax="886">
      <contour>
        <pt x="527" y="849" on="1"/>
        <pt x="527" y="820" on="0"/>
        <pt x="473" y="779" on="0"/>
        <pt x="435" y="770" on="1"/>
        <pt x="370" y="756" on="0"/>
        <pt x="337" y="756" on="1"/>
        <pt x="322" y="756" on="0"/>
        <pt x="322" y="768" on="1"/>
        <pt x="322" y="782" on="0"/>
        <pt x="348" y="791" on="1"/>
        <pt x="390" y="805" on="0"/>
        <pt x="436" y="842" on="0"/>
        <pt x="440" y="855" on="1"/>
        <pt x="451" y="886" on="0"/>
        <pt x="490" y="886" on="1"/>
        <pt x="508" y="886" on="0"/>
        <pt x="527" y="862" on="0"/>
      </contour>
      <contour>
        <pt x="606" y="745" on="0"/>
        <pt x="648" y="707" on="0"/>
        <pt x="648" y="646" on="0"/>
        <pt x="598" y="602" on="0"/>
        <pt x="568" y="602" on="0"/>
        <pt x="567" y="616" on="1"/>
        <pt x="565" y="640" on="0"/>
        <pt x="506" y="682" on="0"/>
        <pt x="475" y="682" on="1"/>
        <pt x="396" y="682" on="0"/>
        <pt x="232" y="532" on="0"/>
        <pt x="134" y="338" on="0"/>
        <pt x="134" y="204" on="0"/>
        <pt x="191" y="119" on="0"/>
        <pt x="246" y="119" on="1"/>
        <pt x="334" y="119" on="0"/>
        <pt x="437" y="274" on="1"/>
        <pt x="485" y="345" on="0"/>
        <pt x="534" y="482" on="1"/>
        <pt x="552" y="531" on="0"/>
        <pt x="553" y="532" on="1"/>
        <pt x="561" y="553" on="0"/>
        <pt x="579" y="553" on="1"/>
        <pt x="588" y="553" on="0"/>
        <pt x="599" y="542" on="0"/>
        <pt x="599" y="527" on="0"/>
        <pt x="596" y="518" on="1"/>
        <pt x="567" y="412" on="0"/>
        <pt x="567" y="219" on="0"/>
        <pt x="633" y="91" on="0"/>
        <pt x="688" y="91" on="1"/>
        <pt x="716" y="91" on="0"/>
        <pt x="738" y="109" on="1"/>
        <pt x="745" y="115" on="0"/>
        <pt x="752" y="115" on="1"/>
        <pt x="764" y="115" on="0"/>
        <pt x="764" y="104" on="1"/>
        <pt x="764" y="49" on="0"/>
        <pt x="634" y="-46" on="0"/>
        <pt x="570" y="-46" on="1"/>
        <pt x="467" y="-46" on="0"/>
        <pt x="467" y="96" on="1"/>
        <pt x="467" y="153" on="0"/>
        <pt x="496" y="295" on="0"/>
        <pt x="496" y="300" on="0"/>
        <pt x="488" y="300" on="0"/>
        <pt x="483" y="291" on="1"/>
        <pt x="426" y="149" on="0"/>
        <pt x="228" y="-44" on="0"/>
        <pt x="62" y="-44" on="0"/>
        <pt x="26" y="20" on="1"/>
        <pt x="1" y="63" on="0"/>
        <pt x="1" y="126" on="1"/>
        <pt x="1" y="250" on="0"/>
        <pt x="170" y="541" on="0"/>
        <pt x="437" y="745" on="0"/>
        <pt x="563" y="745" on="1"/>
      </contour>
    </TTGlyph>
    <TTGlyph name="Acircumflex" xMin="1" yMin="-46" xMax="764" yMax="896">
      <contour>
        <pt x="475" y="812" on="1"/>
        <pt x="434" y="776" on="0"/>
        <pt x="343" y="776" on="0"/>
        <pt x="343" y="794" on="1"/>
        <pt x="343" y="805" on="0"/>
        <pt x="396" y="824" on="0"/>
        <pt x="428" y="853" on="0"/>
        <pt x="440" y="878" on="0"/>
        <pt x="460" y="896" on="0"/>
        <pt x="490" y="896" on="0"/>
        <pt x="510" y="878" on="0"/>
        <pt x="522" y="853" on="0"/>
        <pt x="554" y="824" on="0"/>
        <pt x="607" y="805" on="0"/>
        <pt x="607" y="794" on="1"/>
        <pt x="607" y="776" on="0"/>
        <pt x="516" y="776" on="0"/>
      </contour>
      <contour>
        <pt x="598" y="602" on="0"/>
        <pt x="648" y="646" on="0"/>
        <pt x="648" y="707" on="0"/>
        <pt x="606" y="745" on="0"/>
        <pt x="563" y="745" on="1"/>
        <pt x="437" y="745" on="0"/>
        <pt x="170" y="541" on="0"/>
        <pt x="1" y="250" on="0"/>
        <pt x="1" y="126" on="1"/>
        <pt x="1" y="63" on="0"/>
        <pt x="26" y="20" on="1"/>
        <pt x="62" y="-44" on="0"/>
        <pt x="228" y="-44" on="0"/>
        <pt x="426" y="149" on="0"/>
        <pt x="483" y="291" on="1"/>
        <pt x="488" y="300" on="0"/>
        <pt x="493" y="300" on="1"/>
        <pt x="496" y="300" on="0"/>
        <pt x="496" y="295" on="0"/>
        <pt x="467" y="153" on="0"/>
        <pt x="467" y="96" on="1"/>
        <pt x="467" y="-46" on="0"/>
        <pt x="570" y="-46" on="1"/>
        <pt x="634" y="-46" on="0"/>
        <pt x="764" y="49" on="0"/>
        <pt x="764" y="104" on="1"/>
        <pt x="764" y="115" on="0"/>
        <pt x="752" y="115" on="1"/>
        <pt x="745" y="115" on="0"/>
        <pt x="738" y="109" on="1"/>
        <pt x="716" y="91" on="0"/>
        <pt x="688" y="91" on="1"/>
        <pt x="633" y="91" on="0"/>
        <pt x="567" y="219" on="0"/>
        <pt x="567" y="412" on="0"/>
        <pt x="596" y="518" on="1"/>
        <pt x="599" y="527" on="0"/>
        <pt x="599" y="542" on="0"/>
        <pt x="588" y="553" on="0"/>
        <pt x="579" y="553" on="1"/>
        <pt x="561" y="553" on="0"/>
        <pt x="553" y="532" on="1"/>
        <pt x="552" y="531" on="0"/>
        <pt x="534" y="482" on="1"/>
        <pt x="485" y="345" on="0"/>
        <pt x="437" y="274" on="1"/>
        <pt x="334" y="119" on="0"/>
        <pt x="246" y="119" on="1"/>
        <pt x="191" y="119" on="0"/>
        <pt x="134" y="204" on="0"/>
        <pt x="134" y="338" on="0"/>
        <pt x="232" y="532" on="0"/>
        <pt x="396" y="682" on="0"/>
        <pt x="475" y="682" on="1"/>
        <pt x="506" y="682" on="0"/>
        <pt x="565" y="640" on="0"/>
        <pt x="567" y="616" on="1"/>
        <pt x="568" y="602" on="0"/>
      </contour>
    </TTGlyph>
    <TTGlyph name="Adieresis" xMin="1" yMin="-46" xMax="764" yMax="888">
      <contour>
        <pt x="437" y="804" on="0"/>
        <pt x="437" y="854" on="0"/>
        <pt x="468" y="888" on="0"/>
        <pt x="514" y="888" on="0"/>
        <pt x="545" y="854" on="0"/>
        <pt x="545" y="804" on="0"/>
        <pt x="514" y="770" on="0"/>
        <pt x="468" y="770" on="0"/>
      </contour>
      <contour>
        <pt x="297" y="804" on="0"/>
        <pt x="297" y="854" on="0"/>
        <pt x="328" y="888" on="0"/>
        <pt x="374" y="888" on="0"/>
        <pt x="405" y="854" on="0"/>
        <pt x="405" y="804" on="0"/>
        <pt x="374" y="770" on="0"/>
        <pt x="328" y="770" on="0"/>
      </contour>
      <contour>
        <pt x="606" y="745" on="0"/>
        <pt x="648" y="707" on="0"/>
        <pt x="648" y="646" on="0"/>
        <pt x="598" y="602" on="0"/>
        <pt x="568" y="602" on="0"/>
        <pt x="567" y="616" on="1"/>
        <pt x="565" y="640" on="0"/>
        <pt x="506" y="682" on="0"/>
        <pt x="475" y="682" on="1"/>
        <pt x="396" y="682" on="0"/>
        <pt x="232" y="532" on="0"/>
        <pt x="134" y="338" on="0"/>
        <pt x="134" y="204" on="0"/>
        <pt x="191" y="119" on="0"/>
        <pt x="246" y="119" on="1"/>
        <pt x="334" y="119" on="0"/>
        <pt x="437" y="274" on="1"/>
        <pt x="485" y="345" on="0"/>
        <pt x="534" y="482" on="1"/>
        <pt x="552" y="531" on="0"/>
        <pt x="553" y="532" on="1"/>
        <pt x="561" y="553" on="0"/>
        <pt x="579" y="553" on="1"/>
        <pt x="588" y="553" on="0"/>
        <pt x="599" y="542" on="0"/>
        <pt x="599" y="527" on="0"/>
        <pt x="596" y="518" on="1"/>
        <pt x="567" y="412" on="0"/>
        <pt x="567" y="219" on="0"/>
        <pt x="633" y="91" on="0"/>
        <pt x="688" y="91" on="1"/>
        <pt x="716" y="91" on="0"/>
        <pt x="738" y="109" on="1"/>
        <pt x="745" y="115" on="0"/>
        <pt x="752" y="115" on="1"/>
        <pt x="764" y="115" on="0"/>
        <pt x="764" y="104" on="1"/>
        <pt x="764" y="49" on="0"/>
        <pt x="634" y="-46" on="0"/>
        <pt x="570" y="-46" on="1"/>
        <pt x="467" y="-46" on="0"/>
        <pt x="467" y="96" on="1"/>
        <pt x="467" y="153" on="0"/>
        <pt x="496" y="295" on="0"/>
        <pt x="496" y="300" on="0"/>
        <pt x="488" y="300" on="0"/>
        <pt x="483" y="291" on="1"/>
        <pt x="426" y="149" on="0"/>
        <pt x="228" y="-44" on="0"/>
        <pt x="62" y="-44" on="0"/>
        <pt x="26" y="20" on="1"/>
        <pt x="1" y="63" on="0"/>
        <pt x="1" y="126" on="1"/>
        <pt x="1" y="250" on="0"/>
        <pt x="170" y="541" on="0"/>
        <pt x="437" y="745" on="0"/>
        <pt x="563" y="745" on="1"/>
      </contour>
    </TTGlyph>
    <TTGlyph name="Agrave" xMin="1" yMin="-46" xMax="764" yMax="895">
      <contour>
        <pt x="362" y="858" on="1"/>
        <pt x="362" y="871" on="0"/>
        <pt x="381" y="895" on="0"/>
        <pt x="421" y="895" on="0"/>
        <pt x="443" y="876" on="0"/>
        <pt x="452" y="851" on="0"/>
        <pt x="490" y="819" on="0"/>
        <pt x="551" y="800" on="0"/>
        <pt x="551" y="785" on="1"/>
        <pt x="551" y="773" on="0"/>
        <pt x="522" y="773" on="0"/>
        <pt x="483" y="777" on="0"/>
        <pt x="410" y="790" on="0"/>
        <pt x="362" y="829" on="0"/>
      </contour>
      <contour>
        <pt x="598" y="602" on="0"/>
        <pt x="648" y="646" on="0"/>
        <pt x="648" y="707" on="0"/>
        <pt x="606" y="745" on="0"/>
        <pt x="563" y="745" on="1"/>
        <pt x="437" y="745" on="0"/>
        <pt x="170" y="541" on="0"/>
        <pt x="1" y="250" on="0"/>
        <pt x="1" y="126" on="1"/>
        <pt x="1" y="63" on="0"/>
        <pt x="26" y="20" on="1"/>
        <pt x="62" y="-44" on="0"/>
        <pt x="228" y="-44" on="0"/>
        <pt x="426" y="149" on="0"/>
        <pt x="483" y="291" on="1"/>
        <pt x="488" y="300" on="0"/>
        <pt x="493" y="300" on="1"/>
        <pt x="496" y="300" on="0"/>
        <pt x="496" y="295" on="0"/>
        <pt x="467" y="153" on="0"/>
        <pt x="467" y="96" on="1"/>
        <pt x="467" y="-46" on="0"/>
        <pt x="570" y="-46" on="1"/>
        <pt x="634" y="-46" on="0"/>
        <pt x="764" y="49" on="0"/>
        <pt x="764" y="104" on="1"/>
        <pt x="764" y="115" on="0"/>
        <pt x="752" y="115" on="1"/>
        <pt x="745" y="115" on="0"/>
        <pt x="738" y="109" on="1"/>
        <pt x="716" y="91" on="0"/>
        <pt x="688" y="91" on="1"/>
        <pt x="633" y="91" on="0"/>
        <pt x="567" y="219" on="0"/>
        <pt x="567" y="412" on="0"/>
        <pt x="596" y="518" on="1"/>
        <pt x="599" y="527" on="0"/>
        <pt x="599" y="542" on="0"/>
        <pt x="588" y="553" on="0"/>
        <pt x="579" y="553" on="1"/>
        <pt x="561" y="553" on="0"/>
        <pt x="553" y="532" on="1"/>
        <pt x="552" y="531" on="0"/>
        <pt x="534" y="482" on="1"/>
        <pt x="485" y="345" on="0"/>
        <pt x="437" y="274" on="1"/>
        <pt x="334" y="119" on="0"/>
        <pt x="246" y="119" on="1"/>
        <pt x="191" y="119" on="0"/>
        <pt x="134" y="204" on="0"/>
        <pt x="134" y="338" on="0"/>
        <pt x="232" y="532" on="0"/>
        <pt x="396" y="682" on="0"/>
        <pt x="475" y="682" on="1"/>
        <pt x="506" y="682" on="0"/>
        <pt x="565" y="640" on="0"/>
        <pt x="567" y="616" on="1"/>
        <pt x="568" y="602" on="0"/>
      </contour>
    </TTGlyph>
    <TTGlyph name="Aring" xMin="1" yMin="-46" xMax="764" yMax="916">
      <contour>
        <pt x="421" y="874" on="0"/>
        <pt x="397" y="851" on="0"/>
        <pt x="397" y="826" on="0"/>
        <pt x="415" y="808" on="0"/>
        <pt x="440" y="808" on="0"/>
        <pt x="463" y="831" on="0"/>
        <pt x="463" y="856" on="0"/>
        <pt x="445" y="874" on="0"/>
      </contour>
      <contour>
        <pt x="362" y="810" on="0"/>
        <pt x="362" y="872" on="0"/>
        <pt x="401" y="916" on="0"/>
        <pt x="459" y="916" on="0"/>
        <pt x="498" y="872" on="0"/>
        <pt x="498" y="810" on="0"/>
        <pt x="459" y="766" on="0"/>
        <pt x="401" y="766" on="0"/>
      </contour>
      <contour>
        <pt x="606" y="745" on="0"/>
        <pt x="648" y="707" on="0"/>
        <pt x="648" y="646" on="0"/>
        <pt x="598" y="602" on="0"/>
        <pt x="568" y="602" on="0"/>
        <pt x="567" y="616" on="1"/>
        <pt x="565" y="640" on="0"/>
        <pt x="506" y="682" on="0"/>
        <pt x="475" y="682" on="1"/>
        <pt x="396" y="682" on="0"/>
        <pt x="232" y="532" on="0"/>
        <pt x="134" y="338" on="0"/>
        <pt x="134" y="204" on="0"/>
        <pt x="191" y="119" on="0"/>
        <pt x="246" y="119" on="1"/>
        <pt x="334" y="119" on="0"/>
        <pt x="437" y="274" on="1"/>
        <pt x="485" y="345" on="0"/>
        <pt x="534" y="482" on="1"/>
        <pt x="552" y="531" on="0"/>
        <pt x="553" y="532" on="1"/>
        <pt x="561" y="553" on="0"/>
        <pt x="579" y="553" on="1"/>
        <pt x="588" y="553" on="0"/>
        <pt x="599" y="542" on="0"/>
        <pt x="599" y="527" on="0"/>
        <pt x="596" y="518" on="1"/>
        <pt x="567" y="412" on="0"/>
        <pt x="567" y="219" on="0"/>
        <pt x="633" y="91" on="0"/>
        <pt x="688" y="91" on="1"/>
        <pt x="716" y="91" on="0"/>
        <pt x="738" y="109" on="1"/>
        <pt x="745" y="115" on="0"/>
        <pt x="752" y="115" on="1"/>
        <pt x="764" y="115" on="0"/>
        <pt x="764" y="104" on="1"/>
        <pt x="764" y="49" on="0"/>
        <pt x="634" y="-46" on="0"/>
        <pt x="570" y="-46" on="1"/>
        <pt x="467" y="-46" on="0"/>
        <pt x="467" y="96" on="1"/>
        <pt x="467" y="153" on="0"/>
        <pt x="496" y="295" on="0"/>
        <pt x="496" y="300" on="0"/>
        <pt x="488" y="300" on="0"/>
        <pt x="483" y="291" on="1"/>
        <pt x="426" y="149" on="0"/>
        <pt x="228" y="-44" on="0"/>
        <pt x="62" y="-44" on="0"/>
        <pt x="26" y="20" on="1"/>
        <pt x="1" y="63" on="0"/>
        <pt x="1" y="126" on="1"/>
        <pt x="1" y="250" on="0"/>
        <pt x="170" y="541" on="0"/>
        <pt x="437" y="745" on="0"/>
        <pt x="563" y="745" on="1"/>
      </contour>
    </TTGlyph>
    <TTGlyph name="Atilde" xMin="1" yMin="-46" xMax="764" yMax="852">
      <contour>
        <pt x="326" y="815" on="0"/>
        <pt x="387" y="852" on="0"/>
        <pt x="442" y="852" on="0"/>
        <pt x="502" y="825" on="0"/>
        <pt x="535" y="825" on="0"/>
        <pt x="544" y="827" on="1"/>
        <pt x="554" y="827" on="0"/>
        <pt x="555" y="819" on="1"/>
        <pt x="555" y="803" on="0"/>
        <pt x="493" y="767" on="0"/>
        <pt x="439" y="767" on="0"/>
        <pt x="381" y="793" on="0"/>
        <pt x="346" y="793" on="0"/>
        <pt x="337" y="791" on="1"/>
        <pt x="327" y="791" on="0"/>
        <pt x="326" y="799" on="1"/>
      </contour>
      <contour>
        <pt x="606" y="745" on="0"/>
        <pt x="648" y="707" on="0"/>
        <pt x="648" y="646" on="0"/>
        <pt x="598" y="602" on="0"/>
        <pt x="568" y="602" on="0"/>
        <pt x="567" y="616" on="1"/>
        <pt x="565" y="640" on="0"/>
        <pt x="506" y="682" on="0"/>
        <pt x="475" y="682" on="1"/>
        <pt x="396" y="682" on="0"/>
        <pt x="232" y="532" on="0"/>
        <pt x="134" y="338" on="0"/>
        <pt x="134" y="204" on="0"/>
        <pt x="191" y="119" on="0"/>
        <pt x="246" y="119" on="1"/>
        <pt x="334" y="119" on="0"/>
        <pt x="437" y="274" on="1"/>
        <pt x="485" y="345" on="0"/>
        <pt x="534" y="482" on="1"/>
        <pt x="552" y="531" on="0"/>
        <pt x="553" y="532" on="1"/>
        <pt x="561" y="553" on="0"/>
        <pt x="579" y="553" on="1"/>
        <pt x="588" y="553" on="0"/>
        <pt x="599" y="542" on="0"/>
        <pt x="599" y="527" on="0"/>
        <pt x="596" y="518" on="1"/>
        <pt x="567" y="412" on="0"/>
        <pt x="567" y="219" on="0"/>
        <pt x="633" y="91" on="0"/>
        <pt x="688" y="91" on="1"/>
        <pt x="716" y="91" on="0"/>
        <pt x="738" y="109" on="1"/>
        <pt x="745" y="115" on="0"/>
        <pt x="752" y="115" on="1"/>
        <pt x="764" y="115" on="0"/>
        <pt x="764" y="104" on="1"/>
        <pt x="764" y="49" on="0"/>
        <pt x="634" y="-46" on="0"/>
        <pt x="570" y="-46" on="1"/>
        <pt x="467" y="-46" on="0"/>
        <pt x="467" y="96" on="1"/>
        <pt x="467" y="153" on="0"/>
        <pt x="496" y="295" on="0"/>
        <pt x="496" y="300" on="0"/>
        <pt x="488" y="300" on="0"/>
        <pt x="483" y="291" on="1"/>
        <pt x="426" y="149" on="0"/>
        <pt x="228" y="-44" on="0"/>
        <pt x="62" y="-44" on="0"/>
        <pt x="26" y="20" on="1"/>
        <pt x="1" y="63" on="0"/>
        <pt x="1" y="126" on="1"/>
        <pt x="1" y="250" on="0"/>
        <pt x="170" y="541" on="0"/>
        <pt x="437" y="745" on="0"/>
        <pt x="563" y="745" on="1"/>
      </contour>
    </TTGlyph>
    <TTGlyph name="B" xMin="32" yMin="-69" xMax="601" yMax="806">
      <contour>
        <pt x="398" y="441" on="1"/>
        <pt x="447" y="499" on="0"/>
        <pt x="447" y="566" on="1"/>
        <pt x="447" y="615" on="0"/>
        <pt x="397" y="696" on="0"/>
        <pt x="347" y="716" on="1"/>
        <pt x="329" y="725" on="0"/>
        <pt x="309" y="725" on="1"/>
        <pt x="250" y="725" on="0"/>
        <pt x="142" y="617" on="0"/>
        <pt x="81" y="463" on="0"/>
        <pt x="81" y="305" on="0"/>
        <pt x="125" y="163" on="0"/>
        <pt x="157" y="163" on="1"/>
        <pt x="166" y="163" on="0"/>
        <pt x="168" y="174" on="1"/>
        <pt x="189" y="252" on="0"/>
        <pt x="211" y="474" on="1"/>
        <pt x="219" y="555" on="0"/>
        <pt x="220" y="556" on="1"/>
        <pt x="257" y="581" on="0"/>
        <pt x="266" y="581" on="1"/>
        <pt x="272" y="581" on="0"/>
        <pt x="272" y="551" on="0"/>
        <pt x="263" y="510" on="1"/>
        <pt x="229" y="353" on="0"/>
        <pt x="170" y="-5" on="1"/>
        <pt x="166" y="-21" on="0"/>
        <pt x="153" y="-21" on="1"/>
        <pt x="104" y="-21" on="0"/>
        <pt x="32" y="221" on="0"/>
        <pt x="32" y="469" on="0"/>
        <pt x="130" y="680" on="0"/>
        <pt x="303" y="806" on="0"/>
        <pt x="406" y="806" on="1"/>
        <pt x="478" y="806" on="0"/>
        <pt x="568" y="711" on="0"/>
        <pt x="568" y="567" on="0"/>
        <pt x="490" y="463" on="0"/>
        <pt x="439" y="432" on="1"/>
        <pt x="494" y="413" on="0"/>
        <pt x="532" y="364" on="1"/>
        <pt x="601" y="277" on="0"/>
        <pt x="601" y="86" on="0"/>
        <pt x="459" y="-69" on="0"/>
        <pt x="371" y="-69" on="1"/>
        <pt x="304" y="-69" on="0"/>
        <pt x="203" y="65" on="0"/>
        <pt x="203" y="109" on="1"/>
        <pt x="203" y="117" on="0"/>
        <pt x="222" y="129" on="0"/>
        <pt x="312" y="178" on="0"/>
        <pt x="322" y="180" on="0"/>
        <pt x="328" y="180" on="1"/>
        <pt x="331" y="179" on="0"/>
        <pt x="336" y="170" on="1"/>
        <pt x="355" y="123" on="0"/>
        <pt x="431" y="19" on="0"/>
        <pt x="469" y="19" on="1"/>
        <pt x="502" y="19" on="0"/>
        <pt x="502" y="136" on="0"/>
        <pt x="437" y="266" on="0"/>
        <pt x="347" y="355" on="0"/>
        <pt x="314" y="355" on="1"/>
        <pt x="303" y="355" on="0"/>
        <pt x="264" y="340" on="0"/>
        <pt x="257" y="340" on="1"/>
        <pt x="239" y="344" on="0"/>
        <pt x="239" y="395" on="0"/>
        <pt x="312" y="444" on="0"/>
        <pt x="364" y="444" on="1"/>
        <pt x="381" y="444" on="0"/>
      </contour>
    </TTGlyph>
    <TTGlyph name="C" xMin="0" yMin="-42" xMax="597" yMax="782">
      <contour>
        <pt x="467" y="165" on="0"/>
        <pt x="489" y="165" on="0"/>
        <pt x="489" y="142" on="0"/>
        <pt x="481" y="134" on="1"/>
        <pt x="431" y="67" on="0"/>
        <pt x="264" y="-42" on="0"/>
        <pt x="91" y="-42" on="0"/>
        <pt x="0" y="69" on="0"/>
        <pt x="0" y="253" on="0"/>
        <pt x="84" y="470" on="0"/>
        <pt x="219" y="657" on="0"/>
        <pt x="412" y="782" on="0"/>
        <pt x="511" y="782" on="1"/>
        <pt x="597" y="782" on="0"/>
        <pt x="597" y="703" on="1"/>
        <pt x="597" y="645" on="0"/>
        <pt x="511" y="491" on="0"/>
        <pt x="379" y="378" on="0"/>
        <pt x="323" y="378" on="1"/>
        <pt x="293" y="378" on="0"/>
        <pt x="293" y="410" on="1"/>
        <pt x="293" y="434" on="0"/>
        <pt x="349" y="506" on="0"/>
        <pt x="373" y="506" on="1"/>
        <pt x="386" y="506" on="0"/>
        <pt x="380" y="460" on="0"/>
        <pt x="405" y="460" on="1"/>
        <pt x="441" y="460" on="0"/>
        <pt x="504" y="570" on="0"/>
        <pt x="504" y="618" on="1"/>
        <pt x="504" y="717" on="0"/>
        <pt x="422" y="717" on="1"/>
        <pt x="347" y="717" on="0"/>
        <pt x="208" y="581" on="0"/>
        <pt x="127" y="386" on="0"/>
        <pt x="127" y="206" on="0"/>
        <pt x="214" y="97" on="0"/>
        <pt x="306" y="97" on="1"/>
        <pt x="345" y="97" on="0"/>
        <pt x="381" y="110" on="1"/>
        <pt x="431" y="127" on="0"/>
      </contour>
    </TTGlyph>
    <TTGlyph name="Ccedilla" xMin="0" yMin="-118" xMax="597" yMax="782">
      <contour>
        <pt x="467" y="165" on="0"/>
        <pt x="489" y="165" on="0"/>
        <pt x="489" y="142" on="0"/>
        <pt x="481" y="134" on="1"/>
        <pt x="446" y="87" on="0"/>
        <pt x="335" y="-1" on="0"/>
        <pt x="276" y="-23" on="1"/>
        <pt x="276" y="-25" on="1"/>
        <pt x="276" y="-38" on="0"/>
        <pt x="306" y="-52" on="0"/>
        <pt x="306" y="-64" on="1"/>
        <pt x="306" y="-118" on="0"/>
        <pt x="200" y="-118" on="1"/>
        <pt x="186" y="-118" on="0"/>
        <pt x="186" y="-107" on="1"/>
        <pt x="186" y="-104" on="0"/>
        <pt x="241" y="-90" on="0"/>
        <pt x="241" y="-65" on="0"/>
        <pt x="222" y="-44" on="0"/>
        <pt x="222" y="-38" on="1"/>
        <pt x="196" y="-42" on="0"/>
        <pt x="184" y="-42" on="1"/>
        <pt x="91" y="-42" on="0"/>
        <pt x="0" y="69" on="0"/>
        <pt x="0" y="253" on="0"/>
        <pt x="84" y="470" on="0"/>
        <pt x="219" y="657" on="0"/>
        <pt x="412" y="782" on="0"/>
        <pt x="511" y="782" on="1"/>
        <pt x="597" y="782" on="0"/>
        <pt x="597" y="703" on="1"/>
        <pt x="597" y="645" on="0"/>
        <pt x="511" y="491" on="0"/>
        <pt x="379" y="378" on="0"/>
        <pt x="323" y="378" on="1"/>
        <pt x="293" y="378" on="0"/>
        <pt x="293" y="410" on="1"/>
        <pt x="293" y="434" on="0"/>
        <pt x="349" y="506" on="0"/>
        <pt x="373" y="506" on="1"/>
        <pt x="386" y="506" on="0"/>
        <pt x="380" y="460" on="0"/>
        <pt x="405" y="460" on="1"/>
        <pt x="441" y="460" on="0"/>
        <pt x="504" y="570" on="0"/>
        <pt x="504" y="618" on="1"/>
        <pt x="504" y="717" on="0"/>
        <pt x="422" y="717" on="1"/>
        <pt x="347" y="717" on="0"/>
        <pt x="208" y="581" on="0"/>
        <pt x="127" y="386" on="0"/>
        <pt x="127" y="206" on="0"/>
        <pt x="214" y="97" on="0"/>
        <pt x="306" y="97" on="1"/>
        <pt x="345" y="97" on="0"/>
        <pt x="381" y="110" on="1"/>
        <pt x="431" y="127" on="0"/>
      </contour>
    </TTGlyph>
    <TTGlyph name="D" xMin="-141" yMin="-136" xMax="683" yMax="790">
      <contour>
        <pt x="243" y="139" on="1"/>
        <pt x="249" y="73" on="0"/>
        <pt x="249" y="60" on="1"/>
        <pt x="249" y="38" on="0"/>
        <pt x="213" y="38" on="0"/>
        <pt x="211" y="54" on="1"/>
        <pt x="211" y="57" on="0"/>
        <pt x="208" y="81" on="0"/>
        <pt x="204" y="129" on="0"/>
        <pt x="202" y="150" on="1"/>
        <pt x="199" y="151" on="1"/>
        <pt x="147" y="151" on="0"/>
        <pt x="147" y="90" on="1"/>
        <pt x="147" y="45" on="0"/>
        <pt x="243" y="-22" on="0"/>
        <pt x="343" y="-22" on="0"/>
        <pt x="408" y="24" on="1"/>
        <pt x="389" y="37" on="0"/>
        <pt x="354" y="64" on="1"/>
        <pt x="280" y="122" on="0"/>
      </contour>
      <contour>
        <pt x="203" y="582" on="0"/>
        <pt x="214" y="553" on="0"/>
        <pt x="214" y="525" on="0"/>
        <pt x="236" y="232" on="1"/>
        <pt x="269" y="242" on="0"/>
        <pt x="328" y="242" on="0"/>
        <pt x="392" y="217" on="0"/>
        <pt x="426" y="195" on="0"/>
        <pt x="499" y="139" on="0"/>
        <pt x="508" y="133" on="1"/>
        <pt x="534" y="180" on="0"/>
        <pt x="534" y="283" on="0"/>
        <pt x="437" y="446" on="0"/>
        <pt x="298" y="594" on="0"/>
        <pt x="126" y="700" on="0"/>
        <pt x="59" y="700" on="1"/>
        <pt x="8" y="700" on="0"/>
        <pt x="-46" y="649" on="1"/>
        <pt x="-88" y="604" on="0"/>
        <pt x="-106" y="567" on="1"/>
        <pt x="-111" y="558" on="0"/>
        <pt x="-128" y="558" on="0"/>
        <pt x="-141" y="569" on="0"/>
        <pt x="-141" y="576" on="1"/>
        <pt x="-140" y="583" on="1"/>
        <pt x="-115" y="629" on="0"/>
        <pt x="-38" y="702" on="1"/>
        <pt x="0" y="739" on="0"/>
        <pt x="97" y="790" on="0"/>
        <pt x="190" y="790" on="0"/>
        <pt x="314" y="742" on="0"/>
        <pt x="438" y="651" on="0"/>
        <pt x="543" y="536" on="0"/>
        <pt x="608" y="387" on="0"/>
        <pt x="608" y="222" on="0"/>
        <pt x="543" y="111" on="1"/>
        <pt x="580" y="90" on="0"/>
        <pt x="615" y="90" on="1"/>
        <pt x="626" y="90" on="0"/>
        <pt x="662" y="115" on="0"/>
        <pt x="669" y="115" on="1"/>
        <pt x="683" y="115" on="0"/>
        <pt x="683" y="101" on="1"/>
        <pt x="683" y="73" on="0"/>
        <pt x="572" y="-24" on="0"/>
        <pt x="518" y="-24" on="1"/>
        <pt x="490" y="-24" on="0"/>
        <pt x="452" y="-4" on="1"/>
        <pt x="320" y="-136" on="0"/>
        <pt x="167" y="-136" on="1"/>
        <pt x="111" y="-136" on="0"/>
        <pt x="52" y="-76" on="0"/>
        <pt x="52" y="38" on="0"/>
        <pt x="132" y="178" on="0"/>
        <pt x="196" y="214" on="1"/>
        <pt x="169" y="511" on="0"/>
        <pt x="168" y="523" on="0"/>
        <pt x="155" y="534" on="0"/>
        <pt x="155" y="555" on="0"/>
        <pt x="181" y="582" on="0"/>
      </contour>
    </TTGlyph>
    <TTGlyph name="E" xMin="0" yMin="-39" xMax="569" yMax="812">
      <contour>
        <pt x="428" y="666" on="1"/>
        <pt x="433" y="686" on="1"/>
        <pt x="433" y="704" on="0"/>
        <pt x="396" y="721" on="0"/>
        <pt x="378" y="721" on="1"/>
        <pt x="336" y="721" on="0"/>
        <pt x="212" y="667" on="0"/>
        <pt x="118" y="592" on="0"/>
        <pt x="117" y="540" on="0"/>
        <pt x="168" y="496" on="0"/>
        <pt x="229" y="468" on="0"/>
        <pt x="280" y="425" on="0"/>
        <pt x="280" y="374" on="0"/>
        <pt x="249" y="328" on="0"/>
        <pt x="205" y="293" on="0"/>
        <pt x="184" y="275" on="1"/>
        <pt x="131" y="231" on="0"/>
        <pt x="131" y="177" on="1"/>
        <pt x="131" y="142" on="0"/>
        <pt x="190" y="91" on="0"/>
        <pt x="267" y="91" on="0"/>
        <pt x="341" y="116" on="0"/>
        <pt x="374" y="142" on="1"/>
        <pt x="418" y="178" on="0"/>
        <pt x="463" y="226" on="1"/>
        <pt x="470" y="233" on="0"/>
        <pt x="484" y="233" on="0"/>
        <pt x="494" y="219" on="0"/>
        <pt x="494" y="211" on="1"/>
        <pt x="494" y="191" on="0"/>
        <pt x="423" y="109" on="0"/>
        <pt x="318" y="25" on="0"/>
        <pt x="178" y="-39" on="0"/>
        <pt x="68" y="-39" on="0"/>
        <pt x="0" y="17" on="0"/>
        <pt x="0" y="110" on="0"/>
        <pt x="52" y="198" on="0"/>
        <pt x="113" y="254" on="0"/>
        <pt x="165" y="308" on="0"/>
        <pt x="165" y="343" on="0"/>
        <pt x="115" y="376" on="0"/>
        <pt x="55" y="397" on="0"/>
        <pt x="5" y="445" on="0"/>
        <pt x="5" y="479" on="1"/>
        <pt x="5" y="538" on="0"/>
        <pt x="131" y="665" on="0"/>
        <pt x="301" y="754" on="0"/>
        <pt x="461" y="812" on="0"/>
        <pt x="532" y="812" on="0"/>
        <pt x="569" y="780" on="0"/>
        <pt x="569" y="756" on="1"/>
        <pt x="569" y="721" on="0"/>
        <pt x="465" y="658" on="0"/>
        <pt x="428" y="659" on="0"/>
      </contour>
    </TTGlyph>
    <TTGlyph name="Eacute" xMin="0" yMin="-39" xMax="569" yMax="924">
      <contour>
        <pt x="388" y="887" on="1"/>
        <pt x="388" y="858" on="0"/>
        <pt x="334" y="817" on="0"/>
        <pt x="296" y="808" on="1"/>
        <pt x="231" y="794" on="0"/>
        <pt x="198" y="794" on="1"/>
        <pt x="183" y="794" on="0"/>
        <pt x="183" y="806" on="1"/>
        <pt x="183" y="820" on="0"/>
        <pt x="209" y="829" on="1"/>
        <pt x="251" y="843" on="0"/>
        <pt x="297" y="880" on="0"/>
        <pt x="302" y="893" on="1"/>
        <pt x="312" y="924" on="0"/>
        <pt x="351" y="924" on="1"/>
        <pt x="369" y="924" on="0"/>
        <pt x="388" y="900" on="0"/>
      </contour>
      <contour>
        <pt x="428" y="666" on="1"/>
        <pt x="433" y="686" on="1"/>
        <pt x="433" y="704" on="0"/>
        <pt x="396" y="721" on="0"/>
        <pt x="378" y="721" on="1"/>
        <pt x="336" y="721" on="0"/>
        <pt x="212" y="667" on="0"/>
        <pt x="118" y="592" on="0"/>
        <pt x="117" y="540" on="0"/>
        <pt x="168" y="496" on="0"/>
        <pt x="229" y="468" on="0"/>
        <pt x="280" y="425" on="0"/>
        <pt x="280" y="374" on="0"/>
        <pt x="249" y="328" on="0"/>
        <pt x="205" y="293" on="0"/>
        <pt x="184" y="275" on="1"/>
        <pt x="131" y="231" on="0"/>
        <pt x="131" y="177" on="1"/>
        <pt x="131" y="142" on="0"/>
        <pt x="190" y="91" on="0"/>
        <pt x="267" y="91" on="0"/>
        <pt x="341" y="116" on="0"/>
        <pt x="374" y="142" on="1"/>
        <pt x="418" y="178" on="0"/>
        <pt x="463" y="226" on="1"/>
        <pt x="470" y="233" on="0"/>
        <pt x="484" y="233" on="0"/>
        <pt x="494" y="219" on="0"/>
        <pt x="494" y="211" on="1"/>
        <pt x="494" y="191" on="0"/>
        <pt x="423" y="109" on="0"/>
        <pt x="318" y="25" on="0"/>
        <pt x="178" y="-39" on="0"/>
        <pt x="68" y="-39" on="0"/>
        <pt x="0" y="17" on="0"/>
        <pt x="0" y="110" on="0"/>
        <pt x="52" y="198" on="0"/>
        <pt x="113" y="254" on="0"/>
        <pt x="165" y="308" on="0"/>
        <pt x="165" y="343" on="0"/>
        <pt x="115" y="376" on="0"/>
        <pt x="55" y="397" on="0"/>
        <pt x="5" y="445" on="0"/>
        <pt x="5" y="479" on="1"/>
        <pt x="5" y="538" on="0"/>
        <pt x="131" y="665" on="0"/>
        <pt x="301" y="754" on="0"/>
        <pt x="461" y="812" on="0"/>
        <pt x="532" y="812" on="0"/>
        <pt x="569" y="780" on="0"/>
        <pt x="569" y="756" on="1"/>
        <pt x="569" y="721" on="0"/>
        <pt x="465" y="658" on="0"/>
        <pt x="428" y="659" on="0"/>
      </contour>
    </TTGlyph>
    <TTGlyph name="Ecircumflex" xMin="0" yMin="-39" xMax="569" yMax="937">
      <contour>
        <pt x="300" y="853" on="1"/>
        <pt x="259" y="817" on="0"/>
        <pt x="168" y="817" on="0"/>
        <pt x="168" y="835" on="1"/>
        <pt x="168" y="846" on="0"/>
        <pt x="221" y="865" on="0"/>
        <pt x="253" y="894" on="0"/>
        <pt x="265" y="919" on="0"/>
        <pt x="285" y="937" on="0"/>
        <pt x="315" y="937" on="0"/>
        <pt x="335" y="919" on="0"/>
        <pt x="347" y="894" on="0"/>
        <pt x="379" y="865" on="0"/>
        <pt x="432" y="846" on="0"/>
        <pt x="432" y="835" on="1"/>
        <pt x="432" y="817" on="0"/>
        <pt x="341" y="817" on="0"/>
      </contour>
      <contour>
        <pt x="433" y="686" on="1"/>
        <pt x="428" y="666" on="1"/>
        <pt x="428" y="659" on="0"/>
        <pt x="465" y="658" on="0"/>
        <pt x="569" y="721" on="0"/>
        <pt x="569" y="756" on="1"/>
        <pt x="569" y="780" on="0"/>
        <pt x="532" y="812" on="0"/>
        <pt x="461" y="812" on="0"/>
        <pt x="301" y="754" on="0"/>
        <pt x="131" y="665" on="0"/>
        <pt x="5" y="538" on="0"/>
        <pt x="5" y="479" on="1"/>
        <pt x="5" y="445" on="0"/>
        <pt x="55" y="397" on="0"/>
        <pt x="85" y="386" on="1"/>
        <pt x="165" y="358" on="0"/>
        <pt x="165" y="322" on="1"/>
        <pt x="165" y="308" on="0"/>
        <pt x="113" y="254" on="0"/>
        <pt x="52" y="198" on="0"/>
        <pt x="0" y="110" on="0"/>
        <pt x="0" y="17" on="0"/>
        <pt x="68" y="-39" on="0"/>
        <pt x="178" y="-39" on="0"/>
        <pt x="318" y="25" on="0"/>
        <pt x="423" y="109" on="0"/>
        <pt x="494" y="191" on="0"/>
        <pt x="494" y="211" on="1"/>
        <pt x="494" y="219" on="0"/>
        <pt x="484" y="233" on="0"/>
        <pt x="470" y="233" on="0"/>
        <pt x="463" y="226" on="1"/>
        <pt x="370" y="126" on="0"/>
        <pt x="304" y="104" on="1"/>
        <pt x="267" y="91" on="0"/>
        <pt x="190" y="91" on="0"/>
        <pt x="131" y="142" on="0"/>
        <pt x="131" y="207" on="0"/>
        <pt x="162" y="257" on="0"/>
        <pt x="206" y="293" on="0"/>
        <pt x="228" y="310" on="1"/>
        <pt x="280" y="353" on="0"/>
        <pt x="280" y="401" on="1"/>
        <pt x="280" y="425" on="0"/>
        <pt x="229" y="468" on="0"/>
        <pt x="168" y="496" on="0"/>
        <pt x="117" y="540" on="0"/>
        <pt x="118" y="592" on="0"/>
        <pt x="212" y="667" on="0"/>
        <pt x="336" y="721" on="0"/>
        <pt x="378" y="721" on="1"/>
        <pt x="396" y="721" on="0"/>
        <pt x="433" y="704" on="0"/>
      </contour>
    </TTGlyph>
    <TTGlyph name="Edieresis" xMin="0" yMin="-39" xMax="569" yMax="948">
      <contour>
        <pt x="309" y="864" on="0"/>
        <pt x="309" y="914" on="0"/>
        <pt x="340" y="948" on="0"/>
        <pt x="386" y="948" on="0"/>
        <pt x="417" y="914" on="0"/>
        <pt x="417" y="864" on="0"/>
        <pt x="386" y="830" on="0"/>
        <pt x="340" y="830" on="0"/>
      </contour>
      <contour>
        <pt x="169" y="864" on="0"/>
        <pt x="169" y="914" on="0"/>
        <pt x="200" y="948" on="0"/>
        <pt x="246" y="948" on="0"/>
        <pt x="277" y="914" on="0"/>
        <pt x="277" y="864" on="0"/>
        <pt x="246" y="830" on="0"/>
        <pt x="200" y="830" on="0"/>
      </contour>
      <contour>
        <pt x="428" y="666" on="1"/>
        <pt x="433" y="686" on="1"/>
        <pt x="433" y="704" on="0"/>
        <pt x="396" y="721" on="0"/>
        <pt x="378" y="721" on="1"/>
        <pt x="336" y="721" on="0"/>
        <pt x="212" y="667" on="0"/>
        <pt x="118" y="592" on="0"/>
        <pt x="117" y="540" on="0"/>
        <pt x="168" y="496" on="0"/>
        <pt x="229" y="468" on="0"/>
        <pt x="280" y="425" on="0"/>
        <pt x="280" y="374" on="0"/>
        <pt x="249" y="328" on="0"/>
        <pt x="205" y="293" on="0"/>
        <pt x="184" y="275" on="1"/>
        <pt x="131" y="231" on="0"/>
        <pt x="131" y="177" on="1"/>
        <pt x="131" y="142" on="0"/>
        <pt x="190" y="91" on="0"/>
        <pt x="267" y="91" on="0"/>
        <pt x="341" y="116" on="0"/>
        <pt x="374" y="142" on="1"/>
        <pt x="418" y="178" on="0"/>
        <pt x="463" y="226" on="1"/>
        <pt x="470" y="233" on="0"/>
        <pt x="484" y="233" on="0"/>
        <pt x="494" y="219" on="0"/>
        <pt x="494" y="211" on="1"/>
        <pt x="494" y="191" on="0"/>
        <pt x="423" y="109" on="0"/>
        <pt x="318" y="25" on="0"/>
        <pt x="178" y="-39" on="0"/>
        <pt x="68" y="-39" on="0"/>
        <pt x="0" y="17" on="0"/>
        <pt x="0" y="110" on="0"/>
        <pt x="52" y="198" on="0"/>
        <pt x="113" y="254" on="0"/>
        <pt x="165" y="308" on="0"/>
        <pt x="165" y="343" on="0"/>
        <pt x="115" y="376" on="0"/>
        <pt x="55" y="397" on="0"/>
        <pt x="5" y="445" on="0"/>
        <pt x="5" y="479" on="1"/>
        <pt x="5" y="538" on="0"/>
        <pt x="131" y="665" on="0"/>
        <pt x="301" y="754" on="0"/>
        <pt x="461" y="812" on="0"/>
        <pt x="532" y="812" on="0"/>
        <pt x="569" y="780" on="0"/>
        <pt x="569" y="756" on="1"/>
        <pt x="569" y="721" on="0"/>
        <pt x="465" y="658" on="0"/>
        <pt x="428" y="659" on="0"/>
      </contour>
    </TTGlyph>
    <TTGlyph name="Egrave" xMin="0" yMin="-39" xMax="569" yMax="937">
      <contour>
        <pt x="210" y="900" on="1"/>
        <pt x="210" y="913" on="0"/>
        <pt x="229" y="937" on="0"/>
        <pt x="269" y="937" on="0"/>
        <pt x="291" y="918" on="0"/>
        <pt x="300" y="893" on="0"/>
        <pt x="338" y="861" on="0"/>
        <pt x="399" y="842" on="0"/>
        <pt x="399" y="827" on="1"/>
        <pt x="399" y="815" on="0"/>
        <pt x="370" y="815" on="0"/>
        <pt x="331" y="819" on="0"/>
        <pt x="258" y="832" on="0"/>
        <pt x="210" y="871" on="0"/>
      </contour>
      <contour>
        <pt x="433" y="686" on="1"/>
        <pt x="428" y="666" on="1"/>
        <pt x="428" y="659" on="0"/>
        <pt x="465" y="658" on="0"/>
        <pt x="569" y="721" on="0"/>
        <pt x="569" y="756" on="1"/>
        <pt x="569" y="780" on="0"/>
        <pt x="532" y="812" on="0"/>
        <pt x="461" y="812" on="0"/>
        <pt x="301" y="754" on="0"/>
        <pt x="131" y="665" on="0"/>
        <pt x="5" y="538" on="0"/>
        <pt x="5" y="479" on="1"/>
        <pt x="5" y="445" on="0"/>
        <pt x="55" y="397" on="0"/>
        <pt x="85" y="386" on="1"/>
        <pt x="165" y="358" on="0"/>
        <pt x="165" y="322" on="1"/>
        <pt x="165" y="308" on="0"/>
        <pt x="113" y="254" on="0"/>
        <pt x="52" y="198" on="0"/>
        <pt x="0" y="110" on="0"/>
        <pt x="0" y="17" on="0"/>
        <pt x="68" y="-39" on="0"/>
        <pt x="178" y="-39" on="0"/>
        <pt x="318" y="25" on="0"/>
        <pt x="423" y="109" on="0"/>
        <pt x="494" y="191" on="0"/>
        <pt x="494" y="211" on="1"/>
        <pt x="494" y="219" on="0"/>
        <pt x="484" y="233" on="0"/>
        <pt x="470" y="233" on="0"/>
        <pt x="463" y="226" on="1"/>
        <pt x="370" y="126" on="0"/>
        <pt x="304" y="104" on="1"/>
        <pt x="267" y="91" on="0"/>
        <pt x="190" y="91" on="0"/>
        <pt x="131" y="142" on="0"/>
        <pt x="131" y="207" on="0"/>
        <pt x="162" y="257" on="0"/>
        <pt x="206" y="293" on="0"/>
        <pt x="228" y="310" on="1"/>
        <pt x="280" y="353" on="0"/>
        <pt x="280" y="401" on="1"/>
        <pt x="280" y="425" on="0"/>
        <pt x="229" y="468" on="0"/>
        <pt x="168" y="496" on="0"/>
        <pt x="117" y="540" on="0"/>
        <pt x="118" y="592" on="0"/>
        <pt x="212" y="667" on="0"/>
        <pt x="336" y="721" on="0"/>
        <pt x="378" y="721" on="1"/>
        <pt x="396" y="721" on="0"/>
        <pt x="433" y="704" on="0"/>
      </contour>
    </TTGlyph>
    <TTGlyph name="Eth" xMin="-141" yMin="-136" xMax="683" yMax="790">
      <contour>
        <pt x="211" y="54" on="1"/>
        <pt x="211" y="56" on="0"/>
        <pt x="202" y="150" on="1"/>
        <pt x="195" y="150" on="1"/>
        <pt x="147" y="150" on="0"/>
        <pt x="147" y="90" on="1"/>
        <pt x="147" y="45" on="0"/>
        <pt x="243" y="-22" on="0"/>
        <pt x="343" y="-22" on="0"/>
        <pt x="408" y="24" on="1"/>
        <pt x="389" y="37" on="0"/>
        <pt x="354" y="64" on="1"/>
        <pt x="280" y="122" on="0"/>
        <pt x="243" y="139" on="1"/>
        <pt x="249" y="73" on="0"/>
        <pt x="249" y="60" on="1"/>
        <pt x="249" y="38" on="0"/>
        <pt x="213" y="38" on="0"/>
      </contour>
      <contour>
        <pt x="203" y="582" on="0"/>
        <pt x="214" y="553" on="0"/>
        <pt x="214" y="524" on="0"/>
        <pt x="224" y="397" on="1"/>
        <pt x="280" y="410" on="0"/>
        <pt x="309" y="410" on="1"/>
        <pt x="318" y="410" on="0"/>
        <pt x="318" y="395" on="0"/>
        <pt x="309" y="370" on="0"/>
        <pt x="302" y="369" on="1"/>
        <pt x="280" y="367" on="0"/>
        <pt x="227" y="356" on="1"/>
        <pt x="236" y="235" on="0"/>
        <pt x="236" y="232" on="1"/>
        <pt x="269" y="242" on="0"/>
        <pt x="328" y="242" on="0"/>
        <pt x="392" y="217" on="0"/>
        <pt x="426" y="195" on="0"/>
        <pt x="499" y="139" on="0"/>
        <pt x="508" y="133" on="1"/>
        <pt x="534" y="180" on="0"/>
        <pt x="534" y="283" on="0"/>
        <pt x="437" y="446" on="0"/>
        <pt x="298" y="594" on="0"/>
        <pt x="126" y="700" on="0"/>
        <pt x="5" y="700" on="0"/>
        <pt x="-46" y="649" on="1"/>
        <pt x="-88" y="604" on="0"/>
        <pt x="-106" y="567" on="1"/>
        <pt x="-111" y="558" on="0"/>
        <pt x="-125" y="558" on="0"/>
        <pt x="-129" y="560" on="1"/>
        <pt x="-141" y="565" on="0"/>
        <pt x="-141" y="576" on="1"/>
        <pt x="-140" y="583" on="1"/>
        <pt x="-115" y="629" on="0"/>
        <pt x="-38" y="702" on="1"/>
        <pt x="0" y="739" on="0"/>
        <pt x="97" y="790" on="0"/>
        <pt x="190" y="790" on="0"/>
        <pt x="314" y="742" on="0"/>
        <pt x="438" y="651" on="0"/>
        <pt x="543" y="536" on="0"/>
        <pt x="608" y="387" on="0"/>
        <pt x="608" y="222" on="0"/>
        <pt x="543" y="111" on="1"/>
        <pt x="580" y="90" on="0"/>
        <pt x="615" y="90" on="1"/>
        <pt x="626" y="90" on="0"/>
        <pt x="662" y="115" on="0"/>
        <pt x="669" y="115" on="1"/>
        <pt x="683" y="115" on="0"/>
        <pt x="683" y="101" on="1"/>
        <pt x="683" y="73" on="0"/>
        <pt x="572" y="-24" on="0"/>
        <pt x="518" y="-24" on="1"/>
        <pt x="490" y="-24" on="0"/>
        <pt x="452" y="-4" on="1"/>
        <pt x="320" y="-136" on="0"/>
        <pt x="167" y="-136" on="1"/>
        <pt x="111" y="-136" on="0"/>
        <pt x="52" y="-76" on="0"/>
        <pt x="52" y="38" on="0"/>
        <pt x="132" y="178" on="0"/>
        <pt x="196" y="214" on="1"/>
        <pt x="184" y="346" on="1"/>
        <pt x="98" y="322" on="0"/>
        <pt x="65" y="299" on="1"/>
        <pt x="64" y="298" on="0"/>
        <pt x="56" y="298" on="0"/>
        <pt x="56" y="312" on="0"/>
        <pt x="67" y="343" on="0"/>
        <pt x="70" y="345" on="1"/>
        <pt x="95" y="363" on="0"/>
        <pt x="181" y="387" on="1"/>
        <pt x="169" y="509" on="0"/>
        <pt x="168" y="523" on="0"/>
        <pt x="155" y="534" on="0"/>
        <pt x="155" y="555" on="0"/>
        <pt x="181" y="582" on="0"/>
      </contour>
    </TTGlyph>
    <TTGlyph name="Euro" xMin="0" yMin="-43" xMax="303" yMax="293">
      <contour>
        <pt x="14" y="79" on="1"/>
        <pt x="29" y="90" on="0"/>
        <pt x="44" y="97" on="1"/>
        <pt x="59" y="171" on="0"/>
        <pt x="177" y="293" on="0"/>
        <pt x="248" y="293" on="1"/>
        <pt x="273" y="293" on="0"/>
        <pt x="303" y="267" on="0"/>
        <pt x="303" y="248" on="1"/>
        <pt x="303" y="215" on="0"/>
        <pt x="230" y="130" on="0"/>
        <pt x="193" y="130" on="1"/>
        <pt x="170" y="130" on="0"/>
        <pt x="170" y="153" on="1"/>
        <pt x="170" y="165" on="0"/>
        <pt x="193" y="196" on="0"/>
        <pt x="220" y="196" on="0"/>
        <pt x="220" y="180" on="1"/>
        <pt x="230" y="181" on="0"/>
        <pt x="245" y="211" on="0"/>
        <pt x="245" y="221" on="1"/>
        <pt x="245" y="249" on="0"/>
        <pt x="183" y="249" on="0"/>
        <pt x="131" y="167" on="0"/>
        <pt x="128" y="120" on="1"/>
        <pt x="154" y="122" on="0"/>
        <pt x="181" y="122" on="0"/>
        <pt x="181" y="107" on="0"/>
        <pt x="172" y="82" on="0"/>
        <pt x="165" y="81" on="1"/>
        <pt x="138" y="78" on="0"/>
        <pt x="132" y="77" on="1"/>
        <pt x="146" y="28" on="0"/>
        <pt x="203" y="28" on="1"/>
        <pt x="228" y="28" on="0"/>
        <pt x="259" y="51" on="0"/>
        <pt x="269" y="51" on="1"/>
        <pt x="285" y="51" on="0"/>
        <pt x="285" y="36" on="1"/>
        <pt x="285" y="10" on="0"/>
        <pt x="188" y="-43" on="0"/>
        <pt x="155" y="-43" on="1"/>
        <pt x="99" y="-43" on="0"/>
        <pt x="43" y="8" on="0"/>
        <pt x="40" y="51" on="1"/>
        <pt x="25" y="44" on="0"/>
        <pt x="8" y="32" on="0"/>
        <pt x="0" y="32" on="0"/>
        <pt x="0" y="46" on="0"/>
        <pt x="11" y="77" on="0"/>
      </contour>
    </TTGlyph>
    <TTGlyph name="F" xMin="0" yMin="-59" xMax="629" yMax="814">
      <contour>
        <pt x="221" y="275" on="0"/>
        <pt x="210" y="285" on="0"/>
        <pt x="210" y="299" on="0"/>
        <pt x="257" y="351" on="0"/>
        <pt x="321" y="410" on="0"/>
        <pt x="409" y="450" on="0"/>
        <pt x="454" y="451" on="1"/>
        <pt x="484" y="451" on="0"/>
        <pt x="518" y="422" on="0"/>
        <pt x="518" y="384" on="0"/>
        <pt x="450" y="307" on="0"/>
        <pt x="424" y="307" on="1"/>
        <pt x="418" y="307" on="0"/>
        <pt x="391" y="322" on="0"/>
        <pt x="364" y="322" on="0"/>
        <pt x="269" y="295" on="0"/>
        <pt x="236" y="275" on="0"/>
      </contour>
      <contour>
        <pt x="200" y="218" on="1"/>
        <pt x="207" y="571" on="1"/>
        <pt x="205" y="576" on="0"/>
        <pt x="201" y="576" on="1"/>
        <pt x="184" y="575" on="0"/>
        <pt x="165" y="556" on="0"/>
        <pt x="165" y="536" on="0"/>
        <pt x="162" y="445" on="1"/>
        <pt x="151" y="172" on="0"/>
        <pt x="151" y="74" on="1"/>
        <pt x="152" y="-12" on="1"/>
        <pt x="152" y="-27" on="1"/>
        <pt x="152" y="-35" on="0"/>
        <pt x="165" y="-59" on="0"/>
        <pt x="188" y="-59" on="0"/>
        <pt x="215" y="-41" on="0"/>
        <pt x="215" y="-12" on="0"/>
        <pt x="200" y="189" on="0"/>
      </contour>
      <contour>
        <pt x="530" y="680" on="1"/>
        <pt x="478" y="685" on="1"/>
        <pt x="357" y="685" on="0"/>
        <pt x="17" y="496" on="1"/>
        <pt x="7" y="491" on="0"/>
        <pt x="0" y="491" on="0"/>
        <pt x="0" y="520" on="0"/>
        <pt x="26" y="614" on="0"/>
        <pt x="39" y="622" on="1"/>
        <pt x="359" y="814" on="0"/>
        <pt x="575" y="814" on="1"/>
        <pt x="629" y="814" on="0"/>
        <pt x="629" y="779" on="1"/>
        <pt x="629" y="756" on="0"/>
        <pt x="558" y="680" on="0"/>
      </contour>
    </TTGlyph>
    <TTGlyph name="G" xMin="1" yMin="-211" xMax="660" yMax="831">
      <contour>
        <pt x="174" y="417" on="1"/>
        <pt x="174" y="448" on="0"/>
        <pt x="231" y="556" on="0"/>
        <pt x="264" y="556" on="1"/>
        <pt x="283" y="556" on="0"/>
        <pt x="283" y="541" on="1"/>
        <pt x="283" y="536" on="0"/>
        <pt x="255" y="495" on="0"/>
        <pt x="255" y="485" on="1"/>
        <pt x="255" y="435" on="0"/>
        <pt x="317" y="435" on="1"/>
        <pt x="353" y="435" on="0"/>
        <pt x="446" y="501" on="0"/>
        <pt x="520" y="591" on="0"/>
        <pt x="572" y="683" on="0"/>
        <pt x="572" y="734" on="0"/>
        <pt x="537" y="763" on="0"/>
        <pt x="507" y="763" on="1"/>
        <pt x="450" y="763" on="0"/>
        <pt x="312" y="679" on="0"/>
        <pt x="196" y="551" on="0"/>
        <pt x="117" y="383" on="0"/>
        <pt x="117" y="219" on="0"/>
        <pt x="220" y="108" on="0"/>
        <pt x="297" y="108" on="1"/>
        <pt x="339" y="108" on="0"/>
        <pt x="428" y="150" on="0"/>
        <pt x="464" y="182" on="1"/>
        <pt x="517" y="232" on="0"/>
        <pt x="545" y="267" on="1"/>
        <pt x="552" y="278" on="0"/>
        <pt x="563" y="278" on="0"/>
        <pt x="571" y="269" on="0"/>
        <pt x="571" y="256" on="0"/>
        <pt x="556" y="203" on="0"/>
        <pt x="523" y="24" on="0"/>
        <pt x="523" y="-57" on="0"/>
        <pt x="528" y="-82" on="1"/>
        <pt x="535" y="-122" on="0"/>
        <pt x="542" y="-129" on="1"/>
        <pt x="543" y="-130" on="0"/>
        <pt x="548" y="-132" on="1"/>
        <pt x="559" y="-137" on="0"/>
        <pt x="559" y="-145" on="1"/>
        <pt x="559" y="-167" on="0"/>
        <pt x="524" y="-211" on="0"/>
        <pt x="496" y="-211" on="0"/>
        <pt x="482" y="-205" on="0"/>
        <pt x="473" y="-191" on="0"/>
        <pt x="467" y="-177" on="0"/>
        <pt x="464" y="-154" on="0"/>
        <pt x="463" y="-138" on="0"/>
        <pt x="462" y="-110" on="0"/>
        <pt x="461" y="-73" on="0"/>
        <pt x="471" y="4" on="0"/>
        <pt x="486" y="71" on="0"/>
        <pt x="500" y="128" on="0"/>
        <pt x="510" y="165" on="0"/>
        <pt x="510" y="170" on="0"/>
        <pt x="501" y="170" on="0"/>
        <pt x="433" y="112" on="0"/>
        <pt x="348" y="42" on="0"/>
        <pt x="219" y="-16" on="0"/>
        <pt x="83" y="-16" on="0"/>
        <pt x="1" y="92" on="0"/>
        <pt x="1" y="266" on="0"/>
        <pt x="84" y="469" on="0"/>
        <pt x="216" y="631" on="0"/>
        <pt x="374" y="760" on="0"/>
        <pt x="533" y="831" on="0"/>
        <pt x="654" y="831" on="0"/>
        <pt x="660" y="770" on="1"/>
        <pt x="660" y="703" on="0"/>
        <pt x="505" y="502" on="0"/>
        <pt x="302" y="353" on="0"/>
        <pt x="174" y="353" on="0"/>
      </contour>
    </TTGlyph>
    <TTGlyph name="H" xMin="1" yMin="-162" xMax="659" yMax="886">
      <contour>
        <pt x="503" y="12" on="1"/>
        <pt x="502" y="35" on="1"/>
        <pt x="486" y="33" on="0"/>
        <pt x="477" y="32" on="1"/>
        <pt x="481" y="28" on="0"/>
        <pt x="486" y="20" on="1"/>
        <pt x="494" y="8" on="0"/>
        <pt x="503" y="8" on="0"/>
      </contour>
      <contour>
        <pt x="533" y="729" on="1"/>
        <pt x="530" y="551" on="1"/>
        <pt x="530" y="369" on="0"/>
        <pt x="547" y="133" on="1"/>
        <pt x="557" y="132" on="0"/>
        <pt x="594" y="132" on="0"/>
        <pt x="618" y="151" on="0"/>
        <pt x="633" y="170" on="0"/>
        <pt x="641" y="170" on="1"/>
        <pt x="659" y="170" on="0"/>
        <pt x="659" y="130" on="1"/>
        <pt x="643" y="107" on="0"/>
        <pt x="580" y="61" on="0"/>
        <pt x="552" y="50" on="1"/>
        <pt x="555" y="-7" on="0"/>
        <pt x="555" y="-79" on="0"/>
        <pt x="548" y="-87" on="0"/>
        <pt x="526" y="-98" on="0"/>
        <pt x="517" y="-98" on="0"/>
        <pt x="514" y="-95" on="0"/>
        <pt x="496" y="-69" on="1"/>
        <pt x="451" y="-1" on="0"/>
        <pt x="426" y="32" on="1"/>
        <pt x="356" y="39" on="0"/>
        <pt x="289" y="83" on="1"/>
        <pt x="290" y="57" on="0"/>
        <pt x="290" y="14" on="1"/>
        <pt x="290" y="-162" on="0"/>
        <pt x="189" y="-162" on="1"/>
        <pt x="151" y="-162" on="0"/>
        <pt x="57" y="-76" on="0"/>
        <pt x="1" y="4" on="0"/>
        <pt x="1" y="8" on="1"/>
        <pt x="1" y="20" on="0"/>
        <pt x="11" y="29" on="1"/>
        <pt x="95" y="96" on="0"/>
        <pt x="102" y="96" on="1"/>
        <pt x="106" y="96" on="0"/>
        <pt x="144" y="39" on="0"/>
        <pt x="199" y="-18" on="0"/>
        <pt x="224" y="-18" on="1"/>
        <pt x="244" y="-18" on="0"/>
        <pt x="244" y="50" on="1"/>
        <pt x="244" y="79" on="0"/>
        <pt x="240" y="119" on="1"/>
        <pt x="180" y="171" on="0"/>
        <pt x="100" y="300" on="0"/>
        <pt x="100" y="352" on="0"/>
        <pt x="134" y="396" on="0"/>
        <pt x="156" y="396" on="0"/>
        <pt x="171" y="389" on="0"/>
        <pt x="184" y="379" on="0"/>
        <pt x="216" y="354" on="0"/>
        <pt x="231" y="343" on="1"/>
        <pt x="231" y="348" on="1"/>
        <pt x="230" y="375" on="0"/>
        <pt x="220" y="577" on="0"/>
        <pt x="220" y="815" on="0"/>
        <pt x="228" y="843" on="1"/>
        <pt x="228" y="850" on="0"/>
        <pt x="273" y="886" on="0"/>
        <pt x="289" y="886" on="0"/>
        <pt x="289" y="874" on="1"/>
        <pt x="289" y="873" on="0"/>
        <pt x="286" y="848" on="1"/>
        <pt x="276" y="743" on="0"/>
        <pt x="276" y="482" on="0"/>
        <pt x="283" y="293" on="1"/>
        <pt x="318" y="257" on="0"/>
        <pt x="365" y="198" on="0"/>
        <pt x="368" y="196" on="0"/>
        <pt x="374" y="191" on="0"/>
        <pt x="383" y="184" on="0"/>
        <pt x="396" y="176" on="0"/>
        <pt x="412" y="167" on="0"/>
        <pt x="432" y="157" on="0"/>
        <pt x="444" y="153" on="1"/>
        <pt x="470" y="144" on="0"/>
        <pt x="499" y="138" on="1"/>
        <pt x="484" y="718" on="1"/>
        <pt x="484" y="732" on="0"/>
        <pt x="513" y="748" on="1"/>
        <pt x="521" y="753" on="0"/>
        <pt x="525" y="753" on="1"/>
        <pt x="533" y="753" on="0"/>
      </contour>
    </TTGlyph>
    <TTGlyph name="I" xMin="0" yMin="-124" xMax="343" yMax="852">
      <contour>
        <pt x="70" y="-5" on="1"/>
        <pt x="74" y="-3" on="0"/>
        <pt x="136" y="39" on="0"/>
        <pt x="194" y="76" on="0"/>
        <pt x="266" y="109" on="0"/>
        <pt x="300" y="109" on="0"/>
        <pt x="308" y="99" on="1"/>
        <pt x="317" y="85" on="0"/>
        <pt x="343" y="27" on="0"/>
        <pt x="343" y="15" on="0"/>
        <pt x="342" y="12" on="1"/>
        <pt x="339" y="4" on="0"/>
        <pt x="336" y="2" on="1"/>
        <pt x="324" y="-4" on="0"/>
        <pt x="313" y="-10" on="0"/>
        <pt x="264" y="-40" on="1"/>
        <pt x="128" y="-124" on="0"/>
        <pt x="114" y="-124" on="1"/>
        <pt x="94" y="-124" on="0"/>
        <pt x="54" y="-41" on="0"/>
        <pt x="54" y="-14" on="0"/>
      </contour>
      <contour>
        <pt x="194" y="343" on="1"/>
        <pt x="204" y="129" on="1"/>
        <pt x="204" y="110" on="0"/>
        <pt x="180" y="77" on="0"/>
        <pt x="160" y="77" on="1"/>
        <pt x="151" y="77" on="0"/>
        <pt x="151" y="91" on="1"/>
        <pt x="151" y="243" on="0"/>
        <pt x="136" y="495" on="0"/>
        <pt x="136" y="660" on="1"/>
        <pt x="136" y="676" on="0"/>
        <pt x="143" y="680" on="1"/>
        <pt x="163" y="693" on="0"/>
        <pt x="180" y="693" on="0"/>
        <pt x="182" y="691" on="1"/>
        <pt x="186" y="684" on="0"/>
        <pt x="186" y="575" on="0"/>
      </contour>
      <contour>
        <pt x="17" y="736" on="1"/>
        <pt x="18" y="743" on="0"/>
        <pt x="73" y="772" on="1"/>
        <pt x="225" y="852" on="0"/>
        <pt x="258" y="852" on="1"/>
        <pt x="268" y="852" on="0"/>
        <pt x="271" y="844" on="0"/>
        <pt x="285" y="813" on="0"/>
        <pt x="293" y="788" on="0"/>
        <pt x="293" y="768" on="0"/>
        <pt x="279" y="761" on="1"/>
        <pt x="276" y="759" on="0"/>
        <pt x="202" y="726" on="0"/>
        <pt x="164" y="708" on="1"/>
        <pt x="67" y="664" on="0"/>
        <pt x="17" y="625" on="0"/>
        <pt x="0" y="625" on="0"/>
        <pt x="0" y="635" on="1"/>
      </contour>
    </TTGlyph>
    <TTGlyph name="Iacute" xMin="0" yMin="-124" xMax="343" yMax="1009">
      <contour>
        <pt x="268" y="972" on="1"/>
        <pt x="268" y="943" on="0"/>
        <pt x="214" y="902" on="0"/>
        <pt x="176" y="894" on="1"/>
        <pt x="111" y="879" on="0"/>
        <pt x="78" y="879" on="1"/>
        <pt x="63" y="879" on="0"/>
        <pt x="63" y="891" on="1"/>
        <pt x="63" y="905" on="0"/>
        <pt x="89" y="914" on="1"/>
        <pt x="131" y="928" on="0"/>
        <pt x="177" y="965" on="0"/>
        <pt x="182" y="978" on="1"/>
        <pt x="192" y="1009" on="0"/>
        <pt x="231" y="1009" on="1"/>
        <pt x="249" y="1009" on="0"/>
        <pt x="268" y="985" on="0"/>
      </contour>
      <contour>
        <pt x="94" y="-124" on="0"/>
        <pt x="54" y="-41" on="0"/>
        <pt x="54" y="-17" on="0"/>
        <pt x="72" y="-4" on="0"/>
        <pt x="120" y="28" on="1"/>
        <pt x="240" y="109" on="0"/>
        <pt x="287" y="109" on="1"/>
        <pt x="300" y="109" on="0"/>
        <pt x="308" y="99" on="1"/>
        <pt x="317" y="85" on="0"/>
        <pt x="343" y="27" on="0"/>
        <pt x="343" y="15" on="0"/>
        <pt x="342" y="12" on="1"/>
        <pt x="339" y="4" on="0"/>
        <pt x="336" y="2" on="1"/>
        <pt x="324" y="-4" on="0"/>
        <pt x="313" y="-10" on="0"/>
        <pt x="264" y="-40" on="1"/>
        <pt x="128" y="-124" on="0"/>
        <pt x="114" y="-124" on="1"/>
      </contour>
      <contour>
        <pt x="194" y="343" on="1"/>
        <pt x="204" y="129" on="1"/>
        <pt x="204" y="110" on="0"/>
        <pt x="180" y="77" on="0"/>
        <pt x="160" y="77" on="1"/>
        <pt x="151" y="77" on="0"/>
        <pt x="151" y="91" on="1"/>
        <pt x="151" y="243" on="0"/>
        <pt x="136" y="495" on="0"/>
        <pt x="136" y="660" on="1"/>
        <pt x="136" y="676" on="0"/>
        <pt x="143" y="680" on="1"/>
        <pt x="163" y="693" on="0"/>
        <pt x="180" y="693" on="0"/>
        <pt x="182" y="691" on="1"/>
        <pt x="186" y="684" on="0"/>
        <pt x="186" y="575" on="0"/>
      </contour>
      <contour>
        <pt x="17" y="736" on="1"/>
        <pt x="18" y="743" on="0"/>
        <pt x="73" y="772" on="1"/>
        <pt x="225" y="852" on="0"/>
        <pt x="258" y="852" on="1"/>
        <pt x="268" y="852" on="0"/>
        <pt x="271" y="844" on="0"/>
        <pt x="285" y="813" on="0"/>
        <pt x="293" y="788" on="0"/>
        <pt x="293" y="768" on="0"/>
        <pt x="279" y="761" on="1"/>
        <pt x="276" y="759" on="0"/>
        <pt x="202" y="726" on="0"/>
        <pt x="164" y="708" on="1"/>
        <pt x="67" y="664" on="0"/>
        <pt x="17" y="625" on="0"/>
        <pt x="0" y="625" on="0"/>
        <pt x="0" y="635" on="1"/>
      </contour>
    </TTGlyph>
    <TTGlyph name="Icircumflex" xMin="0" yMin="-124" xMax="343" yMax="998">
      <contour>
        <pt x="151" y="914" on="1"/>
        <pt x="110" y="878" on="0"/>
        <pt x="19" y="878" on="0"/>
        <pt x="19" y="896" on="1"/>
        <pt x="19" y="907" on="0"/>
        <pt x="72" y="926" on="0"/>
        <pt x="104" y="955" on="0"/>
        <pt x="116" y="980" on="0"/>
        <pt x="136" y="998" on="0"/>
        <pt x="166" y="998" on="0"/>
        <pt x="186" y="980" on="0"/>
        <pt x="198" y="955" on="0"/>
        <pt x="230" y="926" on="0"/>
        <pt x="283" y="907" on="0"/>
        <pt x="283" y="896" on="1"/>
        <pt x="283" y="878" on="0"/>
        <pt x="192" y="878" on="0"/>
      </contour>
      <contour>
        <pt x="94" y="-124" on="0"/>
        <pt x="54" y="-41" on="0"/>
        <pt x="54" y="-17" on="0"/>
        <pt x="72" y="-4" on="0"/>
        <pt x="120" y="28" on="1"/>
        <pt x="240" y="109" on="0"/>
        <pt x="287" y="109" on="1"/>
        <pt x="300" y="109" on="0"/>
        <pt x="308" y="99" on="1"/>
        <pt x="317" y="85" on="0"/>
        <pt x="343" y="27" on="0"/>
        <pt x="343" y="15" on="0"/>
        <pt x="342" y="12" on="1"/>
        <pt x="339" y="4" on="0"/>
        <pt x="336" y="2" on="1"/>
        <pt x="324" y="-4" on="0"/>
        <pt x="313" y="-10" on="0"/>
        <pt x="264" y="-40" on="1"/>
        <pt x="128" y="-124" on="0"/>
        <pt x="114" y="-124" on="1"/>
      </contour>
      <contour>
        <pt x="194" y="343" on="1"/>
        <pt x="204" y="129" on="1"/>
        <pt x="204" y="110" on="0"/>
        <pt x="180" y="77" on="0"/>
        <pt x="160" y="77" on="1"/>
        <pt x="151" y="77" on="0"/>
        <pt x="151" y="91" on="1"/>
        <pt x="151" y="243" on="0"/>
        <pt x="136" y="495" on="0"/>
        <pt x="136" y="660" on="1"/>
        <pt x="136" y="676" on="0"/>
        <pt x="143" y="680" on="1"/>
        <pt x="163" y="693" on="0"/>
        <pt x="180" y="693" on="0"/>
        <pt x="182" y="691" on="1"/>
        <pt x="186" y="684" on="0"/>
        <pt x="186" y="575" on="0"/>
      </contour>
      <contour>
        <pt x="17" y="736" on="1"/>
        <pt x="18" y="743" on="0"/>
        <pt x="73" y="772" on="1"/>
        <pt x="225" y="852" on="0"/>
        <pt x="258" y="852" on="1"/>
        <pt x="268" y="852" on="0"/>
        <pt x="271" y="844" on="0"/>
        <pt x="285" y="813" on="0"/>
        <pt x="293" y="788" on="0"/>
        <pt x="293" y="768" on="0"/>
        <pt x="279" y="761" on="1"/>
        <pt x="276" y="759" on="0"/>
        <pt x="202" y="726" on="0"/>
        <pt x="164" y="708" on="1"/>
        <pt x="67" y="664" on="0"/>
        <pt x="17" y="625" on="0"/>
        <pt x="0" y="625" on="0"/>
        <pt x="0" y="635" on="1"/>
      </contour>
    </TTGlyph>
    <TTGlyph name="Idieresis" xMin="0" yMin="-124" xMax="343" yMax="1001">
      <contour>
        <pt x="192" y="917" on="0"/>
        <pt x="192" y="967" on="0"/>
        <pt x="223" y="1001" on="0"/>
        <pt x="269" y="1001" on="0"/>
        <pt x="300" y="967" on="0"/>
        <pt x="300" y="917" on="0"/>
        <pt x="269" y="883" on="0"/>
        <pt x="223" y="883" on="0"/>
      </contour>
      <contour>
        <pt x="52" y="917" on="0"/>
        <pt x="52" y="967" on="0"/>
        <pt x="83" y="1001" on="0"/>
        <pt x="129" y="1001" on="0"/>
        <pt x="160" y="967" on="0"/>
        <pt x="160" y="917" on="0"/>
        <pt x="129" y="883" on="0"/>
        <pt x="83" y="883" on="0"/>
      </contour>
      <contour>
        <pt x="94" y="-124" on="0"/>
        <pt x="54" y="-41" on="0"/>
        <pt x="54" y="-17" on="0"/>
        <pt x="72" y="-4" on="0"/>
        <pt x="120" y="28" on="1"/>
        <pt x="240" y="109" on="0"/>
        <pt x="287" y="109" on="1"/>
        <pt x="300" y="109" on="0"/>
        <pt x="308" y="99" on="1"/>
        <pt x="317" y="85" on="0"/>
        <pt x="343" y="27" on="0"/>
        <pt x="343" y="15" on="0"/>
        <pt x="342" y="12" on="1"/>
        <pt x="339" y="4" on="0"/>
        <pt x="336" y="2" on="1"/>
        <pt x="324" y="-4" on="0"/>
        <pt x="313" y="-10" on="0"/>
        <pt x="264" y="-40" on="1"/>
        <pt x="128" y="-124" on="0"/>
        <pt x="114" y="-124" on="1"/>
      </contour>
      <contour>
        <pt x="194" y="343" on="1"/>
        <pt x="204" y="129" on="1"/>
        <pt x="204" y="110" on="0"/>
        <pt x="180" y="77" on="0"/>
        <pt x="160" y="77" on="1"/>
        <pt x="151" y="77" on="0"/>
        <pt x="151" y="91" on="1"/>
        <pt x="151" y="243" on="0"/>
        <pt x="136" y="495" on="0"/>
        <pt x="136" y="660" on="1"/>
        <pt x="136" y="676" on="0"/>
        <pt x="143" y="680" on="1"/>
        <pt x="163" y="693" on="0"/>
        <pt x="180" y="693" on="0"/>
        <pt x="182" y="691" on="1"/>
        <pt x="186" y="684" on="0"/>
        <pt x="186" y="575" on="0"/>
      </contour>
      <contour>
        <pt x="17" y="736" on="1"/>
        <pt x="18" y="743" on="0"/>
        <pt x="73" y="772" on="1"/>
        <pt x="225" y="852" on="0"/>
        <pt x="258" y="852" on="1"/>
        <pt x="268" y="852" on="0"/>
        <pt x="271" y="844" on="0"/>
        <pt x="285" y="813" on="0"/>
        <pt x="293" y="788" on="0"/>
        <pt x="293" y="768" on="0"/>
        <pt x="279" y="761" on="1"/>
        <pt x="276" y="759" on="0"/>
        <pt x="202" y="726" on="0"/>
        <pt x="164" y="708" on="1"/>
        <pt x="67" y="664" on="0"/>
        <pt x="17" y="625" on="0"/>
        <pt x="0" y="625" on="0"/>
        <pt x="0" y="635" on="1"/>
      </contour>
    </TTGlyph>
    <TTGlyph name="Igrave" xMin="0" yMin="-124" xMax="343" yMax="1008">
      <contour>
        <pt x="61" y="971" on="1"/>
        <pt x="61" y="984" on="0"/>
        <pt x="80" y="1008" on="0"/>
        <pt x="120" y="1008" on="0"/>
        <pt x="142" y="989" on="0"/>
        <pt x="151" y="964" on="0"/>
        <pt x="189" y="932" on="0"/>
        <pt x="250" y="913" on="0"/>
        <pt x="250" y="898" on="1"/>
        <pt x="250" y="886" on="0"/>
        <pt x="221" y="886" on="0"/>
        <pt x="182" y="890" on="0"/>
        <pt x="109" y="903" on="0"/>
        <pt x="61" y="942" on="0"/>
      </contour>
      <contour>
        <pt x="94" y="-124" on="0"/>
        <pt x="54" y="-41" on="0"/>
        <pt x="54" y="-17" on="0"/>
        <pt x="72" y="-4" on="0"/>
        <pt x="120" y="28" on="1"/>
        <pt x="240" y="109" on="0"/>
        <pt x="287" y="109" on="1"/>
        <pt x="300" y="109" on="0"/>
        <pt x="308" y="99" on="1"/>
        <pt x="317" y="85" on="0"/>
        <pt x="343" y="27" on="0"/>
        <pt x="343" y="15" on="0"/>
        <pt x="342" y="12" on="1"/>
        <pt x="339" y="4" on="0"/>
        <pt x="336" y="2" on="1"/>
        <pt x="324" y="-4" on="0"/>
        <pt x="313" y="-10" on="0"/>
        <pt x="264" y="-40" on="1"/>
        <pt x="128" y="-124" on="0"/>
        <pt x="114" y="-124" on="1"/>
      </contour>
      <contour>
        <pt x="194" y="343" on="1"/>
        <pt x="204" y="129" on="1"/>
        <pt x="204" y="110" on="0"/>
        <pt x="180" y="77" on="0"/>
        <pt x="160" y="77" on="1"/>
        <pt x="151" y="77" on="0"/>
        <pt x="151" y="91" on="1"/>
        <pt x="151" y="243" on="0"/>
        <pt x="136" y="495" on="0"/>
        <pt x="136" y="660" on="1"/>
        <pt x="136" y="676" on="0"/>
        <pt x="143" y="680" on="1"/>
        <pt x="163" y="693" on="0"/>
        <pt x="180" y="693" on="0"/>
        <pt x="182" y="691" on="1"/>
        <pt x="186" y="684" on="0"/>
        <pt x="186" y="575" on="0"/>
      </contour>
      <contour>
        <pt x="17" y="736" on="1"/>
        <pt x="18" y="743" on="0"/>
        <pt x="73" y="772" on="1"/>
        <pt x="225" y="852" on="0"/>
        <pt x="258" y="852" on="1"/>
        <pt x="268" y="852" on="0"/>
        <pt x="271" y="844" on="0"/>
        <pt x="285" y="813" on="0"/>
        <pt x="293" y="788" on="0"/>
        <pt x="293" y="768" on="0"/>
        <pt x="279" y="761" on="1"/>
        <pt x="276" y="759" on="0"/>
        <pt x="202" y="726" on="0"/>
        <pt x="164" y="708" on="1"/>
        <pt x="67" y="664" on="0"/>
        <pt x="17" y="625" on="0"/>
        <pt x="0" y="625" on="0"/>
        <pt x="0" y="635" on="1"/>
      </contour>
    </TTGlyph>
    <TTGlyph name="J" xMin="1" yMin="-56" xMax="488" yMax="895">
      <contour>
        <pt x="259" y="702" on="1"/>
        <pt x="277" y="712" on="0"/>
        <pt x="293" y="712" on="0"/>
        <pt x="293" y="705" on="1"/>
        <pt x="283" y="650" on="0"/>
        <pt x="283" y="641" on="1"/>
        <pt x="283" y="597" on="0"/>
        <pt x="355" y="199" on="0"/>
        <pt x="355" y="120" on="0"/>
        <pt x="339" y="57" on="0"/>
        <pt x="306" y="-11" on="0"/>
        <pt x="238" y="-56" on="0"/>
        <pt x="142" y="-56" on="0"/>
        <pt x="1" y="77" on="0"/>
        <pt x="1" y="116" on="1"/>
        <pt x="1" y="129" on="0"/>
        <pt x="16" y="144" on="0"/>
        <pt x="60" y="187" on="0"/>
        <pt x="85" y="216" on="0"/>
        <pt x="92" y="216" on="1"/>
        <pt x="96" y="216" on="0"/>
        <pt x="152" y="131" on="0"/>
        <pt x="233" y="46" on="0"/>
        <pt x="305" y="46" on="0"/>
        <pt x="305" y="138" on="1"/>
        <pt x="305" y="210" on="0"/>
        <pt x="236" y="569" on="0"/>
        <pt x="236" y="671" on="0"/>
      </contour>
      <contour>
        <pt x="47" y="732" on="1"/>
        <pt x="98" y="764" on="0"/>
        <pt x="424" y="895" on="0"/>
        <pt x="471" y="895" on="1"/>
        <pt x="488" y="895" on="0"/>
        <pt x="488" y="860" on="0"/>
        <pt x="466" y="805" on="0"/>
        <pt x="458" y="792" on="1"/>
        <pt x="448" y="779" on="0"/>
        <pt x="406" y="765" on="1"/>
        <pt x="319" y="738" on="0"/>
        <pt x="88" y="646" on="0"/>
        <pt x="31" y="608" on="0"/>
        <pt x="14" y="608" on="0"/>
        <pt x="14" y="645" on="0"/>
        <pt x="39" y="727" on="0"/>
      </contour>
    </TTGlyph>
    <TTGlyph name="K" xMin="0" yMin="-44" xMax="523" yMax="819">
      <contour>
        <pt x="1" y="490" on="1"/>
        <pt x="1" y="585" on="0"/>
        <pt x="18" y="715" on="1"/>
        <pt x="18" y="720" on="0"/>
        <pt x="25" y="731" on="1"/>
        <pt x="38" y="744" on="0"/>
        <pt x="59" y="747" on="1"/>
        <pt x="68" y="747" on="0"/>
        <pt x="68" y="739" on="1"/>
        <pt x="48" y="633" on="0"/>
        <pt x="48" y="430" on="1"/>
        <pt x="48" y="409" on="0"/>
        <pt x="51" y="409" on="0"/>
        <pt x="60" y="422" on="0"/>
        <pt x="63" y="422" on="1"/>
        <pt x="78" y="422" on="0"/>
        <pt x="79" y="415" on="1"/>
        <pt x="119" y="364" on="0"/>
        <pt x="180" y="364" on="1"/>
        <pt x="225" y="364" on="0"/>
        <pt x="298" y="406" on="0"/>
        <pt x="340" y="465" on="0"/>
        <pt x="354" y="500" on="1"/>
        <pt x="379" y="558" on="0"/>
        <pt x="379" y="648" on="0"/>
        <pt x="336" y="722" on="0"/>
        <pt x="302" y="722" on="1"/>
        <pt x="297" y="722" on="0"/>
        <pt x="284" y="713" on="0"/>
        <pt x="273" y="713" on="0"/>
        <pt x="259" y="722" on="0"/>
        <pt x="259" y="727" on="1"/>
        <pt x="259" y="750" on="0"/>
        <pt x="341" y="819" on="0"/>
        <pt x="367" y="819" on="1"/>
        <pt x="419" y="819" on="0"/>
        <pt x="471" y="752" on="0"/>
        <pt x="471" y="621" on="0"/>
        <pt x="399" y="455" on="0"/>
        <pt x="261" y="332" on="0"/>
        <pt x="180" y="332" on="1"/>
        <pt x="146" y="332" on="0"/>
        <pt x="108" y="349" on="0"/>
        <pt x="102" y="349" on="0"/>
        <pt x="102" y="338" on="0"/>
        <pt x="106" y="326" on="1"/>
        <pt x="178" y="200" on="0"/>
        <pt x="342" y="65" on="0"/>
        <pt x="423" y="65" on="1"/>
        <pt x="452" y="65" on="0"/>
        <pt x="477" y="84" on="0"/>
        <pt x="484" y="91" on="1"/>
        <pt x="497" y="104" on="0"/>
        <pt x="511" y="104" on="0"/>
        <pt x="523" y="86" on="0"/>
        <pt x="523" y="79" on="1"/>
        <pt x="523" y="44" on="0"/>
        <pt x="398" y="-44" on="0"/>
        <pt x="315" y="-44" on="1"/>
        <pt x="226" y="-44" on="0"/>
        <pt x="177" y="5" on="1"/>
        <pt x="152" y="30" on="0"/>
        <pt x="117" y="80" on="0"/>
        <pt x="89" y="157" on="0"/>
        <pt x="75" y="207" on="0"/>
        <pt x="66" y="248" on="1"/>
        <pt x="52" y="307" on="0"/>
        <pt x="46" y="307" on="0"/>
        <pt x="46" y="299" on="1"/>
        <pt x="45" y="211" on="1"/>
        <pt x="45" y="86" on="0"/>
        <pt x="55" y="0" on="1"/>
        <pt x="55" y="-6" on="0"/>
        <pt x="32" y="-29" on="0"/>
        <pt x="8" y="-29" on="0"/>
        <pt x="8" y="-8" on="1"/>
        <pt x="8" y="0" on="0"/>
        <pt x="6" y="40" on="1"/>
        <pt x="0" y="160" on="0"/>
        <pt x="0" y="252" on="1"/>
        <pt x="0" y="387" on="1"/>
      </contour>
    </TTGlyph>
    <TTGlyph name="L" xMin="1" yMin="-61" xMax="640" yMax="784">
      <contour>
        <pt x="272" y="784" on="0"/>
        <pt x="299" y="756" on="0"/>
        <pt x="299" y="708" on="0"/>
        <pt x="250" y="627" on="0"/>
        <pt x="230" y="627" on="1"/>
        <pt x="226" y="627" on="0"/>
        <pt x="209" y="640" on="0"/>
        <pt x="209" y="649" on="0"/>
        <pt x="219" y="659" on="0"/>
        <pt x="219" y="663" on="1"/>
        <pt x="216" y="700" on="0"/>
        <pt x="144" y="700" on="0"/>
        <pt x="85" y="652" on="0"/>
        <pt x="69" y="614" on="1"/>
        <pt x="38" y="539" on="0"/>
        <pt x="38" y="389" on="0"/>
        <pt x="55" y="107" on="0"/>
        <pt x="55" y="36" on="0"/>
        <pt x="60" y="36" on="1"/>
        <pt x="61" y="36" on="0"/>
        <pt x="70" y="45" on="1"/>
        <pt x="93" y="74" on="0"/>
        <pt x="210" y="170" on="0"/>
        <pt x="292" y="170" on="0"/>
        <pt x="398" y="105" on="0"/>
        <pt x="507" y="39" on="0"/>
        <pt x="550" y="39" on="1"/>
        <pt x="586" y="39" on="0"/>
        <pt x="606" y="75" on="0"/>
        <pt x="624" y="75" on="0"/>
        <pt x="640" y="56" on="0"/>
        <pt x="640" y="49" on="1"/>
        <pt x="640" y="21" on="0"/>
        <pt x="503" y="-61" on="0"/>
        <pt x="419" y="-61" on="0"/>
        <pt x="303" y="-1" on="0"/>
        <pt x="194" y="59" on="0"/>
        <pt x="136" y="59" on="0"/>
        <pt x="72" y="1" on="0"/>
        <pt x="42" y="-43" on="0"/>
        <pt x="25" y="-43" on="0"/>
        <pt x="9" y="-29" on="0"/>
        <pt x="9" y="-18" on="0"/>
        <pt x="20" y="27" on="0"/>
        <pt x="20" y="148" on="0"/>
        <pt x="1" y="356" on="0"/>
        <pt x="1" y="497" on="1"/>
        <pt x="1" y="613" on="0"/>
        <pt x="162" y="784" on="0"/>
        <pt x="248" y="784" on="1"/>
      </contour>
    </TTGlyph>
    <TTGlyph name="Lslash" xMin="-104" yMin="-61" xMax="640" yMax="784">
      <contour>
        <pt x="41" y="350" on="1"/>
        <pt x="55" y="98" on="0"/>
        <pt x="55" y="36" on="0"/>
        <pt x="60" y="36" on="1"/>
        <pt x="61" y="36" on="0"/>
        <pt x="70" y="45" on="1"/>
        <pt x="93" y="74" on="0"/>
        <pt x="210" y="170" on="0"/>
        <pt x="292" y="170" on="0"/>
        <pt x="398" y="105" on="0"/>
        <pt x="507" y="39" on="0"/>
        <pt x="550" y="39" on="1"/>
        <pt x="586" y="39" on="0"/>
        <pt x="606" y="75" on="0"/>
        <pt x="624" y="75" on="0"/>
        <pt x="640" y="56" on="0"/>
        <pt x="640" y="49" on="1"/>
        <pt x="640" y="21" on="0"/>
        <pt x="503" y="-61" on="0"/>
        <pt x="419" y="-61" on="0"/>
        <pt x="303" y="-1" on="0"/>
        <pt x="194" y="59" on="0"/>
        <pt x="136" y="59" on="0"/>
        <pt x="72" y="1" on="0"/>
        <pt x="42" y="-43" on="0"/>
        <pt x="25" y="-43" on="0"/>
        <pt x="9" y="-29" on="0"/>
        <pt x="9" y="-18" on="0"/>
        <pt x="20" y="27" on="0"/>
        <pt x="20" y="151" on="0"/>
        <pt x="6" y="300" on="0"/>
        <pt x="4" y="340" on="1"/>
        <pt x="-68" y="318" on="0"/>
        <pt x="-95" y="299" on="1"/>
        <pt x="-96" y="298" on="0"/>
        <pt x="-104" y="298" on="0"/>
        <pt x="-104" y="312" on="0"/>
        <pt x="-93" y="343" on="0"/>
        <pt x="-90" y="345" on="1"/>
        <pt x="-69" y="360" on="0"/>
        <pt x="-6" y="379" on="1"/>
        <pt x="0" y="381" on="0"/>
        <pt x="2" y="382" on="1"/>
        <pt x="1" y="414" on="0"/>
        <pt x="1" y="497" on="1"/>
        <pt x="1" y="613" on="0"/>
        <pt x="162" y="784" on="0"/>
        <pt x="248" y="784" on="1"/>
        <pt x="272" y="784" on="0"/>
        <pt x="299" y="756" on="0"/>
        <pt x="299" y="708" on="0"/>
        <pt x="250" y="627" on="0"/>
        <pt x="230" y="627" on="1"/>
        <pt x="226" y="627" on="0"/>
        <pt x="209" y="640" on="0"/>
        <pt x="209" y="649" on="0"/>
        <pt x="219" y="659" on="0"/>
        <pt x="219" y="663" on="1"/>
        <pt x="216" y="700" on="0"/>
        <pt x="183" y="700" on="1"/>
        <pt x="160" y="700" on="0"/>
        <pt x="103" y="666" on="0"/>
        <pt x="80" y="635" on="1"/>
        <pt x="38" y="577" on="0"/>
        <pt x="38" y="460" on="1"/>
        <pt x="38" y="438" on="0"/>
        <pt x="40" y="392" on="1"/>
        <pt x="114" y="410" on="0"/>
        <pt x="149" y="410" on="1"/>
        <pt x="158" y="410" on="0"/>
        <pt x="158" y="395" on="0"/>
        <pt x="149" y="370" on="0"/>
        <pt x="142" y="369" on="1"/>
        <pt x="109" y="367" on="0"/>
      </contour>
    </TTGlyph>
    <TTGlyph name="M" xMin="0" yMin="-49" xMax="918" yMax="721">
      <contour>
        <pt x="567" y="350" on="1"/>
        <pt x="570" y="571" on="1"/>
        <pt x="569" y="578" on="0"/>
        <pt x="556" y="578" on="0"/>
        <pt x="551" y="571" on="1"/>
        <pt x="502" y="449" on="0"/>
        <pt x="353" y="20" on="0"/>
        <pt x="346" y="-2" on="0"/>
        <pt x="314" y="-33" on="0"/>
        <pt x="290" y="-33" on="0"/>
        <pt x="290" y="-14" on="1"/>
        <pt x="289" y="-7" on="0"/>
        <pt x="285" y="112" on="0"/>
        <pt x="277" y="236" on="0"/>
        <pt x="264" y="369" on="0"/>
        <pt x="240" y="454" on="0"/>
        <pt x="225" y="454" on="1"/>
        <pt x="199" y="454" on="0"/>
        <pt x="78" y="44" on="1"/>
        <pt x="62" y="-12" on="0"/>
        <pt x="61" y="-14" on="1"/>
        <pt x="57" y="-27" on="0"/>
        <pt x="28" y="-46" on="0"/>
        <pt x="15" y="-46" on="1"/>
        <pt x="4" y="-46" on="0"/>
        <pt x="4" y="-30" on="1"/>
        <pt x="11" y="176" on="0"/>
        <pt x="11" y="311" on="1"/>
        <pt x="11" y="566" on="0"/>
        <pt x="3" y="654" on="1"/>
        <pt x="0" y="687" on="1"/>
        <pt x="0" y="694" on="0"/>
        <pt x="28" y="721" on="0"/>
        <pt x="52" y="721" on="0"/>
        <pt x="52" y="699" on="1"/>
        <pt x="52" y="692" on="1"/>
        <pt x="54" y="608" on="1"/>
        <pt x="54" y="567" on="1"/>
        <pt x="54" y="186" on="0"/>
        <pt x="49" y="106" on="1"/>
        <pt x="49" y="88" on="0"/>
        <pt x="55" y="88" on="0"/>
        <pt x="216" y="577" on="0"/>
        <pt x="234" y="637" on="0"/>
        <pt x="262" y="668" on="0"/>
        <pt x="278" y="668" on="1"/>
        <pt x="301" y="668" on="0"/>
        <pt x="331" y="406" on="0"/>
        <pt x="348" y="144" on="0"/>
        <pt x="357" y="144" on="0"/>
        <pt x="401" y="258" on="0"/>
        <pt x="458" y="420" on="0"/>
        <pt x="486" y="501" on="1"/>
        <pt x="555" y="695" on="0"/>
        <pt x="562" y="691" on="1"/>
        <pt x="560" y="692" on="0"/>
        <pt x="568" y="699" on="1"/>
        <pt x="592" y="719" on="0"/>
        <pt x="607" y="721" on="1"/>
        <pt x="629" y="718" on="0"/>
        <pt x="629" y="694" on="1"/>
        <pt x="629" y="668" on="1"/>
        <pt x="629" y="593" on="0"/>
        <pt x="632" y="548" on="1"/>
        <pt x="662" y="49" on="0"/>
        <pt x="855" y="49" on="1"/>
        <pt x="871" y="49" on="0"/>
        <pt x="897" y="67" on="0"/>
        <pt x="906" y="67" on="0"/>
        <pt x="918" y="55" on="0"/>
        <pt x="918" y="48" on="1"/>
        <pt x="918" y="22" on="0"/>
        <pt x="809" y="-49" on="0"/>
        <pt x="757" y="-49" on="1"/>
        <pt x="567" y="-49" on="0"/>
      </contour>
    </TTGlyph>
    <TTGlyph name="N" xMin="0" yMin="-42" xMax="674" yMax="757">
      <contour>
        <pt x="150" y="592" on="1"/>
        <pt x="143" y="560" on="0"/>
        <pt x="121" y="194" on="0"/>
        <pt x="121" y="11" on="0"/>
        <pt x="127" y="-42" on="0"/>
        <pt x="145" y="-42" on="1"/>
        <pt x="159" y="-42" on="0"/>
        <pt x="189" y="-17" on="0"/>
        <pt x="189" y="7" on="0"/>
        <pt x="170" y="170" on="0"/>
        <pt x="170" y="303" on="0"/>
        <pt x="183" y="587" on="0"/>
        <pt x="188" y="611" on="1"/>
        <pt x="188" y="620" on="0"/>
        <pt x="181" y="620" on="1"/>
        <pt x="171" y="620" on="0"/>
        <pt x="155" y="598" on="0"/>
      </contour>
      <contour>
        <pt x="494" y="26" on="1"/>
        <pt x="477" y="-42" on="0"/>
        <pt x="446" y="-42" on="1"/>
        <pt x="400" y="-42" on="0"/>
        <pt x="400" y="73" on="1"/>
        <pt x="400" y="105" on="0"/>
        <pt x="411" y="177" on="0"/>
        <pt x="411" y="179" on="1"/>
        <pt x="411" y="207" on="0"/>
        <pt x="362" y="360" on="0"/>
        <pt x="284" y="533" on="0"/>
        <pt x="167" y="665" on="0"/>
        <pt x="110" y="665" on="1"/>
        <pt x="74" y="665" on="0"/>
        <pt x="48" y="627" on="1"/>
        <pt x="28" y="600" on="0"/>
        <pt x="22" y="600" on="1"/>
        <pt x="12" y="600" on="0"/>
        <pt x="0" y="630" on="1"/>
        <pt x="29" y="670" on="0"/>
        <pt x="151" y="757" on="0"/>
        <pt x="208" y="757" on="1"/>
        <pt x="279" y="757" on="0"/>
        <pt x="424" y="530" on="0"/>
        <pt x="466" y="365" on="1"/>
        <pt x="468" y="371" on="0"/>
        <pt x="485" y="438" on="0"/>
        <pt x="492" y="460" on="0"/>
        <pt x="510" y="522" on="0"/>
        <pt x="525" y="561" on="0"/>
        <pt x="536" y="591" on="1"/>
        <pt x="551" y="630" on="0"/>
        <pt x="592" y="711" on="1"/>
        <pt x="607" y="740" on="0"/>
        <pt x="662" y="747" on="1"/>
        <pt x="674" y="747" on="0"/>
        <pt x="674" y="738" on="1"/>
        <pt x="674" y="733" on="0"/>
        <pt x="670" y="728" on="1"/>
        <pt x="624" y="675" on="0"/>
        <pt x="517" y="407" on="0"/>
        <pt x="484" y="278" on="1"/>
        <pt x="502" y="175" on="0"/>
        <pt x="502" y="61" on="0"/>
      </contour>
    </TTGlyph>
    <TTGlyph name="Ntilde" xMin="0" yMin="-42" xMax="674" yMax="858">
      <contour>
        <pt x="150" y="592" on="1"/>
        <pt x="155" y="598" on="0"/>
        <pt x="161" y="606" on="0"/>
        <pt x="165" y="610" on="1"/>
        <pt x="175" y="620" on="0"/>
        <pt x="188" y="620" on="0"/>
        <pt x="188" y="611" on="1"/>
        <pt x="183" y="587" on="0"/>
        <pt x="170" y="303" on="0"/>
        <pt x="170" y="170" on="0"/>
        <pt x="189" y="7" on="0"/>
        <pt x="189" y="-17" on="0"/>
        <pt x="159" y="-42" on="0"/>
        <pt x="145" y="-42" on="1"/>
        <pt x="127" y="-42" on="0"/>
        <pt x="121" y="11" on="0"/>
        <pt x="121" y="194" on="0"/>
        <pt x="143" y="560" on="0"/>
      </contour>
      <contour>
        <pt x="494" y="26" on="1"/>
        <pt x="477" y="-42" on="0"/>
        <pt x="446" y="-42" on="1"/>
        <pt x="400" y="-42" on="0"/>
        <pt x="400" y="73" on="1"/>
        <pt x="400" y="105" on="0"/>
        <pt x="411" y="177" on="0"/>
        <pt x="411" y="179" on="1"/>
        <pt x="411" y="207" on="0"/>
        <pt x="362" y="360" on="0"/>
        <pt x="284" y="533" on="0"/>
        <pt x="167" y="665" on="0"/>
        <pt x="110" y="665" on="1"/>
        <pt x="74" y="665" on="0"/>
        <pt x="48" y="627" on="1"/>
        <pt x="28" y="600" on="0"/>
        <pt x="22" y="600" on="1"/>
        <pt x="12" y="600" on="0"/>
        <pt x="0" y="630" on="1"/>
        <pt x="29" y="670" on="0"/>
        <pt x="151" y="757" on="0"/>
        <pt x="208" y="757" on="1"/>
        <pt x="279" y="757" on="0"/>
        <pt x="424" y="530" on="0"/>
        <pt x="466" y="365" on="1"/>
        <pt x="468" y="371" on="0"/>
        <pt x="485" y="438" on="0"/>
        <pt x="492" y="460" on="0"/>
        <pt x="510" y="522" on="0"/>
        <pt x="525" y="561" on="0"/>
        <pt x="536" y="591" on="1"/>
        <pt x="551" y="630" on="0"/>
        <pt x="592" y="711" on="1"/>
        <pt x="607" y="740" on="0"/>
        <pt x="662" y="747" on="1"/>
        <pt x="674" y="747" on="0"/>
        <pt x="674" y="738" on="1"/>
        <pt x="674" y="733" on="0"/>
        <pt x="670" y="728" on="1"/>
        <pt x="624" y="675" on="0"/>
        <pt x="517" y="407" on="0"/>
        <pt x="484" y="278" on="1"/>
        <pt x="502" y="175" on="0"/>
        <pt x="502" y="61" on="0"/>
      </contour>
      <contour>
        <pt x="285" y="821" on="0"/>
        <pt x="346" y="858" on="0"/>
        <pt x="400" y="858" on="0"/>
        <pt x="460" y="831" on="0"/>
        <pt x="494" y="831" on="0"/>
        <pt x="503" y="833" on="1"/>
        <pt x="513" y="833" on="0"/>
        <pt x="514" y="825" on="1"/>
        <pt x="514" y="809" on="0"/>
        <pt x="452" y="773" on="0"/>
        <pt x="398" y="773" on="0"/>
        <pt x="340" y="799" on="0"/>
        <pt x="305" y="799" on="0"/>
        <pt x="296" y="797" on="1"/>
        <pt x="286" y="797" on="0"/>
        <pt x="285" y="805" on="1"/>
      </contour>
    </TTGlyph>
    <TTGlyph name="O" xMin="0" yMin="-54" xMax="614" yMax="840">
      <contour>
        <pt x="280" y="172" on="0"/>
        <pt x="196" y="281" on="0"/>
        <pt x="196" y="410" on="0"/>
        <pt x="261" y="571" on="0"/>
        <pt x="385" y="702" on="0"/>
        <pt x="456" y="713" on="1"/>
        <pt x="455" y="714" on="0"/>
        <pt x="455" y="718" on="1"/>
        <pt x="455" y="743" on="0"/>
        <pt x="432" y="762" on="0"/>
        <pt x="404" y="762" on="1"/>
        <pt x="339" y="762" on="0"/>
        <pt x="195" y="617" on="0"/>
        <pt x="100" y="409" on="0"/>
        <pt x="100" y="321" on="1"/>
        <pt x="100" y="242" on="0"/>
        <pt x="134" y="172" on="1"/>
        <pt x="151" y="136" on="0"/>
        <pt x="221" y="92" on="0"/>
        <pt x="269" y="92" on="1"/>
        <pt x="355" y="92" on="0"/>
        <pt x="428" y="189" on="1"/>
        <pt x="388" y="172" on="0"/>
        <pt x="349" y="172" on="1"/>
      </contour>
      <contour>
        <pt x="417" y="263" on="1"/>
        <pt x="448" y="263" on="0"/>
        <pt x="480" y="273" on="1"/>
        <pt x="542" y="399" on="0"/>
        <pt x="542" y="507" on="1"/>
        <pt x="542" y="566" on="0"/>
        <pt x="489" y="652" on="0"/>
        <pt x="439" y="652" on="1"/>
        <pt x="375" y="652" on="0"/>
        <pt x="273" y="509" on="0"/>
        <pt x="273" y="348" on="0"/>
        <pt x="368" y="263" on="0"/>
      </contour>
      <contour>
        <pt x="494" y="840" on="0"/>
        <pt x="531" y="808" on="0"/>
        <pt x="531" y="767" on="0"/>
        <pt x="503" y="724" on="0"/>
        <pt x="484" y="715" on="1"/>
        <pt x="535" y="715" on="0"/>
        <pt x="591" y="632" on="0"/>
        <pt x="591" y="575" on="1"/>
        <pt x="591" y="447" on="0"/>
        <pt x="529" y="298" on="1"/>
        <pt x="562" y="322" on="0"/>
        <pt x="590" y="356" on="1"/>
        <pt x="599" y="368" on="0"/>
        <pt x="606" y="368" on="0"/>
        <pt x="614" y="359" on="0"/>
        <pt x="614" y="354" on="1"/>
        <pt x="613" y="338" on="0"/>
        <pt x="543" y="258" on="0"/>
        <pt x="496" y="225" on="1"/>
        <pt x="432" y="102" on="0"/>
        <pt x="260" y="-54" on="0"/>
        <pt x="90" y="-54" on="0"/>
        <pt x="0" y="76" on="0"/>
        <pt x="0" y="274" on="0"/>
        <pt x="65" y="474" on="0"/>
        <pt x="169" y="637" on="0"/>
        <pt x="294" y="768" on="0"/>
        <pt x="422" y="840" on="0"/>
        <pt x="474" y="840" on="1"/>
      </contour>
    </TTGlyph>
    <TTGlyph name="OE" xMin="0" yMin="-54" xMax="954" yMax="840">
      <contour>
        <pt x="417" y="263" on="1"/>
        <pt x="489" y="263" on="0"/>
        <pt x="548" y="312" on="1"/>
        <pt x="550" y="318" on="0"/>
        <pt x="550" y="322" on="1"/>
        <pt x="550" y="358" on="0"/>
        <pt x="470" y="386" on="1"/>
        <pt x="440" y="397" on="0"/>
        <pt x="390" y="445" on="0"/>
        <pt x="390" y="479" on="1"/>
        <pt x="390" y="554" on="0"/>
        <pt x="490" y="635" on="1"/>
        <pt x="468" y="652" on="0"/>
        <pt x="439" y="652" on="1"/>
        <pt x="375" y="652" on="0"/>
        <pt x="273" y="509" on="0"/>
        <pt x="273" y="348" on="0"/>
        <pt x="368" y="263" on="0"/>
      </contour>
      <contour>
        <pt x="269" y="92" on="1"/>
        <pt x="353" y="92" on="0"/>
        <pt x="427" y="188" on="1"/>
        <pt x="385" y="172" on="0"/>
        <pt x="349" y="172" on="1"/>
        <pt x="280" y="172" on="0"/>
        <pt x="196" y="281" on="0"/>
        <pt x="196" y="410" on="0"/>
        <pt x="261" y="571" on="0"/>
        <pt x="385" y="702" on="0"/>
        <pt x="456" y="713" on="1"/>
        <pt x="455" y="714" on="0"/>
        <pt x="455" y="718" on="1"/>
        <pt x="455" y="743" on="0"/>
        <pt x="432" y="762" on="0"/>
        <pt x="404" y="762" on="1"/>
        <pt x="339" y="762" on="0"/>
        <pt x="195" y="617" on="0"/>
        <pt x="100" y="409" on="0"/>
        <pt x="100" y="321" on="1"/>
        <pt x="100" y="242" on="0"/>
        <pt x="134" y="172" on="1"/>
        <pt x="151" y="136" on="0"/>
        <pt x="221" y="92" on="0"/>
      </contour>
      <contour>
        <pt x="813" y="666" on="1"/>
        <pt x="818" y="686" on="1"/>
        <pt x="818" y="704" on="0"/>
        <pt x="781" y="721" on="0"/>
        <pt x="763" y="721" on="1"/>
        <pt x="721" y="721" on="0"/>
        <pt x="597" y="667" on="0"/>
        <pt x="503" y="592" on="0"/>
        <pt x="502" y="540" on="0"/>
        <pt x="553" y="496" on="0"/>
        <pt x="614" y="468" on="0"/>
        <pt x="665" y="425" on="0"/>
        <pt x="665" y="374" on="0"/>
        <pt x="634" y="328" on="0"/>
        <pt x="590" y="293" on="0"/>
        <pt x="568" y="275" on="1"/>
        <pt x="516" y="231" on="0"/>
        <pt x="516" y="177" on="1"/>
        <pt x="516" y="142" on="0"/>
        <pt x="575" y="91" on="0"/>
        <pt x="652" y="91" on="0"/>
        <pt x="726" y="116" on="0"/>
        <pt x="758" y="142" on="1"/>
        <pt x="803" y="178" on="0"/>
        <pt x="848" y="226" on="1"/>
        <pt x="855" y="233" on="0"/>
        <pt x="869" y="233" on="0"/>
        <pt x="879" y="219" on="0"/>
        <pt x="879" y="211" on="1"/>
        <pt x="879" y="191" on="0"/>
        <pt x="808" y="109" on="0"/>
        <pt x="703" y="25" on="0"/>
        <pt x="563" y="-39" on="0"/>
        <pt x="454" y="-39" on="0"/>
        <pt x="386" y="14" on="0"/>
        <pt x="385" y="62" on="1"/>
        <pt x="279" y="-54" on="0"/>
        <pt x="171" y="-54" on="1"/>
        <pt x="90" y="-54" on="0"/>
        <pt x="0" y="76" on="0"/>
        <pt x="0" y="274" on="0"/>
        <pt x="65" y="474" on="0"/>
        <pt x="169" y="637" on="0"/>
        <pt x="294" y="768" on="0"/>
        <pt x="422" y="840" on="0"/>
        <pt x="474" y="840" on="1"/>
        <pt x="494" y="840" on="0"/>
        <pt x="531" y="808" on="0"/>
        <pt x="531" y="767" on="0"/>
        <pt x="503" y="724" on="0"/>
        <pt x="484" y="715" on="1"/>
        <pt x="528" y="715" on="0"/>
        <pt x="556" y="682" on="1"/>
        <pt x="642" y="737" on="0"/>
        <pt x="840" y="812" on="0"/>
        <pt x="917" y="812" on="0"/>
        <pt x="954" y="780" on="0"/>
        <pt x="954" y="756" on="1"/>
        <pt x="954" y="721" on="0"/>
        <pt x="850" y="658" on="0"/>
        <pt x="813" y="659" on="0"/>
      </contour>
    </TTGlyph>
    <TTGlyph name="Oacute" xMin="0" yMin="-54" xMax="614" yMax="998">
      <contour>
        <pt x="491" y="961" on="1"/>
        <pt x="491" y="932" on="0"/>
        <pt x="437" y="891" on="0"/>
        <pt x="399" y="882" on="1"/>
        <pt x="334" y="868" on="0"/>
        <pt x="301" y="868" on="1"/>
        <pt x="286" y="868" on="0"/>
        <pt x="286" y="880" on="1"/>
        <pt x="286" y="894" on="0"/>
        <pt x="312" y="903" on="1"/>
        <pt x="354" y="917" on="0"/>
        <pt x="400" y="954" on="0"/>
        <pt x="404" y="967" on="1"/>
        <pt x="415" y="998" on="0"/>
        <pt x="454" y="998" on="1"/>
        <pt x="472" y="998" on="0"/>
        <pt x="491" y="974" on="0"/>
      </contour>
      <contour>
        <pt x="280" y="172" on="0"/>
        <pt x="196" y="281" on="0"/>
        <pt x="196" y="410" on="0"/>
        <pt x="261" y="571" on="0"/>
        <pt x="385" y="702" on="0"/>
        <pt x="456" y="713" on="1"/>
        <pt x="455" y="714" on="0"/>
        <pt x="455" y="718" on="1"/>
        <pt x="455" y="743" on="0"/>
        <pt x="432" y="762" on="0"/>
        <pt x="404" y="762" on="1"/>
        <pt x="339" y="762" on="0"/>
        <pt x="195" y="617" on="0"/>
        <pt x="100" y="409" on="0"/>
        <pt x="100" y="321" on="1"/>
        <pt x="100" y="242" on="0"/>
        <pt x="134" y="172" on="1"/>
        <pt x="151" y="136" on="0"/>
        <pt x="221" y="92" on="0"/>
        <pt x="269" y="92" on="1"/>
        <pt x="355" y="92" on="0"/>
        <pt x="428" y="189" on="1"/>
        <pt x="388" y="172" on="0"/>
        <pt x="349" y="172" on="1"/>
      </contour>
      <contour>
        <pt x="417" y="263" on="1"/>
        <pt x="448" y="263" on="0"/>
        <pt x="480" y="273" on="1"/>
        <pt x="542" y="399" on="0"/>
        <pt x="542" y="507" on="1"/>
        <pt x="542" y="566" on="0"/>
        <pt x="489" y="652" on="0"/>
        <pt x="439" y="652" on="1"/>
        <pt x="375" y="652" on="0"/>
        <pt x="273" y="509" on="0"/>
        <pt x="273" y="348" on="0"/>
        <pt x="368" y="263" on="0"/>
      </contour>
      <contour>
        <pt x="494" y="840" on="0"/>
        <pt x="531" y="808" on="0"/>
        <pt x="531" y="767" on="0"/>
        <pt x="503" y="724" on="0"/>
        <pt x="484" y="715" on="1"/>
        <pt x="535" y="715" on="0"/>
        <pt x="591" y="632" on="0"/>
        <pt x="591" y="575" on="1"/>
        <pt x="591" y="447" on="0"/>
        <pt x="529" y="298" on="1"/>
        <pt x="562" y="322" on="0"/>
        <pt x="590" y="356" on="1"/>
        <pt x="599" y="368" on="0"/>
        <pt x="606" y="368" on="0"/>
        <pt x="614" y="359" on="0"/>
        <pt x="614" y="354" on="1"/>
        <pt x="613" y="338" on="0"/>
        <pt x="543" y="258" on="0"/>
        <pt x="496" y="225" on="1"/>
        <pt x="432" y="102" on="0"/>
        <pt x="260" y="-54" on="0"/>
        <pt x="90" y="-54" on="0"/>
        <pt x="0" y="76" on="0"/>
        <pt x="0" y="274" on="0"/>
        <pt x="65" y="474" on="0"/>
        <pt x="169" y="637" on="0"/>
        <pt x="294" y="768" on="0"/>
        <pt x="422" y="840" on="0"/>
        <pt x="474" y="840" on="1"/>
      </contour>
    </TTGlyph>
    <TTGlyph name="Ocircumflex" xMin="0" yMin="-54" xMax="614" yMax="979">
      <contour>
        <pt x="414" y="895" on="1"/>
        <pt x="373" y="859" on="0"/>
        <pt x="282" y="859" on="0"/>
        <pt x="282" y="877" on="1"/>
        <pt x="282" y="888" on="0"/>
        <pt x="335" y="907" on="0"/>
        <pt x="367" y="936" on="0"/>
        <pt x="379" y="961" on="0"/>
        <pt x="399" y="979" on="0"/>
        <pt x="429" y="979" on="0"/>
        <pt x="449" y="961" on="0"/>
        <pt x="461" y="936" on="0"/>
        <pt x="493" y="907" on="0"/>
        <pt x="546" y="888" on="0"/>
        <pt x="546" y="877" on="1"/>
        <pt x="546" y="859" on="0"/>
        <pt x="455" y="859" on="0"/>
      </contour>
      <contour>
        <pt x="261" y="571" on="0"/>
        <pt x="196" y="410" on="0"/>
        <pt x="196" y="281" on="0"/>
        <pt x="280" y="172" on="0"/>
        <pt x="349" y="172" on="1"/>
        <pt x="388" y="172" on="0"/>
        <pt x="428" y="189" on="1"/>
        <pt x="355" y="92" on="0"/>
        <pt x="269" y="92" on="1"/>
        <pt x="221" y="92" on="0"/>
        <pt x="151" y="136" on="0"/>
        <pt x="134" y="172" on="1"/>
        <pt x="100" y="242" on="0"/>
        <pt x="100" y="409" on="0"/>
        <pt x="195" y="617" on="0"/>
        <pt x="339" y="762" on="0"/>
        <pt x="404" y="762" on="1"/>
        <pt x="432" y="762" on="0"/>
        <pt x="455" y="743" on="0"/>
        <pt x="455" y="718" on="1"/>
        <pt x="455" y="714" on="0"/>
        <pt x="456" y="713" on="1"/>
        <pt x="385" y="702" on="0"/>
      </contour>
      <contour>
        <pt x="417" y="263" on="1"/>
        <pt x="368" y="263" on="0"/>
        <pt x="273" y="348" on="0"/>
        <pt x="273" y="509" on="0"/>
        <pt x="375" y="652" on="0"/>
        <pt x="439" y="652" on="1"/>
        <pt x="489" y="652" on="0"/>
        <pt x="542" y="566" on="0"/>
        <pt x="542" y="507" on="1"/>
        <pt x="542" y="399" on="0"/>
        <pt x="480" y="273" on="1"/>
        <pt x="448" y="263" on="0"/>
      </contour>
      <contour>
        <pt x="503" y="724" on="0"/>
        <pt x="531" y="767" on="0"/>
        <pt x="531" y="808" on="0"/>
        <pt x="494" y="840" on="0"/>
        <pt x="474" y="840" on="1"/>
        <pt x="422" y="840" on="0"/>
        <pt x="294" y="768" on="0"/>
        <pt x="169" y="637" on="0"/>
        <pt x="65" y="474" on="0"/>
        <pt x="0" y="274" on="0"/>
        <pt x="0" y="76" on="0"/>
        <pt x="90" y="-54" on="0"/>
        <pt x="260" y="-54" on="0"/>
        <pt x="432" y="102" on="0"/>
        <pt x="496" y="225" on="1"/>
        <pt x="543" y="258" on="0"/>
        <pt x="613" y="338" on="0"/>
        <pt x="614" y="354" on="1"/>
        <pt x="614" y="359" on="0"/>
        <pt x="606" y="368" on="0"/>
        <pt x="600" y="368" on="0"/>
        <pt x="596" y="364" on="0"/>
        <pt x="584" y="349" on="0"/>
        <pt x="576" y="340" on="1"/>
        <pt x="556" y="317" on="0"/>
        <pt x="529" y="298" on="1"/>
        <pt x="591" y="447" on="0"/>
        <pt x="591" y="575" on="1"/>
        <pt x="591" y="632" on="0"/>
        <pt x="535" y="715" on="0"/>
        <pt x="484" y="715" on="1"/>
      </contour>
    </TTGlyph>
    <TTGlyph name="Odieresis" xMin="0" yMin="-54" xMax="614" yMax="978">
      <contour>
        <pt x="234" y="894" on="0"/>
        <pt x="234" y="944" on="0"/>
        <pt x="265" y="978" on="0"/>
        <pt x="311" y="978" on="0"/>
        <pt x="342" y="944" on="0"/>
        <pt x="342" y="894" on="0"/>
        <pt x="311" y="860" on="0"/>
        <pt x="265" y="860" on="0"/>
      </contour>
      <contour>
        <pt x="374" y="894" on="0"/>
        <pt x="374" y="944" on="0"/>
        <pt x="405" y="978" on="0"/>
        <pt x="451" y="978" on="0"/>
        <pt x="482" y="944" on="0"/>
        <pt x="482" y="894" on="0"/>
        <pt x="451" y="860" on="0"/>
        <pt x="405" y="860" on="0"/>
      </contour>
      <contour>
        <pt x="280" y="172" on="0"/>
        <pt x="196" y="281" on="0"/>
        <pt x="196" y="410" on="0"/>
        <pt x="261" y="571" on="0"/>
        <pt x="385" y="702" on="0"/>
        <pt x="456" y="713" on="1"/>
        <pt x="455" y="714" on="0"/>
        <pt x="455" y="718" on="1"/>
        <pt x="455" y="743" on="0"/>
        <pt x="432" y="762" on="0"/>
        <pt x="404" y="762" on="1"/>
        <pt x="339" y="762" on="0"/>
        <pt x="195" y="617" on="0"/>
        <pt x="100" y="409" on="0"/>
        <pt x="100" y="321" on="1"/>
        <pt x="100" y="242" on="0"/>
        <pt x="134" y="172" on="1"/>
        <pt x="151" y="136" on="0"/>
        <pt x="221" y="92" on="0"/>
        <pt x="269" y="92" on="1"/>
        <pt x="355" y="92" on="0"/>
        <pt x="428" y="189" on="1"/>
        <pt x="388" y="172" on="0"/>
        <pt x="349" y="172" on="1"/>
      </contour>
      <contour>
        <pt x="417" y="263" on="1"/>
        <pt x="448" y="263" on="0"/>
        <pt x="480" y="273" on="1"/>
        <pt x="542" y="399" on="0"/>
        <pt x="542" y="507" on="1"/>
        <pt x="542" y="566" on="0"/>
        <pt x="489" y="652" on="0"/>
        <pt x="439" y="652" on="1"/>
        <pt x="375" y="652" on="0"/>
        <pt x="273" y="509" on="0"/>
        <pt x="273" y="348" on="0"/>
        <pt x="368" y="263" on="0"/>
      </contour>
      <contour>
        <pt x="494" y="840" on="0"/>
        <pt x="531" y="808" on="0"/>
        <pt x="531" y="767" on="0"/>
        <pt x="503" y="724" on="0"/>
        <pt x="484" y="715" on="1"/>
        <pt x="535" y="715" on="0"/>
        <pt x="591" y="632" on="0"/>
        <pt x="591" y="575" on="1"/>
        <pt x="591" y="447" on="0"/>
        <pt x="529" y="298" on="1"/>
        <pt x="562" y="322" on="0"/>
        <pt x="590" y="356" on="1"/>
        <pt x="599" y="368" on="0"/>
        <pt x="606" y="368" on="0"/>
        <pt x="614" y="359" on="0"/>
        <pt x="614" y="354" on="1"/>
        <pt x="613" y="338" on="0"/>
        <pt x="543" y="258" on="0"/>
        <pt x="496" y="225" on="1"/>
        <pt x="432" y="102" on="0"/>
        <pt x="260" y="-54" on="0"/>
        <pt x="90" y="-54" on="0"/>
        <pt x="0" y="76" on="0"/>
        <pt x="0" y="274" on="0"/>
        <pt x="65" y="474" on="0"/>
        <pt x="169" y="637" on="0"/>
        <pt x="294" y="768" on="0"/>
        <pt x="422" y="840" on="0"/>
        <pt x="474" y="840" on="1"/>
      </contour>
    </TTGlyph>
    <TTGlyph name="Ograve" xMin="0" yMin="-54" xMax="614" yMax="987">
      <contour>
        <pt x="300" y="950" on="1"/>
        <pt x="300" y="963" on="0"/>
        <pt x="319" y="987" on="0"/>
        <pt x="359" y="987" on="0"/>
        <pt x="381" y="968" on="0"/>
        <pt x="390" y="943" on="0"/>
        <pt x="428" y="911" on="0"/>
        <pt x="489" y="892" on="0"/>
        <pt x="489" y="877" on="1"/>
        <pt x="489" y="865" on="0"/>
        <pt x="460" y="865" on="0"/>
        <pt x="421" y="869" on="0"/>
        <pt x="348" y="882" on="0"/>
        <pt x="300" y="921" on="0"/>
      </contour>
      <contour>
        <pt x="261" y="571" on="0"/>
        <pt x="196" y="410" on="0"/>
        <pt x="196" y="281" on="0"/>
        <pt x="280" y="172" on="0"/>
        <pt x="349" y="172" on="1"/>
        <pt x="388" y="172" on="0"/>
        <pt x="428" y="189" on="1"/>
        <pt x="355" y="92" on="0"/>
        <pt x="269" y="92" on="1"/>
        <pt x="221" y="92" on="0"/>
        <pt x="151" y="136" on="0"/>
        <pt x="134" y="172" on="1"/>
        <pt x="100" y="242" on="0"/>
        <pt x="100" y="409" on="0"/>
        <pt x="195" y="617" on="0"/>
        <pt x="339" y="762" on="0"/>
        <pt x="404" y="762" on="1"/>
        <pt x="432" y="762" on="0"/>
        <pt x="455" y="743" on="0"/>
        <pt x="455" y="718" on="1"/>
        <pt x="455" y="714" on="0"/>
        <pt x="456" y="713" on="1"/>
        <pt x="385" y="702" on="0"/>
      </contour>
      <contour>
        <pt x="417" y="263" on="1"/>
        <pt x="368" y="263" on="0"/>
        <pt x="273" y="348" on="0"/>
        <pt x="273" y="509" on="0"/>
        <pt x="375" y="652" on="0"/>
        <pt x="439" y="652" on="1"/>
        <pt x="489" y="652" on="0"/>
        <pt x="542" y="566" on="0"/>
        <pt x="542" y="507" on="1"/>
        <pt x="542" y="399" on="0"/>
        <pt x="480" y="273" on="1"/>
        <pt x="448" y="263" on="0"/>
      </contour>
      <contour>
        <pt x="503" y="724" on="0"/>
        <pt x="531" y="767" on="0"/>
        <pt x="531" y="808" on="0"/>
        <pt x="494" y="840" on="0"/>
        <pt x="474" y="840" on="1"/>
        <pt x="422" y="840" on="0"/>
        <pt x="294" y="768" on="0"/>
        <pt x="169" y="637" on="0"/>
        <pt x="65" y="474" on="0"/>
        <pt x="0" y="274" on="0"/>
        <pt x="0" y="76" on="0"/>
        <pt x="90" y="-54" on="0"/>
        <pt x="260" y="-54" on="0"/>
        <pt x="432" y="102" on="0"/>
        <pt x="496" y="225" on="1"/>
        <pt x="543" y="258" on="0"/>
        <pt x="613" y="338" on="0"/>
        <pt x="614" y="354" on="1"/>
        <pt x="614" y="359" on="0"/>
        <pt x="606" y="368" on="0"/>
        <pt x="600" y="368" on="0"/>
        <pt x="596" y="364" on="0"/>
        <pt x="584" y="349" on="0"/>
        <pt x="576" y="340" on="1"/>
        <pt x="556" y="317" on="0"/>
        <pt x="529" y="298" on="1"/>
        <pt x="591" y="447" on="0"/>
        <pt x="591" y="575" on="1"/>
        <pt x="591" y="632" on="0"/>
        <pt x="535" y="715" on="0"/>
        <pt x="484" y="715" on="1"/>
      </contour>
    </TTGlyph>
    <TTGlyph name="Oslash" xMin="0" yMin="-150" xMax="614" yMax="908">
      <contour>
        <pt x="428" y="189" on="1"/>
        <pt x="388" y="172" on="0"/>
        <pt x="311" y="172" on="0"/>
        <pt x="282" y="189" on="1"/>
        <pt x="256" y="123" on="0"/>
        <pt x="245" y="93" on="1"/>
        <pt x="252" y="92" on="0"/>
        <pt x="269" y="92" on="1"/>
        <pt x="355" y="92" on="0"/>
      </contour>
      <contour>
        <pt x="273" y="428" on="1"/>
        <pt x="273" y="378" on="0"/>
        <pt x="294" y="339" on="1"/>
        <pt x="361" y="510" on="0"/>
        <pt x="418" y="650" on="1"/>
        <pt x="360" y="637" on="0"/>
        <pt x="273" y="501" on="0"/>
      </contour>
      <contour>
        <pt x="417" y="263" on="1"/>
        <pt x="448" y="263" on="0"/>
        <pt x="480" y="273" on="1"/>
        <pt x="542" y="399" on="0"/>
        <pt x="542" y="507" on="1"/>
        <pt x="542" y="557" on="0"/>
        <pt x="503" y="637" on="0"/>
        <pt x="465" y="648" on="1"/>
        <pt x="390" y="460" on="1"/>
        <pt x="339" y="333" on="0"/>
        <pt x="326" y="300" on="1"/>
        <pt x="369" y="263" on="0"/>
      </contour>
      <contour>
        <pt x="246" y="217" on="1"/>
        <pt x="196" y="270" on="0"/>
        <pt x="196" y="408" on="0"/>
        <pt x="258" y="563" on="0"/>
        <pt x="375" y="694" on="0"/>
        <pt x="443" y="710" on="1"/>
        <pt x="447" y="718" on="0"/>
        <pt x="453" y="734" on="1"/>
        <pt x="448" y="762" on="0"/>
        <pt x="404" y="762" on="1"/>
        <pt x="339" y="762" on="0"/>
        <pt x="195" y="617" on="0"/>
        <pt x="100" y="409" on="0"/>
        <pt x="100" y="254" on="0"/>
        <pt x="147" y="131" on="0"/>
        <pt x="201" y="106" on="1"/>
        <pt x="222" y="158" on="0"/>
      </contour>
      <contour>
        <pt x="98" y="-139" on="1"/>
        <pt x="136" y="-50" on="1"/>
        <pt x="71" y="-36" on="0"/>
        <pt x="0" y="88" on="0"/>
        <pt x="0" y="274" on="0"/>
        <pt x="65" y="474" on="0"/>
        <pt x="169" y="637" on="0"/>
        <pt x="294" y="768" on="0"/>
        <pt x="422" y="840" on="0"/>
        <pt x="474" y="840" on="1"/>
        <pt x="483" y="840" on="0"/>
        <pt x="496" y="835" on="1"/>
        <pt x="511" y="870" on="0"/>
        <pt x="523" y="895" on="1"/>
        <pt x="530" y="908" on="0"/>
        <pt x="546" y="908" on="0"/>
        <pt x="570" y="903" on="0"/>
        <pt x="570" y="900" on="1"/>
        <pt x="570" y="891" on="0"/>
        <pt x="560" y="872" on="0"/>
        <pt x="528" y="800" on="1"/>
        <pt x="531" y="792" on="0"/>
        <pt x="531" y="769" on="0"/>
        <pt x="510" y="734" on="0"/>
        <pt x="495" y="722" on="1"/>
        <pt x="494" y="720" on="0"/>
        <pt x="492" y="714" on="1"/>
        <pt x="539" y="710" on="0"/>
        <pt x="591" y="629" on="0"/>
        <pt x="591" y="575" on="1"/>
        <pt x="591" y="447" on="0"/>
        <pt x="529" y="298" on="1"/>
        <pt x="562" y="322" on="0"/>
        <pt x="590" y="356" on="1"/>
        <pt x="599" y="368" on="0"/>
        <pt x="606" y="368" on="0"/>
        <pt x="614" y="359" on="0"/>
        <pt x="614" y="354" on="1"/>
        <pt x="613" y="338" on="0"/>
        <pt x="543" y="258" on="0"/>
        <pt x="496" y="225" on="1"/>
        <pt x="435" y="107" on="0"/>
        <pt x="271" y="-47" on="0"/>
        <pt x="186" y="-53" on="1"/>
        <pt x="172" y="-87" on="0"/>
        <pt x="156" y="-127" on="1"/>
        <pt x="146" y="-150" on="0"/>
        <pt x="120" y="-150" on="1"/>
        <pt x="115" y="-150" on="0"/>
        <pt x="98" y="-144" on="0"/>
      </contour>
    </TTGlyph>
    <TTGlyph name="Otilde" xMin="0" yMin="-54" xMax="614" yMax="943">
      <contour>
        <pt x="266" y="906" on="0"/>
        <pt x="327" y="943" on="0"/>
        <pt x="382" y="943" on="0"/>
        <pt x="442" y="916" on="0"/>
        <pt x="475" y="916" on="0"/>
        <pt x="484" y="918" on="1"/>
        <pt x="494" y="918" on="0"/>
        <pt x="495" y="910" on="1"/>
        <pt x="495" y="894" on="0"/>
        <pt x="433" y="858" on="0"/>
        <pt x="379" y="858" on="0"/>
        <pt x="321" y="884" on="0"/>
        <pt x="286" y="884" on="0"/>
        <pt x="277" y="882" on="1"/>
        <pt x="267" y="882" on="0"/>
        <pt x="266" y="890" on="1"/>
      </contour>
      <contour>
        <pt x="280" y="172" on="0"/>
        <pt x="196" y="281" on="0"/>
        <pt x="196" y="410" on="0"/>
        <pt x="261" y="571" on="0"/>
        <pt x="385" y="702" on="0"/>
        <pt x="456" y="713" on="1"/>
        <pt x="455" y="714" on="0"/>
        <pt x="455" y="718" on="1"/>
        <pt x="455" y="743" on="0"/>
        <pt x="432" y="762" on="0"/>
        <pt x="404" y="762" on="1"/>
        <pt x="339" y="762" on="0"/>
        <pt x="195" y="617" on="0"/>
        <pt x="100" y="409" on="0"/>
        <pt x="100" y="321" on="1"/>
        <pt x="100" y="242" on="0"/>
        <pt x="134" y="172" on="1"/>
        <pt x="151" y="136" on="0"/>
        <pt x="221" y="92" on="0"/>
        <pt x="269" y="92" on="1"/>
        <pt x="355" y="92" on="0"/>
        <pt x="428" y="189" on="1"/>
        <pt x="388" y="172" on="0"/>
        <pt x="349" y="172" on="1"/>
      </contour>
      <contour>
        <pt x="417" y="263" on="1"/>
        <pt x="448" y="263" on="0"/>
        <pt x="480" y="273" on="1"/>
        <pt x="542" y="399" on="0"/>
        <pt x="542" y="507" on="1"/>
        <pt x="542" y="566" on="0"/>
        <pt x="489" y="652" on="0"/>
        <pt x="439" y="652" on="1"/>
        <pt x="375" y="652" on="0"/>
        <pt x="273" y="509" on="0"/>
        <pt x="273" y="348" on="0"/>
        <pt x="368" y="263" on="0"/>
      </contour>
      <contour>
        <pt x="494" y="840" on="0"/>
        <pt x="531" y="808" on="0"/>
        <pt x="531" y="767" on="0"/>
        <pt x="503" y="724" on="0"/>
        <pt x="484" y="715" on="1"/>
        <pt x="535" y="715" on="0"/>
        <pt x="591" y="632" on="0"/>
        <pt x="591" y="575" on="1"/>
        <pt x="591" y="447" on="0"/>
        <pt x="529" y="298" on="1"/>
        <pt x="562" y="322" on="0"/>
        <pt x="590" y="356" on="1"/>
        <pt x="599" y="368" on="0"/>
        <pt x="606" y="368" on="0"/>
        <pt x="614" y="359" on="0"/>
        <pt x="614" y="354" on="1"/>
        <pt x="613" y="338" on="0"/>
        <pt x="543" y="258" on="0"/>
        <pt x="496" y="225" on="1"/>
        <pt x="432" y="102" on="0"/>
        <pt x="260" y="-54" on="0"/>
        <pt x="90" y="-54" on="0"/>
        <pt x="0" y="76" on="0"/>
        <pt x="0" y="274" on="0"/>
        <pt x="65" y="474" on="0"/>
        <pt x="169" y="637" on="0"/>
        <pt x="294" y="768" on="0"/>
        <pt x="422" y="840" on="0"/>
        <pt x="474" y="840" on="1"/>
      </contour>
    </TTGlyph>
    <TTGlyph name="P" xMin="3" yMin="-60" xMax="626" yMax="855">
      <contour>
        <pt x="366" y="582" on="1"/>
        <pt x="366" y="408" on="0"/>
        <pt x="379" y="281" on="1"/>
        <pt x="379" y="272" on="0"/>
        <pt x="405" y="45" on="0"/>
        <pt x="405" y="-11" on="0"/>
        <pt x="374" y="-60" on="0"/>
        <pt x="345" y="-60" on="1"/>
        <pt x="273" y="-60" on="0"/>
        <pt x="112" y="81" on="0"/>
        <pt x="3" y="298" on="0"/>
        <pt x="3" y="397" on="1"/>
        <pt x="3" y="525" on="0"/>
        <pt x="93" y="729" on="0"/>
        <pt x="281" y="855" on="0"/>
        <pt x="411" y="855" on="1"/>
        <pt x="536" y="855" on="0"/>
        <pt x="596" y="745" on="1"/>
        <pt x="626" y="691" on="0"/>
        <pt x="626" y="578" on="0"/>
        <pt x="601" y="472" on="0"/>
        <pt x="559" y="395" on="0"/>
        <pt x="516" y="333" on="0"/>
        <pt x="492" y="311" on="1"/>
        <pt x="451" y="274" on="0"/>
        <pt x="426" y="260" on="0"/>
        <pt x="419" y="260" on="1"/>
        <pt x="402" y="260" on="0"/>
        <pt x="402" y="281" on="1"/>
        <pt x="402" y="292" on="0"/>
        <pt x="417" y="299" on="1"/>
        <pt x="536" y="383" on="0"/>
        <pt x="536" y="512" on="1"/>
        <pt x="536" y="578" on="0"/>
        <pt x="494" y="676" on="0"/>
        <pt x="446" y="731" on="0"/>
        <pt x="365" y="768" on="0"/>
        <pt x="314" y="768" on="1"/>
        <pt x="194" y="768" on="0"/>
        <pt x="57" y="595" on="0"/>
        <pt x="57" y="470" on="1"/>
        <pt x="57" y="381" on="0"/>
        <pt x="147" y="195" on="0"/>
        <pt x="280" y="76" on="0"/>
        <pt x="341" y="76" on="1"/>
        <pt x="354" y="76" on="0"/>
        <pt x="357" y="103" on="1"/>
        <pt x="356" y="123" on="0"/>
        <pt x="346" y="188" on="1"/>
        <pt x="323" y="349" on="0"/>
        <pt x="323" y="561" on="1"/>
        <pt x="323" y="581" on="0"/>
        <pt x="342" y="609" on="0"/>
        <pt x="360" y="609" on="1"/>
        <pt x="366" y="609" on="0"/>
      </contour>
    </TTGlyph>
    <TTGlyph name="Q" xMin="1" yMin="-96" xMax="624" yMax="852">
      <contour>
        <pt x="310" y="384" on="1"/>
        <pt x="326" y="367" on="0"/>
        <pt x="359" y="348" on="1"/>
        <pt x="399" y="326" on="0"/>
        <pt x="471" y="298" on="1"/>
        <pt x="517" y="401" on="0"/>
        <pt x="517" y="484" on="1"/>
        <pt x="517" y="650" on="0"/>
        <pt x="407" y="650" on="1"/>
        <pt x="350" y="650" on="0"/>
        <pt x="268" y="546" on="0"/>
        <pt x="268" y="429" on="0"/>
      </contour>
      <contour>
        <pt x="516" y="778" on="0"/>
        <pt x="474" y="727" on="0"/>
        <pt x="453" y="727" on="0"/>
        <pt x="443" y="741" on="0"/>
        <pt x="435" y="757" on="0"/>
        <pt x="410" y="771" on="0"/>
        <pt x="390" y="771" on="1"/>
        <pt x="323" y="771" on="0"/>
        <pt x="188" y="629" on="0"/>
        <pt x="104" y="420" on="0"/>
        <pt x="104" y="325" on="1"/>
        <pt x="104" y="206" on="0"/>
        <pt x="162" y="138" on="1"/>
        <pt x="195" y="101" on="0"/>
        <pt x="241" y="101" on="1"/>
        <pt x="323" y="101" on="0"/>
        <pt x="394" y="179" on="1"/>
        <pt x="385" y="184" on="0"/>
        <pt x="335" y="210" on="0"/>
        <pt x="312" y="222" on="0"/>
        <pt x="269" y="249" on="0"/>
        <pt x="248" y="267" on="0"/>
        <pt x="218" y="297" on="0"/>
        <pt x="211" y="311" on="1"/>
        <pt x="193" y="347" on="0"/>
        <pt x="193" y="382" on="1"/>
        <pt x="193" y="518" on="0"/>
        <pt x="371" y="714" on="0"/>
        <pt x="465" y="714" on="1"/>
        <pt x="522" y="714" on="0"/>
        <pt x="574" y="627" on="0"/>
        <pt x="574" y="575" on="1"/>
        <pt x="574" y="442" on="0"/>
        <pt x="504" y="282" on="1"/>
        <pt x="561" y="253" on="0"/>
        <pt x="624" y="182" on="0"/>
        <pt x="624" y="81" on="0"/>
        <pt x="561" y="-27" on="0"/>
        <pt x="483" y="-96" on="0"/>
        <pt x="446" y="-96" on="0"/>
        <pt x="446" y="-83" on="1"/>
        <pt x="446" y="-75" on="0"/>
        <pt x="453" y="-69" on="1"/>
        <pt x="515" y="-21" on="0"/>
        <pt x="515" y="105" on="0"/>
        <pt x="437" y="154" on="1"/>
        <pt x="378" y="62" on="0"/>
        <pt x="234" y="-48" on="0"/>
        <pt x="156" y="-48" on="1"/>
        <pt x="105" y="-48" on="0"/>
        <pt x="68" y="-10" on="1"/>
        <pt x="1" y="59" on="0"/>
        <pt x="1" y="198" on="1"/>
        <pt x="1" y="283" on="0"/>
        <pt x="78" y="508" on="0"/>
        <pt x="200" y="711" on="0"/>
        <pt x="373" y="852" on="0"/>
        <pt x="458" y="852" on="1"/>
        <pt x="519" y="852" on="0"/>
        <pt x="519" y="806" on="1"/>
      </contour>
    </TTGlyph>
    <TTGlyph name="R" xMin="16" yMin="-51" xMax="683" yMax="875">
      <contour>
        <pt x="196" y="173" on="1"/>
        <pt x="195" y="299" on="1"/>
        <pt x="195" y="431" on="0"/>
        <pt x="207" y="565" on="0"/>
        <pt x="207" y="569" on="1"/>
        <pt x="218" y="604" on="0"/>
        <pt x="249" y="604" on="1"/>
        <pt x="256" y="604" on="0"/>
        <pt x="256" y="596" on="1"/>
        <pt x="256" y="595" on="0"/>
        <pt x="254" y="580" on="1"/>
        <pt x="236" y="440" on="0"/>
        <pt x="236" y="210" on="1"/>
        <pt x="236" y="182" on="0"/>
        <pt x="252" y="-18" on="0"/>
        <pt x="250" y="-51" on="0"/>
        <pt x="235" y="-51" on="1"/>
        <pt x="203" y="-48" on="0"/>
        <pt x="126" y="46" on="0"/>
        <pt x="60" y="190" on="0"/>
        <pt x="16" y="382" on="0"/>
        <pt x="16" y="474" on="1"/>
        <pt x="16" y="566" on="0"/>
        <pt x="54" y="666" on="1"/>
        <pt x="76" y="722" on="0"/>
        <pt x="137" y="814" on="0"/>
        <pt x="237" y="875" on="0"/>
        <pt x="297" y="875" on="1"/>
        <pt x="408" y="875" on="0"/>
        <pt x="547" y="682" on="0"/>
        <pt x="547" y="559" on="1"/>
        <pt x="547" y="415" on="0"/>
        <pt x="454" y="342" on="1"/>
        <pt x="404" y="302" on="0"/>
        <pt x="333" y="294" on="1"/>
        <pt x="326" y="292" on="0"/>
        <pt x="326" y="286" on="1"/>
        <pt x="326" y="266" on="0"/>
        <pt x="401" y="161" on="0"/>
        <pt x="528" y="58" on="0"/>
        <pt x="585" y="53" on="1"/>
        <pt x="622" y="53" on="0"/>
        <pt x="649" y="82" on="1"/>
        <pt x="659" y="94" on="0"/>
        <pt x="665" y="94" on="1"/>
        <pt x="683" y="83" on="0"/>
        <pt x="683" y="71" on="1"/>
        <pt x="683" y="58" on="0"/>
        <pt x="633" y="5" on="0"/>
        <pt x="610" y="-12" on="1"/>
        <pt x="557" y="-51" on="0"/>
        <pt x="424" y="-51" on="0"/>
        <pt x="329" y="29" on="0"/>
        <pt x="304" y="94" on="1"/>
        <pt x="255" y="221" on="0"/>
        <pt x="255" y="362" on="1"/>
        <pt x="255" y="377" on="0"/>
        <pt x="266" y="377" on="1"/>
        <pt x="270" y="376" on="0"/>
        <pt x="280" y="368" on="1"/>
        <pt x="309" y="345" on="0"/>
        <pt x="348" y="341" on="1"/>
        <pt x="393" y="341" on="0"/>
        <pt x="440" y="418" on="0"/>
        <pt x="440" y="545" on="0"/>
        <pt x="394" y="678" on="0"/>
        <pt x="290" y="778" on="0"/>
        <pt x="222" y="778" on="1"/>
        <pt x="169" y="778" on="0"/>
        <pt x="62" y="620" on="0"/>
        <pt x="62" y="510" on="1"/>
        <pt x="62" y="426" on="0"/>
        <pt x="128" y="221" on="0"/>
        <pt x="191" y="140" on="1"/>
        <pt x="192" y="140" on="1"/>
        <pt x="195" y="140" on="0"/>
        <pt x="195" y="148" on="1"/>
      </contour>
    </TTGlyph>
    <TTGlyph name="S" xMin="0" yMin="-77" xMax="691" yMax="772">
      <contour>
        <pt x="595" y="613" on="1"/>
        <pt x="588" y="613" on="0"/>
        <pt x="579" y="622" on="0"/>
        <pt x="579" y="632" on="0"/>
        <pt x="589" y="650" on="0"/>
        <pt x="589" y="658" on="1"/>
        <pt x="589" y="681" on="0"/>
        <pt x="542" y="702" on="0"/>
        <pt x="517" y="702" on="1"/>
        <pt x="443" y="702" on="0"/>
        <pt x="282" y="602" on="0"/>
        <pt x="268" y="532" on="1"/>
        <pt x="273" y="490" on="0"/>
        <pt x="346" y="417" on="0"/>
        <pt x="442" y="364" on="0"/>
        <pt x="536" y="310" on="0"/>
        <pt x="600" y="236" on="0"/>
        <pt x="600" y="159" on="0"/>
        <pt x="544" y="86" on="0"/>
        <pt x="489" y="36" on="0"/>
        <pt x="489" y="33" on="0"/>
        <pt x="492" y="33" on="1"/>
        <pt x="553" y="33" on="0"/>
        <pt x="659" y="100" on="1"/>
        <pt x="669" y="107" on="1"/>
        <pt x="676" y="111" on="0"/>
        <pt x="683" y="111" on="0"/>
        <pt x="691" y="99" on="0"/>
        <pt x="691" y="85" on="0"/>
        <pt x="678" y="78" on="1"/>
        <pt x="620" y="23" on="0"/>
        <pt x="303" y="-77" on="0"/>
        <pt x="175" y="-77" on="1"/>
        <pt x="0" y="-77" on="0"/>
        <pt x="0" y="25" on="1"/>
        <pt x="0" y="40" on="0"/>
        <pt x="30" y="68" on="1"/>
        <pt x="76" y="110" on="0"/>
        <pt x="96" y="110" on="0"/>
        <pt x="178" y="60" on="0"/>
        <pt x="302" y="10" on="0"/>
        <pt x="424" y="10" on="0"/>
        <pt x="489" y="86" on="0"/>
        <pt x="489" y="166" on="0"/>
        <pt x="421" y="230" on="0"/>
        <pt x="324" y="279" on="0"/>
        <pt x="226" y="331" on="0"/>
        <pt x="158" y="405" on="0"/>
        <pt x="158" y="449" on="1"/>
        <pt x="158" y="520" on="0"/>
        <pt x="316" y="676" on="0"/>
        <pt x="520" y="772" on="0"/>
        <pt x="592" y="772" on="1"/>
        <pt x="682" y="772" on="0"/>
        <pt x="682" y="712" on="1"/>
        <pt x="682" y="676" on="0"/>
        <pt x="617" y="613" on="0"/>
      </contour>
    </TTGlyph>
    <TTGlyph name="Scaron" xMin="0" yMin="-77" xMax="691" yMax="895">
      <contour>
        <pt x="334" y="895" on="1"/>
        <pt x="364" y="895" on="0"/>
        <pt x="417" y="849" on="1"/>
        <pt x="470" y="895" on="0"/>
        <pt x="500" y="895" on="1"/>
        <pt x="549" y="895" on="0"/>
        <pt x="549" y="877" on="1"/>
        <pt x="549" y="866" on="0"/>
        <pt x="496" y="847" on="0"/>
        <pt x="464" y="818" on="0"/>
        <pt x="452" y="793" on="0"/>
        <pt x="432" y="775" on="0"/>
        <pt x="402" y="775" on="0"/>
        <pt x="382" y="793" on="0"/>
        <pt x="370" y="818" on="0"/>
        <pt x="338" y="847" on="0"/>
        <pt x="285" y="866" on="0"/>
        <pt x="285" y="877" on="1"/>
        <pt x="285" y="895" on="0"/>
      </contour>
      <contour>
        <pt x="595" y="613" on="1"/>
        <pt x="588" y="613" on="0"/>
        <pt x="579" y="622" on="0"/>
        <pt x="579" y="632" on="0"/>
        <pt x="589" y="650" on="0"/>
        <pt x="589" y="658" on="1"/>
        <pt x="589" y="681" on="0"/>
        <pt x="542" y="702" on="0"/>
        <pt x="517" y="702" on="1"/>
        <pt x="443" y="702" on="0"/>
        <pt x="282" y="602" on="0"/>
        <pt x="268" y="532" on="1"/>
        <pt x="273" y="490" on="0"/>
        <pt x="346" y="417" on="0"/>
        <pt x="442" y="364" on="0"/>
        <pt x="536" y="310" on="0"/>
        <pt x="600" y="236" on="0"/>
        <pt x="600" y="159" on="0"/>
        <pt x="544" y="86" on="0"/>
        <pt x="489" y="36" on="0"/>
        <pt x="489" y="33" on="0"/>
        <pt x="492" y="33" on="1"/>
        <pt x="553" y="33" on="0"/>
        <pt x="659" y="100" on="1"/>
        <pt x="669" y="107" on="1"/>
        <pt x="676" y="111" on="0"/>
        <pt x="683" y="111" on="0"/>
        <pt x="691" y="99" on="0"/>
        <pt x="691" y="85" on="0"/>
        <pt x="678" y="78" on="1"/>
        <pt x="620" y="23" on="0"/>
        <pt x="303" y="-77" on="0"/>
        <pt x="175" y="-77" on="1"/>
        <pt x="0" y="-77" on="0"/>
        <pt x="0" y="25" on="1"/>
        <pt x="0" y="40" on="0"/>
        <pt x="30" y="68" on="1"/>
        <pt x="76" y="110" on="0"/>
        <pt x="96" y="110" on="0"/>
        <pt x="178" y="60" on="0"/>
        <pt x="302" y="10" on="0"/>
        <pt x="424" y="10" on="0"/>
        <pt x="489" y="86" on="0"/>
        <pt x="489" y="166" on="0"/>
        <pt x="421" y="230" on="0"/>
        <pt x="324" y="279" on="0"/>
        <pt x="226" y="331" on="0"/>
        <pt x="158" y="405" on="0"/>
        <pt x="158" y="449" on="1"/>
        <pt x="158" y="520" on="0"/>
        <pt x="316" y="676" on="0"/>
        <pt x="520" y="772" on="0"/>
        <pt x="592" y="772" on="1"/>
        <pt x="682" y="772" on="0"/>
        <pt x="682" y="712" on="1"/>
        <pt x="682" y="676" on="0"/>
        <pt x="617" y="613" on="0"/>
      </contour>
    </TTGlyph>
    <TTGlyph name="T" xMin="0" yMin="-58" xMax="670" yMax="801">
      <contour>
        <pt x="472" y="43" on="1"/>
        <pt x="454" y="40" on="1"/>
        <pt x="398" y="40" on="0"/>
        <pt x="329" y="203" on="0"/>
        <pt x="329" y="456" on="0"/>
        <pt x="357" y="597" on="1"/>
        <pt x="357" y="605" on="0"/>
        <pt x="347" y="605" on="1"/>
        <pt x="322" y="603" on="0"/>
        <pt x="308" y="576" on="0"/>
        <pt x="276" y="466" on="0"/>
        <pt x="239" y="266" on="0"/>
        <pt x="239" y="62" on="0"/>
        <pt x="290" y="-58" on="0"/>
        <pt x="353" y="-58" on="1"/>
        <pt x="395" y="-58" on="0"/>
        <pt x="484" y="-3" on="0"/>
        <pt x="484" y="28" on="1"/>
        <pt x="484" y="43" on="0"/>
      </contour>
      <contour>
        <pt x="34" y="635" on="1"/>
        <pt x="144" y="694" on="0"/>
        <pt x="510" y="794" on="0"/>
        <pt x="648" y="801" on="1"/>
        <pt x="670" y="798" on="0"/>
        <pt x="670" y="759" on="0"/>
        <pt x="647" y="697" on="0"/>
        <pt x="629" y="696" on="1"/>
        <pt x="535" y="690" on="0"/>
        <pt x="106" y="578" on="0"/>
        <pt x="20" y="516" on="1"/>
        <pt x="14" y="513" on="0"/>
        <pt x="9" y="513" on="1"/>
        <pt x="0" y="513" on="0"/>
        <pt x="0" y="547" on="0"/>
        <pt x="27" y="631" on="0"/>
      </contour>
    </TTGlyph>
    <TTGlyph name="Thorn" xMin="3" yMin="-60" xMax="626" yMax="874">
      <contour>
        <pt x="357" y="103" on="1"/>
        <pt x="356" y="116" on="0"/>
        <pt x="348" y="216" on="1"/>
        <pt x="324" y="498" on="0"/>
        <pt x="317" y="674" on="1"/>
        <pt x="314" y="674" on="1"/>
        <pt x="192" y="674" on="0"/>
        <pt x="57" y="525" on="0"/>
        <pt x="57" y="273" on="0"/>
        <pt x="242" y="76" on="0"/>
        <pt x="341" y="76" on="1"/>
        <pt x="354" y="76" on="0"/>
      </contour>
      <contour>
        <pt x="436" y="166" on="0"/>
        <pt x="402" y="166" on="0"/>
        <pt x="402" y="187" on="1"/>
        <pt x="402" y="198" on="0"/>
        <pt x="417" y="205" on="1"/>
        <pt x="536" y="289" on="0"/>
        <pt x="536" y="418" on="1"/>
        <pt x="536" y="488" on="0"/>
        <pt x="501" y="562" on="1"/>
        <pt x="483" y="601" on="0"/>
        <pt x="410" y="659" on="0"/>
        <pt x="361" y="669" on="1"/>
        <pt x="377" y="299" on="0"/>
        <pt x="379" y="272" on="0"/>
        <pt x="405" y="45" on="0"/>
        <pt x="405" y="-11" on="0"/>
        <pt x="374" y="-60" on="0"/>
        <pt x="345" y="-60" on="1"/>
        <pt x="290" y="-60" on="0"/>
        <pt x="169" y="6" on="0"/>
        <pt x="69" y="111" on="0"/>
        <pt x="3" y="257" on="0"/>
        <pt x="3" y="331" on="1"/>
        <pt x="3" y="499" on="0"/>
        <pt x="163" y="724" on="0"/>
        <pt x="314" y="752" on="1"/>
        <pt x="314" y="826" on="1"/>
        <pt x="314" y="846" on="0"/>
        <pt x="333" y="874" on="0"/>
        <pt x="351" y="874" on="1"/>
        <pt x="357" y="874" on="0"/>
        <pt x="357" y="847" on="1"/>
        <pt x="357" y="758" on="1"/>
        <pt x="382" y="761" on="0"/>
        <pt x="457" y="761" on="0"/>
        <pt x="532" y="730" on="0"/>
        <pt x="580" y="681" on="0"/>
        <pt x="596" y="651" on="1"/>
        <pt x="626" y="597" on="0"/>
        <pt x="626" y="484" on="0"/>
        <pt x="601" y="378" on="0"/>
        <pt x="580" y="340" on="1"/>
        <pt x="534" y="256" on="0"/>
      </contour>
    </TTGlyph>
    <TTGlyph name="U" xMin="0" yMin="-57" xMax="744" yMax="750">
      <contour>
        <pt x="511" y="562" on="1"/>
        <pt x="510" y="566" on="0"/>
        <pt x="510" y="590" on="1"/>
        <pt x="508" y="648" on="0"/>
        <pt x="466" y="648" on="0"/>
        <pt x="446" y="549" on="0"/>
        <pt x="446" y="395" on="0"/>
        <pt x="464" y="316" on="1"/>
        <pt x="511" y="442" on="0"/>
      </contour>
      <contour>
        <pt x="176" y="725" on="1"/>
        <pt x="102" y="574" on="0"/>
        <pt x="102" y="371" on="1"/>
        <pt x="102" y="341" on="0"/>
        <pt x="112" y="245" on="0"/>
        <pt x="132" y="189" on="0"/>
        <pt x="147" y="162" on="1"/>
        <pt x="179" y="104" on="0"/>
        <pt x="322" y="104" on="0"/>
        <pt x="382" y="174" on="1"/>
        <pt x="371" y="234" on="0"/>
        <pt x="371" y="303" on="1"/>
        <pt x="383" y="494" on="0"/>
        <pt x="468" y="746" on="0"/>
        <pt x="522" y="746" on="1"/>
        <pt x="561" y="746" on="0"/>
        <pt x="561" y="644" on="1"/>
        <pt x="561" y="570" on="0"/>
        <pt x="516" y="368" on="0"/>
        <pt x="475" y="273" on="1"/>
        <pt x="502" y="176" on="0"/>
        <pt x="599" y="51" on="0"/>
        <pt x="668" y="51" on="1"/>
        <pt x="686" y="51" on="0"/>
        <pt x="718" y="76" on="0"/>
        <pt x="732" y="76" on="0"/>
        <pt x="744" y="60" on="0"/>
        <pt x="744" y="52" on="1"/>
        <pt x="744" y="24" on="0"/>
        <pt x="631" y="-57" on="0"/>
        <pt x="559" y="-57" on="1"/>
        <pt x="511" y="-57" on="0"/>
        <pt x="419" y="40" on="0"/>
        <pt x="394" y="126" on="1"/>
        <pt x="285" y="-29" on="0"/>
        <pt x="153" y="-29" on="1"/>
        <pt x="0" y="-29" on="0"/>
        <pt x="0" y="211" on="1"/>
        <pt x="0" y="341" on="0"/>
        <pt x="80" y="648" on="0"/>
        <pt x="131" y="729" on="1"/>
        <pt x="144" y="750" on="0"/>
        <pt x="170" y="750" on="1"/>
        <pt x="179" y="750" on="0"/>
        <pt x="179" y="740" on="1"/>
        <pt x="179" y="734" on="0"/>
      </contour>
    </TTGlyph>
    <TTGlyph name="Uacute" xMin="0" yMin="-57" xMax="744" yMax="898">
      <contour>
        <pt x="469" y="861" on="1"/>
        <pt x="469" y="832" on="0"/>
        <pt x="415" y="791" on="0"/>
        <pt x="377" y="782" on="1"/>
        <pt x="312" y="768" on="0"/>
        <pt x="279" y="768" on="1"/>
        <pt x="264" y="768" on="0"/>
        <pt x="264" y="780" on="1"/>
        <pt x="264" y="794" on="0"/>
        <pt x="290" y="803" on="1"/>
        <pt x="332" y="817" on="0"/>
        <pt x="378" y="854" on="0"/>
        <pt x="382" y="867" on="1"/>
        <pt x="393" y="898" on="0"/>
        <pt x="432" y="898" on="1"/>
        <pt x="450" y="898" on="0"/>
        <pt x="469" y="874" on="0"/>
      </contour>
      <contour>
        <pt x="511" y="562" on="1"/>
        <pt x="510" y="566" on="0"/>
        <pt x="510" y="590" on="1"/>
        <pt x="508" y="648" on="0"/>
        <pt x="466" y="648" on="0"/>
        <pt x="446" y="549" on="0"/>
        <pt x="446" y="395" on="0"/>
        <pt x="464" y="316" on="1"/>
        <pt x="511" y="442" on="0"/>
      </contour>
      <contour>
        <pt x="176" y="725" on="1"/>
        <pt x="102" y="574" on="0"/>
        <pt x="102" y="371" on="1"/>
        <pt x="102" y="341" on="0"/>
        <pt x="112" y="245" on="0"/>
        <pt x="132" y="189" on="0"/>
        <pt x="147" y="162" on="1"/>
        <pt x="179" y="104" on="0"/>
        <pt x="322" y="104" on="0"/>
        <pt x="382" y="174" on="1"/>
        <pt x="371" y="234" on="0"/>
        <pt x="371" y="303" on="1"/>
        <pt x="383" y="494" on="0"/>
        <pt x="468" y="746" on="0"/>
        <pt x="522" y="746" on="1"/>
        <pt x="561" y="746" on="0"/>
        <pt x="561" y="644" on="1"/>
        <pt x="561" y="570" on="0"/>
        <pt x="516" y="368" on="0"/>
        <pt x="475" y="273" on="1"/>
        <pt x="502" y="176" on="0"/>
        <pt x="599" y="51" on="0"/>
        <pt x="668" y="51" on="1"/>
        <pt x="686" y="51" on="0"/>
        <pt x="718" y="76" on="0"/>
        <pt x="732" y="76" on="0"/>
        <pt x="744" y="60" on="0"/>
        <pt x="744" y="52" on="1"/>
        <pt x="744" y="24" on="0"/>
        <pt x="631" y="-57" on="0"/>
        <pt x="559" y="-57" on="1"/>
        <pt x="511" y="-57" on="0"/>
        <pt x="419" y="40" on="0"/>
        <pt x="394" y="126" on="1"/>
        <pt x="285" y="-29" on="0"/>
        <pt x="153" y="-29" on="1"/>
        <pt x="0" y="-29" on="0"/>
        <pt x="0" y="211" on="1"/>
        <pt x="0" y="341" on="0"/>
        <pt x="80" y="648" on="0"/>
        <pt x="131" y="729" on="1"/>
        <pt x="144" y="750" on="0"/>
        <pt x="170" y="750" on="1"/>
        <pt x="179" y="750" on="0"/>
        <pt x="179" y="740" on="1"/>
        <pt x="179" y="734" on="0"/>
      </contour>
    </TTGlyph>
    <TTGlyph name="Ucircumflex" xMin="0" yMin="-57" xMax="744" yMax="892">
      <contour>
        <pt x="511" y="562" on="1"/>
        <pt x="510" y="566" on="0"/>
        <pt x="510" y="590" on="1"/>
        <pt x="508" y="648" on="0"/>
        <pt x="466" y="648" on="0"/>
        <pt x="446" y="549" on="0"/>
        <pt x="446" y="395" on="0"/>
        <pt x="464" y="316" on="1"/>
        <pt x="511" y="442" on="0"/>
      </contour>
      <contour>
        <pt x="347" y="808" on="1"/>
        <pt x="306" y="772" on="0"/>
        <pt x="215" y="772" on="0"/>
        <pt x="215" y="790" on="1"/>
        <pt x="215" y="801" on="0"/>
        <pt x="268" y="820" on="0"/>
        <pt x="300" y="849" on="0"/>
        <pt x="312" y="874" on="0"/>
        <pt x="332" y="892" on="0"/>
        <pt x="362" y="892" on="0"/>
        <pt x="382" y="874" on="0"/>
        <pt x="394" y="849" on="0"/>
        <pt x="426" y="820" on="0"/>
        <pt x="479" y="801" on="0"/>
        <pt x="479" y="790" on="1"/>
        <pt x="479" y="772" on="0"/>
        <pt x="388" y="772" on="0"/>
      </contour>
      <contour>
        <pt x="176" y="725" on="1"/>
        <pt x="102" y="574" on="0"/>
        <pt x="102" y="371" on="1"/>
        <pt x="102" y="341" on="0"/>
        <pt x="112" y="245" on="0"/>
        <pt x="132" y="189" on="0"/>
        <pt x="147" y="162" on="1"/>
        <pt x="179" y="104" on="0"/>
        <pt x="322" y="104" on="0"/>
        <pt x="382" y="174" on="1"/>
        <pt x="371" y="234" on="0"/>
        <pt x="371" y="303" on="1"/>
        <pt x="383" y="494" on="0"/>
        <pt x="468" y="746" on="0"/>
        <pt x="522" y="746" on="1"/>
        <pt x="561" y="746" on="0"/>
        <pt x="561" y="644" on="1"/>
        <pt x="561" y="570" on="0"/>
        <pt x="516" y="368" on="0"/>
        <pt x="475" y="273" on="1"/>
        <pt x="502" y="176" on="0"/>
        <pt x="599" y="51" on="0"/>
        <pt x="668" y="51" on="1"/>
        <pt x="686" y="51" on="0"/>
        <pt x="718" y="76" on="0"/>
        <pt x="732" y="76" on="0"/>
        <pt x="744" y="60" on="0"/>
        <pt x="744" y="52" on="1"/>
        <pt x="744" y="24" on="0"/>
        <pt x="631" y="-57" on="0"/>
        <pt x="559" y="-57" on="1"/>
        <pt x="511" y="-57" on="0"/>
        <pt x="419" y="40" on="0"/>
        <pt x="394" y="126" on="1"/>
        <pt x="285" y="-29" on="0"/>
        <pt x="153" y="-29" on="1"/>
        <pt x="0" y="-29" on="0"/>
        <pt x="0" y="211" on="1"/>
        <pt x="0" y="341" on="0"/>
        <pt x="80" y="648" on="0"/>
        <pt x="131" y="729" on="1"/>
        <pt x="144" y="750" on="0"/>
        <pt x="170" y="750" on="1"/>
        <pt x="179" y="750" on="0"/>
        <pt x="179" y="740" on="1"/>
        <pt x="179" y="734" on="0"/>
      </contour>
    </TTGlyph>
    <TTGlyph name="Udieresis" xMin="0" yMin="-57" xMax="744" yMax="902">
      <contour>
        <pt x="382" y="818" on="0"/>
        <pt x="382" y="868" on="0"/>
        <pt x="413" y="902" on="0"/>
        <pt x="459" y="902" on="0"/>
        <pt x="490" y="868" on="0"/>
        <pt x="490" y="818" on="0"/>
        <pt x="459" y="784" on="0"/>
        <pt x="413" y="784" on="0"/>
      </contour>
      <contour>
        <pt x="242" y="818" on="0"/>
        <pt x="242" y="868" on="0"/>
        <pt x="273" y="902" on="0"/>
        <pt x="319" y="902" on="0"/>
        <pt x="350" y="868" on="0"/>
        <pt x="350" y="818" on="0"/>
        <pt x="319" y="784" on="0"/>
        <pt x="273" y="784" on="0"/>
      </contour>
      <contour>
        <pt x="511" y="562" on="1"/>
        <pt x="510" y="566" on="0"/>
        <pt x="510" y="590" on="1"/>
        <pt x="508" y="648" on="0"/>
        <pt x="466" y="648" on="0"/>
        <pt x="446" y="549" on="0"/>
        <pt x="446" y="395" on="0"/>
        <pt x="464" y="316" on="1"/>
        <pt x="511" y="442" on="0"/>
      </contour>
      <contour>
        <pt x="176" y="725" on="1"/>
        <pt x="102" y="574" on="0"/>
        <pt x="102" y="371" on="1"/>
        <pt x="102" y="341" on="0"/>
        <pt x="112" y="245" on="0"/>
        <pt x="132" y="189" on="0"/>
        <pt x="147" y="162" on="1"/>
        <pt x="179" y="104" on="0"/>
        <pt x="322" y="104" on="0"/>
        <pt x="382" y="174" on="1"/>
        <pt x="371" y="234" on="0"/>
        <pt x="371" y="303" on="1"/>
        <pt x="383" y="494" on="0"/>
        <pt x="468" y="746" on="0"/>
        <pt x="522" y="746" on="1"/>
        <pt x="561" y="746" on="0"/>
        <pt x="561" y="644" on="1"/>
        <pt x="561" y="570" on="0"/>
        <pt x="516" y="368" on="0"/>
        <pt x="475" y="273" on="1"/>
        <pt x="502" y="176" on="0"/>
        <pt x="599" y="51" on="0"/>
        <pt x="668" y="51" on="1"/>
        <pt x="686" y="51" on="0"/>
        <pt x="718" y="76" on="0"/>
        <pt x="732" y="76" on="0"/>
        <pt x="744" y="60" on="0"/>
        <pt x="744" y="52" on="1"/>
        <pt x="744" y="24" on="0"/>
        <pt x="631" y="-57" on="0"/>
        <pt x="559" y="-57" on="1"/>
        <pt x="511" y="-57" on="0"/>
        <pt x="419" y="40" on="0"/>
        <pt x="394" y="126" on="1"/>
        <pt x="285" y="-29" on="0"/>
        <pt x="153" y="-29" on="1"/>
        <pt x="0" y="-29" on="0"/>
        <pt x="0" y="211" on="1"/>
        <pt x="0" y="341" on="0"/>
        <pt x="80" y="648" on="0"/>
        <pt x="131" y="729" on="1"/>
        <pt x="144" y="750" on="0"/>
        <pt x="170" y="750" on="1"/>
        <pt x="179" y="750" on="0"/>
        <pt x="179" y="740" on="1"/>
        <pt x="179" y="734" on="0"/>
      </contour>
    </TTGlyph>
    <TTGlyph name="Ugrave" xMin="0" yMin="-57" xMax="744" yMax="898">
      <contour>
        <pt x="237" y="861" on="1"/>
        <pt x="237" y="874" on="0"/>
        <pt x="256" y="898" on="0"/>
        <pt x="296" y="898" on="0"/>
        <pt x="318" y="879" on="0"/>
        <pt x="327" y="854" on="0"/>
        <pt x="365" y="822" on="0"/>
        <pt x="426" y="803" on="0"/>
        <pt x="426" y="788" on="1"/>
        <pt x="426" y="776" on="0"/>
        <pt x="397" y="776" on="0"/>
        <pt x="358" y="780" on="0"/>
        <pt x="285" y="793" on="0"/>
        <pt x="237" y="832" on="0"/>
      </contour>
      <contour>
        <pt x="511" y="562" on="1"/>
        <pt x="510" y="566" on="0"/>
        <pt x="510" y="590" on="1"/>
        <pt x="508" y="648" on="0"/>
        <pt x="466" y="648" on="0"/>
        <pt x="446" y="549" on="0"/>
        <pt x="446" y="395" on="0"/>
        <pt x="464" y="316" on="1"/>
        <pt x="511" y="442" on="0"/>
      </contour>
      <contour>
        <pt x="176" y="725" on="1"/>
        <pt x="102" y="574" on="0"/>
        <pt x="102" y="371" on="1"/>
        <pt x="102" y="341" on="0"/>
        <pt x="112" y="245" on="0"/>
        <pt x="132" y="189" on="0"/>
        <pt x="147" y="162" on="1"/>
        <pt x="179" y="104" on="0"/>
        <pt x="322" y="104" on="0"/>
        <pt x="382" y="174" on="1"/>
        <pt x="371" y="234" on="0"/>
        <pt x="371" y="303" on="1"/>
        <pt x="383" y="494" on="0"/>
        <pt x="468" y="746" on="0"/>
        <pt x="522" y="746" on="1"/>
        <pt x="561" y="746" on="0"/>
        <pt x="561" y="644" on="1"/>
        <pt x="561" y="570" on="0"/>
        <pt x="516" y="368" on="0"/>
        <pt x="475" y="273" on="1"/>
        <pt x="502" y="176" on="0"/>
        <pt x="599" y="51" on="0"/>
        <pt x="668" y="51" on="1"/>
        <pt x="686" y="51" on="0"/>
        <pt x="718" y="76" on="0"/>
        <pt x="732" y="76" on="0"/>
        <pt x="744" y="60" on="0"/>
        <pt x="744" y="52" on="1"/>
        <pt x="744" y="24" on="0"/>
        <pt x="631" y="-57" on="0"/>
        <pt x="559" y="-57" on="1"/>
        <pt x="511" y="-57" on="0"/>
        <pt x="419" y="40" on="0"/>
        <pt x="394" y="126" on="1"/>
        <pt x="285" y="-29" on="0"/>
        <pt x="153" y="-29" on="1"/>
        <pt x="0" y="-29" on="0"/>
        <pt x="0" y="211" on="1"/>
        <pt x="0" y="341" on="0"/>
        <pt x="80" y="648" on="0"/>
        <pt x="131" y="729" on="1"/>
        <pt x="144" y="750" on="0"/>
        <pt x="170" y="750" on="1"/>
        <pt x="179" y="750" on="0"/>
        <pt x="179" y="740" on="1"/>
        <pt x="179" y="734" on="0"/>
      </contour>
    </TTGlyph>
    <TTGlyph name="V" xMin="1" yMin="-61" xMax="563" yMax="727">
      <contour>
        <pt x="1" y="620" on="1"/>
        <pt x="1" y="623" on="0"/>
        <pt x="94" y="720" on="0"/>
        <pt x="114" y="720" on="0"/>
        <pt x="114" y="680" on="1"/>
        <pt x="114" y="599" on="0"/>
        <pt x="157" y="420" on="0"/>
        <pt x="217" y="280" on="0"/>
        <pt x="281" y="160" on="0"/>
        <pt x="324" y="95" on="0"/>
        <pt x="328" y="92" on="1"/>
        <pt x="365" y="565" on="0"/>
        <pt x="463" y="689" on="1"/>
        <pt x="493" y="726" on="0"/>
        <pt x="526" y="727" on="1"/>
        <pt x="543" y="727" on="0"/>
        <pt x="563" y="705" on="0"/>
        <pt x="563" y="659" on="0"/>
        <pt x="522" y="576" on="0"/>
        <pt x="506" y="576" on="1"/>
        <pt x="500" y="576" on="0"/>
        <pt x="494" y="593" on="0"/>
        <pt x="492" y="593" on="1"/>
        <pt x="461" y="593" on="0"/>
        <pt x="401" y="403" on="0"/>
        <pt x="367" y="180" on="0"/>
        <pt x="367" y="110" on="1"/>
        <pt x="372" y="24" on="1"/>
        <pt x="328" y="-32" on="0"/>
        <pt x="297" y="-61" on="0"/>
        <pt x="288" y="-61" on="1"/>
        <pt x="272" y="-61" on="0"/>
        <pt x="180" y="89" on="0"/>
        <pt x="80" y="295" on="0"/>
        <pt x="2" y="539" on="0"/>
      </contour>
    </TTGlyph>
    <TTGlyph name="W" xMin="1" yMin="-61" xMax="893" yMax="727">
      <contour>
        <pt x="239" y="705" on="1"/>
        <pt x="245" y="712" on="0"/>
        <pt x="257" y="712" on="0"/>
        <pt x="268" y="702" on="0"/>
        <pt x="268" y="687" on="0"/>
        <pt x="258" y="674" on="1"/>
        <pt x="209" y="602" on="0"/>
        <pt x="117" y="356" on="0"/>
        <pt x="117" y="177" on="0"/>
        <pt x="179" y="95" on="0"/>
        <pt x="258" y="95" on="0"/>
        <pt x="342" y="177" on="0"/>
        <pt x="380" y="242" on="1"/>
        <pt x="447" y="360" on="0"/>
        <pt x="481" y="440" on="1"/>
        <pt x="493" y="466" on="0"/>
        <pt x="507" y="466" on="0"/>
        <pt x="518" y="456" on="0"/>
        <pt x="518" y="448" on="0"/>
        <pt x="507" y="376" on="0"/>
        <pt x="507" y="323" on="1"/>
        <pt x="507" y="86" on="0"/>
        <pt x="647" y="86" on="1"/>
        <pt x="692" y="86" on="0"/>
        <pt x="766" y="139" on="0"/>
        <pt x="787" y="178" on="1"/>
        <pt x="831" y="261" on="0"/>
        <pt x="831" y="384" on="0"/>
        <pt x="778" y="522" on="0"/>
        <pt x="673" y="633" on="0"/>
        <pt x="611" y="635" on="1"/>
        <pt x="593" y="636" on="0"/>
        <pt x="593" y="649" on="1"/>
        <pt x="593" y="670" on="0"/>
        <pt x="665" y="727" on="0"/>
        <pt x="709" y="727" on="1"/>
        <pt x="782" y="727" on="0"/>
        <pt x="893" y="578" on="0"/>
        <pt x="893" y="437" on="1"/>
        <pt x="893" y="341" on="0"/>
        <pt x="827" y="156" on="0"/>
        <pt x="726" y="25" on="0"/>
        <pt x="605" y="-56" on="0"/>
        <pt x="552" y="-56" on="1"/>
        <pt x="517" y="-56" on="0"/>
        <pt x="467" y="-19" on="0"/>
        <pt x="454" y="10" on="1"/>
        <pt x="432" y="64" on="0"/>
        <pt x="432" y="124" on="1"/>
        <pt x="432" y="177" on="0"/>
        <pt x="448" y="257" on="0"/>
        <pt x="456" y="296" on="0"/>
        <pt x="456" y="303" on="0"/>
        <pt x="455" y="303" on="1"/>
        <pt x="449" y="303" on="0"/>
        <pt x="423" y="248" on="0"/>
        <pt x="413" y="229" on="1"/>
        <pt x="350" y="110" on="0"/>
        <pt x="257" y="10" on="1"/>
        <pt x="191" y="-61" on="0"/>
        <pt x="122" y="-61" on="1"/>
        <pt x="87" y="-61" on="0"/>
        <pt x="48" y="-28" on="1"/>
        <pt x="27" y="-10" on="0"/>
        <pt x="1" y="63" on="0"/>
        <pt x="1" y="175" on="0"/>
        <pt x="58" y="365" on="0"/>
        <pt x="110" y="474" on="1"/>
        <pt x="183" y="629" on="0"/>
      </contour>
    </TTGlyph>
    <TTGlyph name="X" xMin="1" yMin="-85" xMax="773" yMax="773">
      <contour>
        <pt x="665" y="769" on="1"/>
        <pt x="684" y="769" on="0"/>
        <pt x="710" y="743" on="0"/>
        <pt x="710" y="726" on="1"/>
        <pt x="710" y="696" on="0"/>
        <pt x="632" y="599" on="0"/>
        <pt x="607" y="599" on="1"/>
        <pt x="601" y="599" on="0"/>
        <pt x="598" y="614" on="0"/>
        <pt x="591" y="614" on="1"/>
        <pt x="553" y="614" on="0"/>
        <pt x="381" y="421" on="0"/>
        <pt x="302" y="283" on="1"/>
        <pt x="480" y="88" on="0"/>
        <pt x="645" y="88" on="1"/>
        <pt x="681" y="88" on="0"/>
        <pt x="711" y="103" on="0"/>
        <pt x="716" y="106" on="1"/>
        <pt x="728" y="114" on="0"/>
        <pt x="743" y="128" on="0"/>
        <pt x="758" y="128" on="0"/>
        <pt x="773" y="110" on="0"/>
        <pt x="773" y="89" on="0"/>
        <pt x="763" y="81" on="1"/>
        <pt x="659" y="-27" on="0"/>
        <pt x="533" y="-27" on="1"/>
        <pt x="460" y="-27" on="0"/>
        <pt x="318" y="53" on="0"/>
        <pt x="236" y="157" on="1"/>
        <pt x="183" y="42" on="0"/>
        <pt x="159" y="-64" on="1"/>
        <pt x="156" y="-77" on="0"/>
        <pt x="146" y="-85" on="0"/>
        <pt x="132" y="-85" on="1"/>
        <pt x="109" y="-85" on="0"/>
        <pt x="109" y="-63" on="1"/>
        <pt x="110" y="19" on="0"/>
        <pt x="203" y="201" on="1"/>
        <pt x="92" y="358" on="0"/>
        <pt x="36" y="553" on="1"/>
        <pt x="1" y="674" on="0"/>
        <pt x="1" y="739" on="1"/>
        <pt x="1" y="749" on="0"/>
        <pt x="18" y="773" on="0"/>
        <pt x="30" y="773" on="1"/>
        <pt x="39" y="773" on="0"/>
        <pt x="39" y="755" on="1"/>
        <pt x="56" y="668" on="0"/>
        <pt x="182" y="426" on="0"/>
        <pt x="269" y="322" on="1"/>
        <pt x="374" y="503" on="0"/>
        <pt x="601" y="769" on="0"/>
      </contour>
    </TTGlyph>
    <TTGlyph name="Y" xMin="1" yMin="-183" xMax="671" yMax="774">
      <contour>
        <pt x="590" y="692" on="1"/>
        <pt x="559" y="692" on="0"/>
        <pt x="499" y="541" on="0"/>
        <pt x="477" y="422" on="1"/>
        <pt x="529" y="482" on="0"/>
        <pt x="598" y="633" on="0"/>
        <pt x="598" y="681" on="1"/>
        <pt x="598" y="692" on="0"/>
      </contour>
      <contour>
        <pt x="458" y="-31" on="1"/>
        <pt x="470" y="-27" on="1"/>
        <pt x="485" y="-29" on="0"/>
        <pt x="486" y="-44" on="1"/>
        <pt x="483" y="-106" on="0"/>
        <pt x="449" y="-156" on="1"/>
        <pt x="430" y="-183" on="0"/>
        <pt x="407" y="-183" on="1"/>
        <pt x="377" y="-183" on="0"/>
        <pt x="377" y="-72" on="1"/>
        <pt x="377" y="125" on="0"/>
        <pt x="412" y="317" on="1"/>
        <pt x="289" y="214" on="0"/>
        <pt x="176" y="214" on="1"/>
        <pt x="108" y="214" on="0"/>
        <pt x="1" y="339" on="0"/>
        <pt x="1" y="433" on="1"/>
        <pt x="1" y="554" on="0"/>
        <pt x="75" y="697" on="1"/>
        <pt x="81" y="712" on="0"/>
        <pt x="100" y="712" on="0"/>
        <pt x="110" y="702" on="0"/>
        <pt x="110" y="692" on="0"/>
        <pt x="107" y="686" on="1"/>
        <pt x="89" y="636" on="0"/>
        <pt x="89" y="527" on="0"/>
        <pt x="135" y="411" on="0"/>
        <pt x="236" y="324" on="0"/>
        <pt x="364" y="324" on="0"/>
        <pt x="423" y="372" on="1"/>
        <pt x="461" y="551" on="0"/>
        <pt x="576" y="774" on="0"/>
        <pt x="635" y="774" on="1"/>
        <pt x="671" y="774" on="0"/>
        <pt x="671" y="735" on="1"/>
        <pt x="671" y="671" on="0"/>
        <pt x="554" y="457" on="0"/>
        <pt x="467" y="368" on="1"/>
        <pt x="445" y="230" on="0"/>
        <pt x="445" y="3" on="0"/>
        <pt x="450" y="-16" on="1"/>
        <pt x="452" y="-31" on="0"/>
      </contour>
    </TTGlyph>
    <TTGlyph name="Yacute" xMin="1" yMin="-183" xMax="671" yMax="888">
      <contour>
        <pt x="590" y="692" on="1"/>
        <pt x="559" y="692" on="0"/>
        <pt x="499" y="541" on="0"/>
        <pt x="477" y="422" on="1"/>
        <pt x="529" y="482" on="0"/>
        <pt x="598" y="633" on="0"/>
        <pt x="598" y="681" on="1"/>
        <pt x="598" y="692" on="0"/>
      </contour>
      <contour>
        <pt x="455" y="851" on="1"/>
        <pt x="455" y="822" on="0"/>
        <pt x="401" y="781" on="0"/>
        <pt x="363" y="772" on="1"/>
        <pt x="298" y="758" on="0"/>
        <pt x="265" y="758" on="1"/>
        <pt x="250" y="758" on="0"/>
        <pt x="250" y="770" on="1"/>
        <pt x="250" y="784" on="0"/>
        <pt x="276" y="793" on="1"/>
        <pt x="318" y="807" on="0"/>
        <pt x="364" y="844" on="0"/>
        <pt x="368" y="857" on="1"/>
        <pt x="379" y="888" on="0"/>
        <pt x="418" y="888" on="1"/>
        <pt x="436" y="888" on="0"/>
        <pt x="455" y="864" on="0"/>
      </contour>
      <contour>
        <pt x="458" y="-31" on="1"/>
        <pt x="470" y="-27" on="1"/>
        <pt x="485" y="-29" on="0"/>
        <pt x="486" y="-44" on="1"/>
        <pt x="483" y="-106" on="0"/>
        <pt x="449" y="-156" on="1"/>
        <pt x="430" y="-183" on="0"/>
        <pt x="407" y="-183" on="1"/>
        <pt x="377" y="-183" on="0"/>
        <pt x="377" y="-72" on="1"/>
        <pt x="377" y="125" on="0"/>
        <pt x="412" y="317" on="1"/>
        <pt x="289" y="214" on="0"/>
        <pt x="176" y="214" on="1"/>
        <pt x="108" y="214" on="0"/>
        <pt x="1" y="339" on="0"/>
        <pt x="1" y="433" on="1"/>
        <pt x="1" y="554" on="0"/>
        <pt x="75" y="697" on="1"/>
        <pt x="81" y="712" on="0"/>
        <pt x="100" y="712" on="0"/>
        <pt x="110" y="702" on="0"/>
        <pt x="110" y="692" on="0"/>
        <pt x="107" y="686" on="1"/>
        <pt x="89" y="636" on="0"/>
        <pt x="89" y="527" on="0"/>
        <pt x="135" y="411" on="0"/>
        <pt x="236" y="324" on="0"/>
        <pt x="364" y="324" on="0"/>
        <pt x="423" y="372" on="1"/>
        <pt x="461" y="551" on="0"/>
        <pt x="576" y="774" on="0"/>
        <pt x="635" y="774" on="1"/>
        <pt x="671" y="774" on="0"/>
        <pt x="671" y="735" on="1"/>
        <pt x="671" y="671" on="0"/>
        <pt x="554" y="457" on="0"/>
        <pt x="467" y="368" on="1"/>
        <pt x="445" y="230" on="0"/>
        <pt x="445" y="3" on="0"/>
        <pt x="450" y="-16" on="1"/>
        <pt x="452" y="-31" on="0"/>
      </contour>
    </TTGlyph>
    <TTGlyph name="Ydieresis" xMin="1" yMin="-183" xMax="671" yMax="891">
      <contour>
        <pt x="365" y="807" on="0"/>
        <pt x="365" y="857" on="0"/>
        <pt x="396" y="891" on="0"/>
        <pt x="442" y="891" on="0"/>
        <pt x="473" y="857" on="0"/>
        <pt x="473" y="807" on="0"/>
        <pt x="442" y="773" on="0"/>
        <pt x="396" y="773" on="0"/>
      </contour>
      <contour>
        <pt x="225" y="807" on="0"/>
        <pt x="225" y="857" on="0"/>
        <pt x="256" y="891" on="0"/>
        <pt x="302" y="891" on="0"/>
        <pt x="333" y="857" on="0"/>
        <pt x="333" y="807" on="0"/>
        <pt x="302" y="773" on="0"/>
        <pt x="256" y="773" on="0"/>
      </contour>
      <contour>
        <pt x="590" y="692" on="1"/>
        <pt x="559" y="692" on="0"/>
        <pt x="499" y="541" on="0"/>
        <pt x="477" y="422" on="1"/>
        <pt x="529" y="482" on="0"/>
        <pt x="598" y="633" on="0"/>
        <pt x="598" y="681" on="1"/>
        <pt x="598" y="692" on="0"/>
      </contour>
      <contour>
        <pt x="458" y="-31" on="1"/>
        <pt x="470" y="-27" on="1"/>
        <pt x="485" y="-29" on="0"/>
        <pt x="486" y="-44" on="1"/>
        <pt x="483" y="-106" on="0"/>
        <pt x="449" y="-156" on="1"/>
        <pt x="430" y="-183" on="0"/>
        <pt x="407" y="-183" on="1"/>
        <pt x="377" y="-183" on="0"/>
        <pt x="377" y="-72" on="1"/>
        <pt x="377" y="125" on="0"/>
        <pt x="412" y="317" on="1"/>
        <pt x="289" y="214" on="0"/>
        <pt x="176" y="214" on="1"/>
        <pt x="108" y="214" on="0"/>
        <pt x="1" y="339" on="0"/>
        <pt x="1" y="433" on="1"/>
        <pt x="1" y="554" on="0"/>
        <pt x="75" y="697" on="1"/>
        <pt x="81" y="712" on="0"/>
        <pt x="100" y="712" on="0"/>
        <pt x="110" y="702" on="0"/>
        <pt x="110" y="692" on="0"/>
        <pt x="107" y="686" on="1"/>
        <pt x="89" y="636" on="0"/>
        <pt x="89" y="527" on="0"/>
        <pt x="135" y="411" on="0"/>
        <pt x="236" y="324" on="0"/>
        <pt x="364" y="324" on="0"/>
        <pt x="423" y="372" on="1"/>
        <pt x="461" y="551" on="0"/>
        <pt x="576" y="774" on="0"/>
        <pt x="635" y="774" on="1"/>
        <pt x="671" y="774" on="0"/>
        <pt x="671" y="735" on="1"/>
        <pt x="671" y="671" on="0"/>
        <pt x="554" y="457" on="0"/>
        <pt x="467" y="368" on="1"/>
        <pt x="445" y="230" on="0"/>
        <pt x="445" y="3" on="0"/>
        <pt x="450" y="-16" on="1"/>
        <pt x="452" y="-31" on="0"/>
      </contour>
    </TTGlyph>
    <TTGlyph name="Z" xMin="0" yMin="-94" xMax="764" yMax="801">
      <contour>
        <pt x="358" y="133" on="1"/>
        <pt x="415" y="126" on="0"/>
        <pt x="613" y="12" on="0"/>
        <pt x="682" y="12" on="0"/>
        <pt x="722" y="35" on="0"/>
        <pt x="741" y="58" on="0"/>
        <pt x="744" y="58" on="1"/>
        <pt x="752" y="58" on="0"/>
        <pt x="764" y="32" on="0"/>
        <pt x="764" y="27" on="1"/>
        <pt x="764" y="-15" on="0"/>
        <pt x="617" y="-94" on="0"/>
        <pt x="531" y="-94" on="0"/>
        <pt x="424" y="-52" on="0"/>
        <pt x="383" y="-28" on="1"/>
        <pt x="272" y="39" on="0"/>
        <pt x="221" y="39" on="0"/>
        <pt x="151" y="-23" on="0"/>
        <pt x="88" y="-85" on="0"/>
        <pt x="63" y="-85" on="0"/>
        <pt x="45" y="-65" on="0"/>
        <pt x="45" y="-47" on="0"/>
        <pt x="96" y="8" on="0"/>
        <pt x="192" y="81" on="0"/>
        <pt x="240" y="103" on="1"/>
        <pt x="261" y="147" on="0"/>
        <pt x="384" y="416" on="0"/>
        <pt x="386" y="419" on="0"/>
        <pt x="425" y="502" on="0"/>
        <pt x="439" y="530" on="0"/>
        <pt x="478" y="606" on="0"/>
        <pt x="490" y="626" on="1"/>
        <pt x="530" y="687" on="0"/>
        <pt x="551" y="708" on="1"/>
        <pt x="551" y="711" on="0"/>
        <pt x="545" y="711" on="0"/>
        <pt x="535" y="706" on="0"/>
        <pt x="433" y="662" on="0"/>
        <pt x="362" y="632" on="0"/>
        <pt x="247" y="585" on="0"/>
        <pt x="206" y="571" on="1"/>
        <pt x="99" y="535" on="0"/>
        <pt x="57" y="535" on="1"/>
        <pt x="0" y="535" on="0"/>
        <pt x="0" y="577" on="1"/>
        <pt x="0" y="593" on="0"/>
        <pt x="30" y="623" on="0"/>
        <pt x="52" y="642" on="0"/>
        <pt x="63" y="650" on="1"/>
        <pt x="102" y="681" on="0"/>
        <pt x="117" y="681" on="0"/>
        <pt x="129" y="671" on="0"/>
        <pt x="129" y="658" on="0"/>
        <pt x="99" y="634" on="0"/>
        <pt x="99" y="627" on="0"/>
        <pt x="107" y="627" on="1"/>
        <pt x="130" y="627" on="0"/>
        <pt x="337" y="691" on="1"/>
        <pt x="600" y="772" on="0"/>
        <pt x="626" y="790" on="1"/>
        <pt x="642" y="801" on="0"/>
        <pt x="658" y="801" on="0"/>
        <pt x="668" y="780" on="0"/>
        <pt x="668" y="754" on="0"/>
        <pt x="657" y="750" on="1"/>
        <pt x="589" y="722" on="0"/>
        <pt x="494" y="544" on="1"/>
        <pt x="446" y="454" on="0"/>
        <pt x="301" y="125" on="1"/>
        <pt x="331" y="133" on="0"/>
      </contour>
    </TTGlyph>
    <TTGlyph name="Zcaron" xMin="0" yMin="-94" xMax="764" yMax="894">
      <contour>
        <pt x="308" y="894" on="1"/>
        <pt x="338" y="894" on="0"/>
        <pt x="391" y="848" on="1"/>
        <pt x="444" y="894" on="0"/>
        <pt x="474" y="894" on="1"/>
        <pt x="523" y="894" on="0"/>
        <pt x="523" y="876" on="1"/>
        <pt x="523" y="865" on="0"/>
        <pt x="470" y="846" on="0"/>
        <pt x="438" y="817" on="0"/>
        <pt x="426" y="792" on="0"/>
        <pt x="406" y="774" on="0"/>
        <pt x="376" y="774" on="0"/>
        <pt x="356" y="792" on="0"/>
        <pt x="344" y="817" on="0"/>
        <pt x="312" y="846" on="0"/>
        <pt x="259" y="865" on="0"/>
        <pt x="259" y="876" on="1"/>
        <pt x="259" y="894" on="0"/>
      </contour>
      <contour>
        <pt x="358" y="133" on="1"/>
        <pt x="415" y="126" on="0"/>
        <pt x="613" y="12" on="0"/>
        <pt x="682" y="12" on="0"/>
        <pt x="722" y="35" on="0"/>
        <pt x="741" y="58" on="0"/>
        <pt x="744" y="58" on="1"/>
        <pt x="752" y="58" on="0"/>
        <pt x="764" y="32" on="0"/>
        <pt x="764" y="27" on="1"/>
        <pt x="764" y="-15" on="0"/>
        <pt x="617" y="-94" on="0"/>
        <pt x="531" y="-94" on="0"/>
        <pt x="424" y="-52" on="0"/>
        <pt x="383" y="-28" on="1"/>
        <pt x="272" y="39" on="0"/>
        <pt x="221" y="39" on="0"/>
        <pt x="151" y="-23" on="0"/>
        <pt x="88" y="-85" on="0"/>
        <pt x="63" y="-85" on="0"/>
        <pt x="45" y="-65" on="0"/>
        <pt x="45" y="-47" on="0"/>
        <pt x="96" y="8" on="0"/>
        <pt x="192" y="81" on="0"/>
        <pt x="240" y="103" on="1"/>
        <pt x="261" y="147" on="0"/>
        <pt x="384" y="416" on="0"/>
        <pt x="386" y="419" on="0"/>
        <pt x="425" y="502" on="0"/>
        <pt x="439" y="530" on="0"/>
        <pt x="478" y="606" on="0"/>
        <pt x="490" y="626" on="1"/>
        <pt x="530" y="687" on="0"/>
        <pt x="551" y="708" on="1"/>
        <pt x="551" y="711" on="0"/>
        <pt x="545" y="711" on="0"/>
        <pt x="535" y="706" on="0"/>
        <pt x="433" y="662" on="0"/>
        <pt x="362" y="632" on="0"/>
        <pt x="247" y="585" on="0"/>
        <pt x="206" y="571" on="1"/>
        <pt x="99" y="535" on="0"/>
        <pt x="57" y="535" on="1"/>
        <pt x="0" y="535" on="0"/>
        <pt x="0" y="577" on="1"/>
        <pt x="0" y="593" on="0"/>
        <pt x="30" y="623" on="0"/>
        <pt x="52" y="642" on="0"/>
        <pt x="63" y="650" on="1"/>
        <pt x="102" y="681" on="0"/>
        <pt x="117" y="681" on="0"/>
        <pt x="129" y="671" on="0"/>
        <pt x="129" y="658" on="0"/>
        <pt x="99" y="634" on="0"/>
        <pt x="99" y="627" on="0"/>
        <pt x="107" y="627" on="1"/>
        <pt x="130" y="627" on="0"/>
        <pt x="337" y="691" on="1"/>
        <pt x="600" y="772" on="0"/>
        <pt x="626" y="790" on="1"/>
        <pt x="642" y="801" on="0"/>
        <pt x="658" y="801" on="0"/>
        <pt x="668" y="780" on="0"/>
        <pt x="668" y="754" on="0"/>
        <pt x="657" y="750" on="1"/>
        <pt x="589" y="722" on="0"/>
        <pt x="494" y="544" on="1"/>
        <pt x="446" y="454" on="0"/>
        <pt x="301" y="125" on="1"/>
        <pt x="331" y="133" on="0"/>
      </contour>
    </TTGlyph>
    <TTGlyph name="a" xMin="0" yMin="-51" xMax="389" yMax="248">
      <contour>
        <pt x="257" y="128" on="1"/>
        <pt x="253" y="100" on="1"/>
        <pt x="253" y="82" on="0"/>
        <pt x="284" y="43" on="0"/>
        <pt x="305" y="43" on="1"/>
        <pt x="321" y="43" on="0"/>
        <pt x="331" y="50" on="1"/>
        <pt x="353" y="65" on="0"/>
        <pt x="364" y="76" on="0"/>
        <pt x="389" y="76" on="0"/>
        <pt x="389" y="67" on="1"/>
        <pt x="389" y="57" on="0"/>
        <pt x="342" y="4" on="1"/>
        <pt x="327" y="-13" on="0"/>
        <pt x="269" y="-51" on="0"/>
        <pt x="224" y="-51" on="0"/>
        <pt x="201" y="-36" on="0"/>
        <pt x="196" y="-20" on="1"/>
        <pt x="190" y="2" on="0"/>
        <pt x="190" y="34" on="1"/>
        <pt x="190" y="38" on="0"/>
        <pt x="180" y="38" on="0"/>
        <pt x="162" y="18" on="1"/>
        <pt x="106" y="-40" on="0"/>
        <pt x="37" y="-40" on="0"/>
        <pt x="0" y="-4" on="0"/>
        <pt x="0" y="24" on="1"/>
        <pt x="0" y="73" on="0"/>
        <pt x="52" y="162" on="0"/>
        <pt x="88" y="189" on="1"/>
        <pt x="168" y="248" on="0"/>
        <pt x="212" y="248" on="1"/>
        <pt x="278" y="246" on="0"/>
        <pt x="278" y="201" on="1"/>
        <pt x="278" y="185" on="0"/>
        <pt x="250" y="154" on="0"/>
        <pt x="226" y="154" on="0"/>
        <pt x="184" y="196" on="0"/>
        <pt x="134" y="196" on="0"/>
        <pt x="102" y="155" on="0"/>
        <pt x="102" y="123" on="1"/>
        <pt x="102" y="71" on="0"/>
        <pt x="157" y="71" on="1"/>
        <pt x="179" y="71" on="0"/>
        <pt x="208" y="93" on="0"/>
        <pt x="214" y="106" on="1"/>
        <pt x="231" y="140" on="0"/>
        <pt x="245" y="140" on="1"/>
        <pt x="257" y="140" on="0"/>
      </contour>
    </TTGlyph>
    <TTGlyph name="aacute" xMin="0" yMin="-51" xMax="389" yMax="410">
      <contour>
        <pt x="301" y="373" on="1"/>
        <pt x="301" y="344" on="0"/>
        <pt x="247" y="303" on="0"/>
        <pt x="209" y="294" on="1"/>
        <pt x="144" y="280" on="0"/>
        <pt x="111" y="280" on="1"/>
        <pt x="96" y="280" on="0"/>
        <pt x="96" y="292" on="1"/>
        <pt x="96" y="306" on="0"/>
        <pt x="122" y="315" on="1"/>
        <pt x="164" y="329" on="0"/>
        <pt x="210" y="366" on="0"/>
        <pt x="214" y="379" on="1"/>
        <pt x="225" y="410" on="0"/>
        <pt x="264" y="410" on="1"/>
        <pt x="282" y="410" on="0"/>
        <pt x="301" y="386" on="0"/>
      </contour>
      <contour>
        <pt x="257" y="128" on="1"/>
        <pt x="253" y="100" on="1"/>
        <pt x="253" y="82" on="0"/>
        <pt x="284" y="43" on="0"/>
        <pt x="305" y="43" on="1"/>
        <pt x="321" y="43" on="0"/>
        <pt x="331" y="50" on="1"/>
        <pt x="353" y="65" on="0"/>
        <pt x="364" y="76" on="0"/>
        <pt x="389" y="76" on="0"/>
        <pt x="389" y="67" on="1"/>
        <pt x="389" y="57" on="0"/>
        <pt x="342" y="4" on="1"/>
        <pt x="327" y="-13" on="0"/>
        <pt x="269" y="-51" on="0"/>
        <pt x="224" y="-51" on="0"/>
        <pt x="201" y="-36" on="0"/>
        <pt x="196" y="-20" on="1"/>
        <pt x="190" y="2" on="0"/>
        <pt x="190" y="34" on="1"/>
        <pt x="190" y="38" on="0"/>
        <pt x="180" y="38" on="0"/>
        <pt x="162" y="18" on="1"/>
        <pt x="106" y="-40" on="0"/>
        <pt x="37" y="-40" on="0"/>
        <pt x="0" y="-4" on="0"/>
        <pt x="0" y="24" on="1"/>
        <pt x="0" y="73" on="0"/>
        <pt x="52" y="162" on="0"/>
        <pt x="88" y="189" on="1"/>
        <pt x="168" y="248" on="0"/>
        <pt x="212" y="248" on="1"/>
        <pt x="278" y="246" on="0"/>
        <pt x="278" y="201" on="1"/>
        <pt x="278" y="185" on="0"/>
        <pt x="250" y="154" on="0"/>
        <pt x="226" y="154" on="0"/>
        <pt x="184" y="196" on="0"/>
        <pt x="134" y="196" on="0"/>
        <pt x="102" y="155" on="0"/>
        <pt x="102" y="123" on="1"/>
        <pt x="102" y="71" on="0"/>
        <pt x="157" y="71" on="1"/>
        <pt x="179" y="71" on="0"/>
        <pt x="208" y="93" on="0"/>
        <pt x="214" y="106" on="1"/>
        <pt x="231" y="140" on="0"/>
        <pt x="245" y="140" on="1"/>
        <pt x="257" y="140" on="0"/>
      </contour>
    </TTGlyph>
    <TTGlyph name="acircumflex" xMin="0" yMin="-51" xMax="389" yMax="410">
      <contour>
        <pt x="253" y="100" on="1"/>
        <pt x="257" y="128" on="1"/>
        <pt x="257" y="140" on="0"/>
        <pt x="245" y="140" on="1"/>
        <pt x="231" y="140" on="0"/>
        <pt x="214" y="106" on="1"/>
        <pt x="208" y="93" on="0"/>
        <pt x="179" y="71" on="0"/>
        <pt x="157" y="71" on="1"/>
        <pt x="102" y="71" on="0"/>
        <pt x="102" y="123" on="1"/>
        <pt x="102" y="155" on="0"/>
        <pt x="134" y="196" on="0"/>
        <pt x="184" y="196" on="0"/>
        <pt x="226" y="154" on="0"/>
        <pt x="250" y="154" on="0"/>
        <pt x="278" y="185" on="0"/>
        <pt x="278" y="201" on="1"/>
        <pt x="278" y="246" on="0"/>
        <pt x="212" y="248" on="1"/>
        <pt x="168" y="248" on="0"/>
        <pt x="88" y="189" on="1"/>
        <pt x="52" y="162" on="0"/>
        <pt x="0" y="73" on="0"/>
        <pt x="0" y="24" on="1"/>
        <pt x="0" y="-4" on="0"/>
        <pt x="37" y="-40" on="0"/>
        <pt x="91" y="-40" on="0"/>
        <pt x="143" y="-1" on="0"/>
        <pt x="180" y="38" on="0"/>
        <pt x="190" y="38" on="0"/>
        <pt x="190" y="34" on="1"/>
        <pt x="190" y="-29" on="0"/>
        <pt x="212" y="-44" on="1"/>
        <pt x="224" y="-51" on="0"/>
        <pt x="269" y="-51" on="0"/>
        <pt x="327" y="-13" on="0"/>
        <pt x="342" y="4" on="1"/>
        <pt x="389" y="57" on="0"/>
        <pt x="389" y="76" on="0"/>
        <pt x="364" y="76" on="0"/>
        <pt x="354" y="66" on="0"/>
        <pt x="340" y="56" on="0"/>
        <pt x="335" y="52" on="1"/>
        <pt x="321" y="43" on="0"/>
        <pt x="284" y="43" on="0"/>
        <pt x="253" y="82" on="0"/>
      </contour>
      <contour>
        <pt x="179" y="326" on="1"/>
        <pt x="138" y="290" on="0"/>
        <pt x="47" y="290" on="0"/>
        <pt x="47" y="308" on="1"/>
        <pt x="47" y="319" on="0"/>
        <pt x="100" y="338" on="0"/>
        <pt x="132" y="367" on="0"/>
        <pt x="144" y="392" on="0"/>
        <pt x="164" y="410" on="0"/>
        <pt x="194" y="410" on="0"/>
        <pt x="214" y="392" on="0"/>
        <pt x="226" y="367" on="0"/>
        <pt x="258" y="338" on="0"/>
        <pt x="311" y="319" on="0"/>
        <pt x="311" y="308" on="1"/>
        <pt x="311" y="290" on="0"/>
        <pt x="220" y="290" on="0"/>
      </contour>
    </TTGlyph>
    <TTGlyph name="acute" xMin="50" yMin="280" xMax="255" yMax="410">
      <contour>
        <pt x="255" y="373" on="1"/>
        <pt x="255" y="344" on="0"/>
        <pt x="201" y="303" on="0"/>
        <pt x="163" y="294" on="1"/>
        <pt x="98" y="280" on="0"/>
        <pt x="65" y="280" on="1"/>
        <pt x="50" y="280" on="0"/>
        <pt x="50" y="292" on="1"/>
        <pt x="50" y="306" on="0"/>
        <pt x="76" y="315" on="1"/>
        <pt x="118" y="329" on="0"/>
        <pt x="164" y="366" on="0"/>
        <pt x="168" y="379" on="1"/>
        <pt x="179" y="410" on="0"/>
        <pt x="218" y="410" on="1"/>
        <pt x="236" y="410" on="0"/>
        <pt x="255" y="386" on="0"/>
      </contour>
    </TTGlyph>
    <TTGlyph name="adieresis" xMin="0" yMin="-51" xMax="389" yMax="412">
      <contour>
        <pt x="257" y="128" on="1"/>
        <pt x="253" y="100" on="1"/>
        <pt x="253" y="82" on="0"/>
        <pt x="284" y="43" on="0"/>
        <pt x="305" y="43" on="1"/>
        <pt x="321" y="43" on="0"/>
        <pt x="331" y="50" on="1"/>
        <pt x="353" y="65" on="0"/>
        <pt x="364" y="76" on="0"/>
        <pt x="389" y="76" on="0"/>
        <pt x="389" y="67" on="1"/>
        <pt x="389" y="57" on="0"/>
        <pt x="342" y="4" on="1"/>
        <pt x="327" y="-13" on="0"/>
        <pt x="269" y="-51" on="0"/>
        <pt x="224" y="-51" on="0"/>
        <pt x="201" y="-36" on="0"/>
        <pt x="196" y="-20" on="1"/>
        <pt x="190" y="2" on="0"/>
        <pt x="190" y="34" on="1"/>
        <pt x="190" y="38" on="0"/>
        <pt x="180" y="38" on="0"/>
        <pt x="162" y="18" on="1"/>
        <pt x="106" y="-40" on="0"/>
        <pt x="37" y="-40" on="0"/>
        <pt x="0" y="-4" on="0"/>
        <pt x="0" y="24" on="1"/>
        <pt x="0" y="73" on="0"/>
        <pt x="52" y="162" on="0"/>
        <pt x="88" y="189" on="1"/>
        <pt x="168" y="248" on="0"/>
        <pt x="212" y="248" on="1"/>
        <pt x="278" y="246" on="0"/>
        <pt x="278" y="201" on="1"/>
        <pt x="278" y="185" on="0"/>
        <pt x="250" y="154" on="0"/>
        <pt x="226" y="154" on="0"/>
        <pt x="184" y="196" on="0"/>
        <pt x="134" y="196" on="0"/>
        <pt x="102" y="155" on="0"/>
        <pt x="102" y="123" on="1"/>
        <pt x="102" y="71" on="0"/>
        <pt x="157" y="71" on="1"/>
        <pt x="179" y="71" on="0"/>
        <pt x="208" y="93" on="0"/>
        <pt x="214" y="106" on="1"/>
        <pt x="231" y="140" on="0"/>
        <pt x="245" y="140" on="1"/>
        <pt x="257" y="140" on="0"/>
      </contour>
      <contour>
        <pt x="195" y="328" on="0"/>
        <pt x="195" y="378" on="0"/>
        <pt x="226" y="412" on="0"/>
        <pt x="272" y="412" on="0"/>
        <pt x="303" y="378" on="0"/>
        <pt x="303" y="328" on="0"/>
        <pt x="272" y="294" on="0"/>
        <pt x="226" y="294" on="0"/>
      </contour>
      <contour>
        <pt x="55" y="328" on="0"/>
        <pt x="55" y="378" on="0"/>
        <pt x="86" y="412" on="0"/>
        <pt x="132" y="412" on="0"/>
        <pt x="163" y="378" on="0"/>
        <pt x="163" y="328" on="0"/>
        <pt x="132" y="294" on="0"/>
        <pt x="86" y="294" on="0"/>
      </contour>
    </TTGlyph>
    <TTGlyph name="ae" xMin="0" yMin="-48" xMax="481" yMax="284">
      <contour>
        <pt x="290" y="223" on="0"/>
        <pt x="270" y="180" on="0"/>
        <pt x="270" y="129" on="0"/>
        <pt x="278" y="109" on="1"/>
        <pt x="295" y="115" on="0"/>
        <pt x="330" y="180" on="0"/>
        <pt x="330" y="222" on="0"/>
        <pt x="314" y="223" on="1"/>
      </contour>
      <contour>
        <pt x="157" y="95" on="1"/>
        <pt x="180" y="95" on="0"/>
        <pt x="196" y="108" on="1"/>
        <pt x="206" y="143" on="0"/>
        <pt x="228" y="179" on="1"/>
        <pt x="225" y="180" on="0"/>
        <pt x="182" y="220" on="0"/>
        <pt x="134" y="220" on="0"/>
        <pt x="102" y="179" on="0"/>
        <pt x="102" y="147" on="1"/>
        <pt x="102" y="95" on="0"/>
      </contour>
      <contour>
        <pt x="212" y="272" on="1"/>
        <pt x="264" y="269" on="0"/>
        <pt x="275" y="240" on="1"/>
        <pt x="319" y="284" on="0"/>
        <pt x="362" y="284" on="1"/>
        <pt x="394" y="284" on="0"/>
        <pt x="394" y="258" on="1"/>
        <pt x="394" y="223" on="0"/>
        <pt x="350" y="148" on="0"/>
        <pt x="291" y="84" on="1"/>
        <pt x="318" y="44" on="0"/>
        <pt x="364" y="44" on="1"/>
        <pt x="392" y="44" on="0"/>
        <pt x="429" y="69" on="0"/>
        <pt x="462" y="109" on="0"/>
        <pt x="481" y="109" on="0"/>
        <pt x="481" y="100" on="1"/>
        <pt x="481" y="94" on="0"/>
        <pt x="477" y="86" on="1"/>
        <pt x="444" y="33" on="0"/>
        <pt x="346" y="-48" on="0"/>
        <pt x="236" y="-48" on="0"/>
        <pt x="187" y="5" on="0"/>
        <pt x="187" y="49" on="1"/>
        <pt x="187" y="62" on="0"/>
        <pt x="185" y="62" on="1"/>
        <pt x="180" y="62" on="0"/>
        <pt x="162" y="42" on="1"/>
        <pt x="106" y="-16" on="0"/>
        <pt x="37" y="-16" on="0"/>
        <pt x="0" y="20" on="0"/>
        <pt x="0" y="48" on="1"/>
        <pt x="0" y="97" on="0"/>
        <pt x="52" y="186" on="0"/>
        <pt x="88" y="213" on="1"/>
        <pt x="168" y="272" on="0"/>
      </contour>
    </TTGlyph>
    <TTGlyph name="agrave" xMin="0" yMin="-51" xMax="389" yMax="410">
      <contour>
        <pt x="253" y="100" on="1"/>
        <pt x="257" y="128" on="1"/>
        <pt x="257" y="140" on="0"/>
        <pt x="245" y="140" on="1"/>
        <pt x="231" y="140" on="0"/>
        <pt x="214" y="106" on="1"/>
        <pt x="208" y="93" on="0"/>
        <pt x="179" y="71" on="0"/>
        <pt x="157" y="71" on="1"/>
        <pt x="102" y="71" on="0"/>
        <pt x="102" y="123" on="1"/>
        <pt x="102" y="155" on="0"/>
        <pt x="134" y="196" on="0"/>
        <pt x="184" y="196" on="0"/>
        <pt x="226" y="154" on="0"/>
        <pt x="250" y="154" on="0"/>
        <pt x="278" y="185" on="0"/>
        <pt x="278" y="201" on="1"/>
        <pt x="278" y="246" on="0"/>
        <pt x="212" y="248" on="1"/>
        <pt x="168" y="248" on="0"/>
        <pt x="88" y="189" on="1"/>
        <pt x="52" y="162" on="0"/>
        <pt x="0" y="73" on="0"/>
        <pt x="0" y="24" on="1"/>
        <pt x="0" y="-4" on="0"/>
        <pt x="37" y="-40" on="0"/>
        <pt x="91" y="-40" on="0"/>
        <pt x="143" y="-1" on="0"/>
        <pt x="180" y="38" on="0"/>
        <pt x="190" y="38" on="0"/>
        <pt x="190" y="34" on="1"/>
        <pt x="190" y="-29" on="0"/>
        <pt x="212" y="-44" on="1"/>
        <pt x="224" y="-51" on="0"/>
        <pt x="269" y="-51" on="0"/>
        <pt x="327" y="-13" on="0"/>
        <pt x="342" y="4" on="1"/>
        <pt x="389" y="57" on="0"/>
        <pt x="389" y="76" on="0"/>
        <pt x="364" y="76" on="0"/>
        <pt x="354" y="66" on="0"/>
        <pt x="340" y="56" on="0"/>
        <pt x="335" y="52" on="1"/>
        <pt x="321" y="43" on="0"/>
        <pt x="284" y="43" on="0"/>
        <pt x="253" y="82" on="0"/>
      </contour>
      <contour>
        <pt x="76" y="373" on="1"/>
        <pt x="76" y="386" on="0"/>
        <pt x="95" y="410" on="0"/>
        <pt x="135" y="410" on="0"/>
        <pt x="157" y="391" on="0"/>
        <pt x="166" y="366" on="0"/>
        <pt x="204" y="334" on="0"/>
        <pt x="265" y="315" on="0"/>
        <pt x="265" y="300" on="1"/>
        <pt x="265" y="288" on="0"/>
        <pt x="236" y="288" on="0"/>
        <pt x="197" y="292" on="0"/>
        <pt x="124" y="305" on="0"/>
        <pt x="76" y="344" on="0"/>
      </contour>
    </TTGlyph>
    <TTGlyph name="ampersand" xMin="-26" yMin="-79" xMax="412" yMax="487">
      <contour>
        <pt x="229" y="389" on="1"/>
        <pt x="232" y="406" on="1"/>
        <pt x="232" y="412" on="0"/>
        <pt x="172" y="412" on="0"/>
        <pt x="64" y="351" on="0"/>
        <pt x="62" y="329" on="1"/>
        <pt x="67" y="313" on="0"/>
        <pt x="160" y="257" on="0"/>
        <pt x="160" y="211" on="0"/>
        <pt x="132" y="175" on="0"/>
        <pt x="99" y="153" on="0"/>
        <pt x="71" y="118" on="0"/>
        <pt x="71" y="81" on="0"/>
        <pt x="101" y="56" on="0"/>
        <pt x="119" y="56" on="1"/>
        <pt x="183" y="56" on="0"/>
        <pt x="239" y="119" on="1"/>
        <pt x="242" y="200" on="0"/>
        <pt x="302" y="302" on="0"/>
        <pt x="333" y="302" on="1"/>
        <pt x="369" y="302" on="0"/>
        <pt x="369" y="180" on="0"/>
        <pt x="292" y="103" on="1"/>
        <pt x="295" y="31" on="0"/>
        <pt x="322" y="12" on="1"/>
        <pt x="334" y="3" on="0"/>
        <pt x="367" y="3" on="0"/>
        <pt x="385" y="17" on="1"/>
        <pt x="391" y="24" on="0"/>
        <pt x="399" y="24" on="1"/>
        <pt x="412" y="24" on="0"/>
        <pt x="412" y="7" on="1"/>
        <pt x="412" y="-22" on="0"/>
        <pt x="339" y="-79" on="0"/>
        <pt x="306" y="-79" on="1"/>
        <pt x="235" y="-79" on="0"/>
        <pt x="235" y="23" on="1"/>
        <pt x="235" y="39" on="0"/>
        <pt x="236" y="46" on="1"/>
        <pt x="197" y="10" on="0"/>
        <pt x="97" y="-41" on="0"/>
        <pt x="20" y="-41" on="0"/>
        <pt x="-26" y="-2" on="0"/>
        <pt x="-26" y="55" on="0"/>
        <pt x="1" y="105" on="0"/>
        <pt x="23" y="130" on="0"/>
        <pt x="72" y="180" on="0"/>
        <pt x="72" y="196" on="0"/>
        <pt x="42" y="215" on="0"/>
        <pt x="7" y="230" on="0"/>
        <pt x="-23" y="259" on="0"/>
        <pt x="-23" y="278" on="1"/>
        <pt x="-23" y="326" on="0"/>
        <pt x="106" y="429" on="0"/>
        <pt x="248" y="487" on="0"/>
        <pt x="305" y="487" on="0"/>
        <pt x="333" y="461" on="0"/>
        <pt x="333" y="417" on="0"/>
        <pt x="274" y="375" on="0"/>
        <pt x="236" y="375" on="0"/>
        <pt x="229" y="379" on="0"/>
      </contour>
    </TTGlyph>
    <TTGlyph name="apple" xMin="0" yMin="-141" xMax="799" yMax="807">
      <contour>
        <pt x="579" y="131" on="1"/>
        <pt x="579" y="64" on="0"/>
        <pt x="466" y="-5" on="0"/>
        <pt x="384" y="-5" on="1"/>
        <pt x="325" y="-5" on="0"/>
        <pt x="220" y="44" on="1"/>
        <pt x="232" y="104" on="1"/>
        <pt x="315" y="52" on="0"/>
        <pt x="393" y="52" on="1"/>
        <pt x="444" y="52" on="0"/>
        <pt x="507" y="94" on="0"/>
        <pt x="507" y="155" on="0"/>
        <pt x="450" y="204" on="0"/>
        <pt x="369" y="244" on="0"/>
        <pt x="288" y="287" on="0"/>
        <pt x="231" y="351" on="0"/>
        <pt x="231" y="437" on="0"/>
        <pt x="258" y="468" on="1"/>
        <pt x="306" y="521" on="0"/>
        <pt x="397" y="521" on="1"/>
        <pt x="453" y="521" on="0"/>
        <pt x="524" y="482" on="1"/>
        <pt x="547" y="469" on="0"/>
        <pt x="550" y="467" on="1"/>
        <pt x="537" y="412" on="1"/>
        <pt x="477" y="465" on="0"/>
        <pt x="400" y="465" on="1"/>
        <pt x="356" y="465" on="0"/>
        <pt x="300" y="426" on="0"/>
        <pt x="300" y="366" on="0"/>
        <pt x="357" y="322" on="0"/>
        <pt x="439" y="287" on="0"/>
        <pt x="522" y="248" on="0"/>
        <pt x="579" y="178" on="0"/>
      </contour>
      <contour>
        <pt x="742" y="116" on="0"/>
        <pt x="742" y="400" on="0"/>
        <pt x="541" y="600" on="0"/>
        <pt x="257" y="600" on="0"/>
        <pt x="57" y="400" on="0"/>
        <pt x="57" y="116" on="0"/>
        <pt x="257" y="-84" on="0"/>
        <pt x="541" y="-84" on="0"/>
      </contour>
      <contour>
        <pt x="799" y="424" on="0"/>
        <pt x="799" y="92" on="0"/>
        <pt x="565" y="-141" on="0"/>
        <pt x="234" y="-141" on="0"/>
        <pt x="0" y="92" on="0"/>
        <pt x="0" y="424" on="0"/>
        <pt x="234" y="657" on="0"/>
        <pt x="565" y="657" on="0"/>
      </contour>
      <contour>
        <pt x="364" y="699" on="1"/>
        <pt x="251" y="807" on="1"/>
        <pt x="325" y="807" on="1"/>
        <pt x="399" y="730" on="1"/>
        <pt x="474" y="807" on="1"/>
        <pt x="548" y="807" on="1"/>
        <pt x="435" y="699" on="1"/>
        <pt x="411" y="701" on="0"/>
        <pt x="382" y="701" on="0"/>
      </contour>
    </TTGlyph>
    <TTGlyph name="aring" xMin="0" yMin="-51" xMax="389" yMax="432">
      <contour>
        <pt x="257" y="128" on="1"/>
        <pt x="253" y="100" on="1"/>
        <pt x="253" y="82" on="0"/>
        <pt x="284" y="43" on="0"/>
        <pt x="305" y="43" on="1"/>
        <pt x="321" y="43" on="0"/>
        <pt x="331" y="50" on="1"/>
        <pt x="353" y="65" on="0"/>
        <pt x="364" y="76" on="0"/>
        <pt x="389" y="76" on="0"/>
        <pt x="389" y="67" on="1"/>
        <pt x="389" y="57" on="0"/>
        <pt x="342" y="4" on="1"/>
        <pt x="327" y="-13" on="0"/>
        <pt x="269" y="-51" on="0"/>
        <pt x="224" y="-51" on="0"/>
        <pt x="201" y="-36" on="0"/>
        <pt x="196" y="-20" on="1"/>
        <pt x="190" y="2" on="0"/>
        <pt x="190" y="34" on="1"/>
        <pt x="190" y="38" on="0"/>
        <pt x="180" y="38" on="0"/>
        <pt x="162" y="18" on="1"/>
        <pt x="106" y="-40" on="0"/>
        <pt x="37" y="-40" on="0"/>
        <pt x="0" y="-4" on="0"/>
        <pt x="0" y="24" on="1"/>
        <pt x="0" y="73" on="0"/>
        <pt x="52" y="162" on="0"/>
        <pt x="88" y="189" on="1"/>
        <pt x="168" y="248" on="0"/>
        <pt x="212" y="248" on="1"/>
        <pt x="278" y="246" on="0"/>
        <pt x="278" y="201" on="1"/>
        <pt x="278" y="185" on="0"/>
        <pt x="250" y="154" on="0"/>
        <pt x="226" y="154" on="0"/>
        <pt x="184" y="196" on="0"/>
        <pt x="134" y="196" on="0"/>
        <pt x="102" y="155" on="0"/>
        <pt x="102" y="123" on="1"/>
        <pt x="102" y="71" on="0"/>
        <pt x="157" y="71" on="1"/>
        <pt x="179" y="71" on="0"/>
        <pt x="208" y="93" on="0"/>
        <pt x="214" y="106" on="1"/>
        <pt x="231" y="140" on="0"/>
        <pt x="245" y="140" on="1"/>
        <pt x="257" y="140" on="0"/>
      </contour>
      <contour>
        <pt x="170" y="390" on="0"/>
        <pt x="146" y="367" on="0"/>
        <pt x="146" y="342" on="0"/>
        <pt x="164" y="324" on="0"/>
        <pt x="189" y="324" on="0"/>
        <pt x="212" y="347" on="0"/>
        <pt x="212" y="372" on="0"/>
        <pt x="194" y="390" on="0"/>
      </contour>
      <contour>
        <pt x="111" y="326" on="0"/>
        <pt x="111" y="388" on="0"/>
        <pt x="150" y="432" on="0"/>
        <pt x="208" y="432" on="0"/>
        <pt x="247" y="388" on="0"/>
        <pt x="247" y="326" on="0"/>
        <pt x="208" y="282" on="0"/>
        <pt x="150" y="282" on="0"/>
      </contour>
    </TTGlyph>
    <TTGlyph name="asciicircum" xMin="39" yMin="75" xMax="303" yMax="195">
      <contour>
        <pt x="171" y="111" on="1"/>
        <pt x="130" y="75" on="0"/>
        <pt x="39" y="75" on="0"/>
        <pt x="39" y="93" on="1"/>
        <pt x="39" y="104" on="0"/>
        <pt x="92" y="123" on="0"/>
        <pt x="124" y="152" on="0"/>
        <pt x="136" y="177" on="0"/>
        <pt x="156" y="195" on="0"/>
        <pt x="186" y="195" on="0"/>
        <pt x="206" y="177" on="0"/>
        <pt x="218" y="152" on="0"/>
        <pt x="250" y="123" on="0"/>
        <pt x="303" y="104" on="0"/>
        <pt x="303" y="93" on="1"/>
        <pt x="303" y="75" on="0"/>
        <pt x="212" y="75" on="0"/>
      </contour>
    </TTGlyph>
    <TTGlyph name="asciitilde" xMin="54" yMin="79" xMax="309" yMax="164">
      <contour>
        <pt x="54" y="127" on="0"/>
        <pt x="123" y="164" on="0"/>
        <pt x="182" y="164" on="0"/>
        <pt x="249" y="137" on="0"/>
        <pt x="286" y="137" on="0"/>
        <pt x="296" y="139" on="1"/>
        <pt x="308" y="139" on="0"/>
        <pt x="309" y="131" on="1"/>
        <pt x="309" y="115" on="0"/>
        <pt x="240" y="79" on="0"/>
        <pt x="180" y="79" on="0"/>
        <pt x="115" y="105" on="0"/>
        <pt x="76" y="105" on="0"/>
        <pt x="67" y="103" on="1"/>
        <pt x="55" y="103" on="0"/>
        <pt x="54" y="111" on="1"/>
      </contour>
    </TTGlyph>
    <TTGlyph name="asterisk" xMin="38" yMin="183" xMax="280" yMax="404">
      <contour>
        <pt x="163" y="404" on="1"/>
        <pt x="180" y="404" on="0"/>
        <pt x="180" y="344" on="0"/>
        <pt x="168" y="293" on="1"/>
        <pt x="176" y="302" on="0"/>
        <pt x="238" y="343" on="0"/>
        <pt x="267" y="343" on="0"/>
        <pt x="280" y="331" on="0"/>
        <pt x="280" y="325" on="1"/>
        <pt x="280" y="297" on="0"/>
        <pt x="177" y="278" on="1"/>
        <pt x="246" y="224" on="0"/>
        <pt x="246" y="200" on="1"/>
        <pt x="246" y="184" on="0"/>
        <pt x="228" y="184" on="1"/>
        <pt x="215" y="184" on="0"/>
        <pt x="198" y="204" on="1"/>
        <pt x="175" y="232" on="0"/>
        <pt x="159" y="269" on="1"/>
        <pt x="121" y="183" on="0"/>
        <pt x="90" y="183" on="1"/>
        <pt x="73" y="183" on="0"/>
        <pt x="73" y="200" on="1"/>
        <pt x="73" y="225" on="0"/>
        <pt x="141" y="276" on="1"/>
        <pt x="60" y="293" on="0"/>
        <pt x="45" y="308" on="1"/>
        <pt x="38" y="314" on="0"/>
        <pt x="38" y="330" on="0"/>
        <pt x="51" y="341" on="0"/>
        <pt x="59" y="341" on="1"/>
        <pt x="88" y="341" on="0"/>
        <pt x="148" y="293" on="1"/>
        <pt x="137" y="344" on="0"/>
        <pt x="137" y="363" on="1"/>
        <pt x="137" y="404" on="0"/>
      </contour>
    </TTGlyph>
    <TTGlyph name="at" xMin="10" yMin="-109" xMax="529" yMax="331">
      <contour>
        <pt x="351" y="128" on="1"/>
        <pt x="347" y="100" on="1"/>
        <pt x="347" y="82" on="0"/>
        <pt x="378" y="43" on="0"/>
        <pt x="419" y="43" on="0"/>
        <pt x="452" y="116" on="0"/>
        <pt x="452" y="213" on="0"/>
        <pt x="395" y="285" on="0"/>
        <pt x="331" y="285" on="1"/>
        <pt x="208" y="285" on="0"/>
        <pt x="44" y="124" on="0"/>
        <pt x="44" y="34" on="1"/>
        <pt x="44" y="-21" on="0"/>
        <pt x="117" y="-90" on="0"/>
        <pt x="189" y="-90" on="1"/>
        <pt x="196" y="-90" on="0"/>
        <pt x="196" y="-93" on="1"/>
        <pt x="196" y="-98" on="0"/>
        <pt x="173" y="-109" on="0"/>
        <pt x="166" y="-109" on="1"/>
        <pt x="89" y="-109" on="0"/>
        <pt x="10" y="-29" on="0"/>
        <pt x="10" y="83" on="0"/>
        <pt x="59" y="186" on="0"/>
        <pt x="148" y="275" on="0"/>
        <pt x="288" y="331" on="0"/>
        <pt x="450" y="331" on="0"/>
        <pt x="529" y="244" on="0"/>
        <pt x="529" y="92" on="0"/>
        <pt x="418" y="-51" on="0"/>
        <pt x="336" y="-51" on="1"/>
        <pt x="299" y="-51" on="0"/>
        <pt x="290" y="-20" on="1"/>
        <pt x="284" y="2" on="0"/>
        <pt x="284" y="34" on="1"/>
        <pt x="284" y="38" on="0"/>
        <pt x="274" y="38" on="0"/>
        <pt x="256" y="18" on="1"/>
        <pt x="200" y="-40" on="0"/>
        <pt x="131" y="-40" on="0"/>
        <pt x="94" y="-4" on="0"/>
        <pt x="94" y="24" on="1"/>
        <pt x="94" y="73" on="0"/>
        <pt x="146" y="162" on="0"/>
        <pt x="182" y="189" on="1"/>
        <pt x="262" y="248" on="0"/>
        <pt x="306" y="248" on="1"/>
        <pt x="372" y="246" on="0"/>
        <pt x="372" y="201" on="1"/>
        <pt x="372" y="185" on="0"/>
        <pt x="344" y="154" on="0"/>
        <pt x="320" y="154" on="0"/>
        <pt x="278" y="196" on="0"/>
        <pt x="228" y="196" on="0"/>
        <pt x="196" y="155" on="0"/>
        <pt x="196" y="123" on="1"/>
        <pt x="196" y="71" on="0"/>
        <pt x="251" y="71" on="1"/>
        <pt x="273" y="71" on="0"/>
        <pt x="302" y="93" on="0"/>
        <pt x="308" y="106" on="1"/>
        <pt x="325" y="140" on="0"/>
        <pt x="339" y="140" on="1"/>
        <pt x="351" y="140" on="0"/>
      </contour>
    </TTGlyph>
    <TTGlyph name="atilde" xMin="0" yMin="-51" xMax="389" yMax="382">
      <contour>
        <pt x="257" y="128" on="1"/>
        <pt x="253" y="100" on="1"/>
        <pt x="253" y="82" on="0"/>
        <pt x="284" y="43" on="0"/>
        <pt x="305" y="43" on="1"/>
        <pt x="321" y="43" on="0"/>
        <pt x="331" y="50" on="1"/>
        <pt x="353" y="65" on="0"/>
        <pt x="364" y="76" on="0"/>
        <pt x="389" y="76" on="0"/>
        <pt x="389" y="67" on="1"/>
        <pt x="389" y="57" on="0"/>
        <pt x="342" y="4" on="1"/>
        <pt x="327" y="-13" on="0"/>
        <pt x="269" y="-51" on="0"/>
        <pt x="224" y="-51" on="0"/>
        <pt x="201" y="-36" on="0"/>
        <pt x="196" y="-20" on="1"/>
        <pt x="190" y="2" on="0"/>
        <pt x="190" y="34" on="1"/>
        <pt x="190" y="38" on="0"/>
        <pt x="180" y="38" on="0"/>
        <pt x="162" y="18" on="1"/>
        <pt x="106" y="-40" on="0"/>
        <pt x="37" y="-40" on="0"/>
        <pt x="0" y="-4" on="0"/>
        <pt x="0" y="24" on="1"/>
        <pt x="0" y="73" on="0"/>
        <pt x="52" y="162" on="0"/>
        <pt x="88" y="189" on="1"/>
        <pt x="168" y="248" on="0"/>
        <pt x="212" y="248" on="1"/>
        <pt x="278" y="246" on="0"/>
        <pt x="278" y="201" on="1"/>
        <pt x="278" y="185" on="0"/>
        <pt x="250" y="154" on="0"/>
        <pt x="226" y="154" on="0"/>
        <pt x="184" y="196" on="0"/>
        <pt x="134" y="196" on="0"/>
        <pt x="102" y="155" on="0"/>
        <pt x="102" y="123" on="1"/>
        <pt x="102" y="71" on="0"/>
        <pt x="157" y="71" on="1"/>
        <pt x="179" y="71" on="0"/>
        <pt x="208" y="93" on="0"/>
        <pt x="214" y="106" on="1"/>
        <pt x="231" y="140" on="0"/>
        <pt x="245" y="140" on="1"/>
        <pt x="257" y="140" on="0"/>
      </contour>
      <contour>
        <pt x="64" y="345" on="0"/>
        <pt x="125" y="382" on="0"/>
        <pt x="180" y="382" on="0"/>
        <pt x="240" y="355" on="0"/>
        <pt x="273" y="355" on="0"/>
        <pt x="282" y="357" on="1"/>
        <pt x="292" y="357" on="0"/>
        <pt x="293" y="349" on="1"/>
        <pt x="293" y="333" on="0"/>
        <pt x="231" y="297" on="0"/>
        <pt x="177" y="297" on="0"/>
        <pt x="119" y="323" on="0"/>
        <pt x="84" y="323" on="0"/>
        <pt x="75" y="321" on="1"/>
        <pt x="65" y="321" on="0"/>
        <pt x="64" y="329" on="1"/>
      </contour>
    </TTGlyph>
    <TTGlyph name="b" xMin="0" yMin="-43" xMax="385" yMax="588">
      <contour>
        <pt x="91" y="220" on="0"/>
        <pt x="138" y="405" on="0"/>
        <pt x="138" y="511" on="0"/>
        <pt x="119" y="511" on="1"/>
        <pt x="90" y="511" on="0"/>
        <pt x="54" y="349" on="0"/>
        <pt x="54" y="242" on="0"/>
        <pt x="62" y="194" on="1"/>
      </contour>
      <contour>
        <pt x="90" y="-43" on="1"/>
        <pt x="63" y="-43" on="0"/>
        <pt x="24" y="-5" on="0"/>
        <pt x="5" y="41" on="0"/>
        <pt x="0" y="74" on="1"/>
        <pt x="-17" y="184" on="0"/>
        <pt x="18" y="344" on="1"/>
        <pt x="39" y="445" on="0"/>
        <pt x="113" y="588" on="0"/>
        <pt x="151" y="588" on="1"/>
        <pt x="167" y="588" on="0"/>
        <pt x="186" y="549" on="0"/>
        <pt x="186" y="533" on="1"/>
        <pt x="185" y="437" on="0"/>
        <pt x="109" y="210" on="0"/>
        <pt x="69" y="161" on="1"/>
        <pt x="100" y="52" on="0"/>
        <pt x="166" y="52" on="1"/>
        <pt x="182" y="52" on="0"/>
        <pt x="202" y="61" on="1"/>
        <pt x="163" y="75" on="0"/>
        <pt x="163" y="162" on="0"/>
        <pt x="228" y="244" on="0"/>
        <pt x="263" y="244" on="1"/>
        <pt x="274" y="244" on="0"/>
        <pt x="289" y="227" on="0"/>
        <pt x="289" y="203" on="0"/>
        <pt x="279" y="177" on="0"/>
        <pt x="279" y="163" on="1"/>
        <pt x="279" y="134" on="0"/>
        <pt x="317" y="134" on="1"/>
        <pt x="330" y="134" on="0"/>
        <pt x="366" y="157" on="0"/>
        <pt x="372" y="157" on="1"/>
        <pt x="385" y="157" on="0"/>
        <pt x="385" y="137" on="0"/>
        <pt x="347" y="102" on="0"/>
        <pt x="275" y="65" on="0"/>
        <pt x="237" y="60" on="1"/>
        <pt x="194" y="-43" on="0"/>
      </contour>
    </TTGlyph>
    <TTGlyph name="backslash" xMin="-95" yMin="-67" xMax="280" yMax="731">
      <contour>
        <pt x="-48" y="718" on="1"/>
        <pt x="-2" y="620" on="0"/>
        <pt x="236" y="38" on="0"/>
        <pt x="278" y="-49" on="1"/>
        <pt x="280" y="-55" on="0"/>
        <pt x="280" y="-56" on="1"/>
        <pt x="280" y="-61" on="0"/>
        <pt x="263" y="-67" on="0"/>
        <pt x="258" y="-67" on="1"/>
        <pt x="235" y="-67" on="0"/>
        <pt x="222" y="-44" on="1"/>
        <pt x="217" y="-33" on="0"/>
        <pt x="-47" y="617" on="0"/>
        <pt x="-95" y="714" on="0"/>
        <pt x="-95" y="723" on="1"/>
        <pt x="-95" y="726" on="0"/>
        <pt x="-71" y="731" on="0"/>
        <pt x="-57" y="731" on="0"/>
      </contour>
    </TTGlyph>
</ttFont>
